<svg width="175" height="175" viewBox="0 0 175 175" fill="none" xmlns="http://www.w3.org/2000/svg">
<rect width="175" height="175" rx="87.5" fill="white"/>
<g clip-path="url(#clip0_1126_1432)">
<path d="M38.8586 103.77H42.4784L31.7431 92.0127L21.0077 103.77H24.6275L26.5444 101.604H36.9375L38.8543 103.77H38.8586ZM31.7431 95.7573L35.1062 99.5535H28.38L31.7431 95.7573ZM73.4052 94.4233H82.7286C84.5813 94.4233 85.1461 94.9938 85.1461 96.1992C85.1461 97.2586 84.3502 97.9063 82.7414 97.9063H73.4009V94.4233H73.4052ZM99.5868 92.3687H96.5147V103.766H99.5868V92.3687ZM125.135 92.3687V99.4033L112.436 92.3687H109.334V103.766H112.175V95.3456L128.011 104.087V92.3644H125.135V92.3687ZM70.3373 92.3687V103.766H73.4052V99.9567H83.3276C87.0159 99.9567 88.445 98.4082 88.445 96.1134C88.445 93.8185 86.8875 92.3687 83.4731 92.3687H70.333H70.3373ZM52.1441 101.715V92.3687H49.0762V103.766H63.0292L63.8893 101.715H52.1441ZM140.825 101.715V98.9958H153.285V96.9455H140.825V94.4191H153.285V92.3687H137.757V103.766H153.122L153.692 101.715H140.83H140.825Z" fill="#00174B"/>
<path fill-rule="evenodd" clip-rule="evenodd" d="M84.2604 72.0751C85.7536 71.14 86.7506 69.4714 86.7506 67.5755C86.7506 64.6459 84.3802 62.2695 81.4578 62.2695H70.5128V82.4126H82.5317C85.4584 82.4126 87.8331 80.032 87.8331 77.098C87.8331 74.7689 86.3398 72.7914 84.2604 72.0708M76.6399 67.2667H78.5953C79.1772 67.2667 79.6522 67.8715 79.6522 68.6221C79.6522 69.3728 79.1772 69.9776 78.5953 69.9776H76.6399V67.271V67.2667ZM79.6265 77.9945H76.657V75.0477H79.6265C80.2768 75.0477 80.8074 75.7082 80.8074 76.5189C80.8074 77.3296 80.2811 77.9902 79.6265 77.9902" fill="#00174B"/>
<path fill-rule="evenodd" clip-rule="evenodd" d="M110.185 62.2695L107.07 71.1443L104.708 62.2695H99.2058L96.844 71.1443L93.729 62.2695H86.3011L93.314 82.4169H99.3599L101.957 72.6113L104.554 82.4169H110.6L117.613 62.2695H110.185Z" fill="#00174B"/>
<path fill-rule="evenodd" clip-rule="evenodd" d="M130.928 62.2695H118.477L116.218 68.7637H119.791V82.4169H127.099V68.7637H130.928V62.2695Z" fill="#00174B"/>
<path d="M65.5368 72.3448C65.5368 78.3714 60.6633 83.2571 54.6517 83.2571C48.64 83.2571 43.7665 78.3714 43.7665 72.3448V53.4414L47.0141 55.3202V72.3405C47.0141 76.5699 50.4328 79.9971 54.6517 79.9971C58.8705 79.9971 62.2892 76.5699 62.2892 72.3405C62.2892 70.8778 61.8785 69.5095 61.1682 68.3471C60.5135 67.279 59.6107 66.3868 58.5325 65.7477L58.4255 65.6834L53.0429 62.565V58.8075L60.0899 62.8867C63.3418 64.774 65.5325 68.2999 65.5325 72.3405" fill="#FF88BD"/>
<path d="M61.365 72.3469C61.365 76.0615 58.3614 79.0727 54.656 79.0727C50.9506 79.0727 47.9469 76.0615 47.9469 72.3469V55.8584L51.1945 57.7372V72.3426C51.1945 74.26 52.7434 75.8127 54.656 75.8127C56.5686 75.8127 58.1175 74.26 58.1175 72.3426C58.1175 71.0558 57.42 69.9362 56.3846 69.3357H56.3803L53.0472 67.4055V63.648L54.8485 64.6903L57.9634 66.4918L58.0062 66.5176L58.0362 66.5347C60.0258 67.7015 61.3608 69.8676 61.3608 72.3426" fill="#FF88BD"/>
<path d="M35.239 113.053H38.9145C38.9401 113.053 38.9615 113.078 38.9615 113.1V113.885C38.9615 113.91 38.9359 113.932 38.9145 113.932H36.1204C36.1204 113.932 36.0948 113.945 36.0948 113.958V116.733C36.0948 116.733 36.1076 116.759 36.1204 116.759H38.7904C38.8161 116.759 38.8374 116.784 38.8374 116.806V117.591C38.8374 117.616 38.8118 117.638 38.7904 117.638H36.1204C36.1204 117.638 36.0948 117.651 36.0948 117.664V121.764C36.0948 121.79 36.0691 121.811 36.0477 121.811H35.239C35.2133 121.811 35.192 121.786 35.192 121.764V113.091C35.192 113.065 35.2176 113.044 35.239 113.044V113.053Z" fill="#00174B"/>
<path d="M40.694 118.851V116.024C40.694 113.948 41.6139 112.88 43.0601 112.88C44.5063 112.88 45.4263 113.914 45.4263 115.977V118.902C45.4263 120.965 44.5063 121.999 43.0601 121.999C41.6139 121.999 40.694 120.931 40.694 118.855V118.851ZM44.5192 118.902V115.977C44.5192 114.454 43.9544 113.768 43.0601 113.768C42.1659 113.768 41.6011 114.454 41.6011 115.977V118.902C41.6011 120.425 42.1659 121.111 43.0601 121.111C43.9544 121.111 44.5192 120.425 44.5192 118.902Z" fill="#00174B"/>
<path d="M47.5828 113.053H49.5681C50.9758 113.053 51.8829 113.988 51.8829 115.596C51.8829 116.815 51.3695 117.634 50.488 117.981C50.4752 117.994 50.4752 118.007 50.4752 118.02L52.0926 121.765C52.1054 121.79 52.0926 121.825 52.0541 121.825H51.1598C51.1341 121.825 51.1213 121.812 51.1127 121.786L49.5681 118.187C49.5681 118.187 49.5424 118.161 49.5296 118.161H48.4642C48.4642 118.161 48.4385 118.174 48.4385 118.187V121.773C48.4385 121.799 48.4128 121.82 48.3915 121.82H47.5828C47.5571 121.82 47.5357 121.795 47.5357 121.773V113.1C47.5357 113.074 47.5614 113.053 47.5828 113.053ZM48.4642 117.282H49.444C50.411 117.282 50.9758 116.703 50.9758 115.601C50.9758 114.498 50.4624 113.941 49.5681 113.941H48.4642C48.4642 113.941 48.4385 113.954 48.4385 113.966V117.256C48.4385 117.256 48.4514 117.282 48.4642 117.282Z" fill="#00174B"/>
<path d="M56.4917 121.777L54.9599 114.258H54.9342V121.777C54.9342 121.803 54.9086 121.824 54.8872 121.824H54.0785C54.0528 121.824 54.0314 121.798 54.0314 121.777V113.104C54.0314 113.078 54.0571 113.057 54.0785 113.057H55.6103C55.636 113.057 55.6702 113.082 55.6702 113.104L57.0308 120.168C57.0308 120.194 57.0565 120.194 57.0565 120.168L58.43 113.104C58.43 113.078 58.4642 113.057 58.4899 113.057H60.0088C60.0345 113.057 60.0559 113.082 60.0559 113.104V121.777C60.0559 121.803 60.0302 121.824 60.0088 121.824H59.2002C59.1745 121.824 59.1531 121.798 59.1531 121.777V114.322H59.1274L57.6085 121.777C57.6085 121.803 57.57 121.824 57.5486 121.824H56.5559C56.5302 121.824 56.496 121.798 56.496 121.777H56.4917Z" fill="#00174B"/>
<path d="M62.1693 119.431V113.104C62.1693 113.078 62.1949 113.057 62.2163 113.057H63.025C63.0507 113.057 63.0721 113.082 63.0721 113.104V119.431C63.0721 120.439 63.5513 121.112 64.4669 121.112C65.3826 121.112 65.8661 120.439 65.8661 119.431V113.104C65.8661 113.078 65.8918 113.057 65.9132 113.057H66.7218C66.7475 113.057 66.7689 113.082 66.7689 113.104V119.431C66.7689 120.979 65.8746 122 64.4669 122C63.0592 122 62.165 121.018 62.165 119.431H62.1693Z" fill="#00174B"/>
<path d="M68.8868 121.777V113.104C68.8868 113.078 68.9125 113.057 68.9339 113.057H69.7426C69.7683 113.057 69.7897 113.082 69.7897 113.104V120.915C69.7897 120.915 69.8025 120.941 69.8153 120.941H72.7334C72.7719 120.941 72.7933 120.979 72.7805 121.001L72.5366 121.786C72.5238 121.824 72.5109 121.824 72.4895 121.824H68.9339C68.9082 121.824 68.8868 121.798 68.8868 121.777Z" fill="#00174B"/>
<path d="M77.5605 113.104L79.4859 121.777C79.4987 121.803 79.4602 121.824 79.4388 121.824H78.5788C78.5531 121.824 78.5189 121.798 78.5189 121.777L78.1039 119.86C78.1039 119.834 78.091 119.834 78.0782 119.834H75.6521C75.6521 119.834 75.6265 119.834 75.6265 119.86L75.2114 121.777C75.2114 121.803 75.1729 121.824 75.1515 121.824H74.33C74.3043 121.824 74.2701 121.798 74.2829 121.777L76.2084 113.104C76.2084 113.078 76.2469 113.057 76.2683 113.057H77.5048C77.5305 113.057 77.5647 113.082 77.5647 113.104H77.5605ZM75.8361 118.95H77.8942C77.8942 118.95 77.9199 118.95 77.9199 118.925L76.8801 114.06C76.8801 114.035 76.8545 114.035 76.8545 114.06L75.8147 118.925C75.8147 118.95 75.8276 118.95 75.8404 118.95H75.8361Z" fill="#00174B"/>
<path d="M85.617 118.851V116.024C85.617 113.948 86.5369 112.88 87.9831 112.88C89.4294 112.88 90.3493 113.914 90.3493 115.977V118.902C90.3493 120.965 89.4294 121.999 87.9831 121.999C86.5369 121.999 85.617 120.931 85.617 118.855V118.851ZM89.4379 118.902V115.977C89.4379 114.454 88.8731 113.768 87.9789 113.768C87.0846 113.768 86.5198 114.454 86.5198 115.977V118.902C86.5198 120.425 87.0846 121.111 87.9789 121.111C88.8731 121.111 89.4379 120.425 89.4379 118.902Z" fill="#00174B"/>
<path d="M95.9117 121.786L93.2889 114.601C93.2889 114.601 93.2632 114.588 93.2632 114.614V121.777C93.2632 121.803 93.2375 121.824 93.2161 121.824H92.5059C92.4802 121.824 92.4588 121.798 92.4588 121.777V113.104C92.4588 113.078 92.4845 113.057 92.5059 113.057H93.6098C93.6355 113.057 93.6483 113.057 93.6568 113.095L96.3653 120.516C96.3653 120.516 96.391 120.529 96.391 120.503V113.108C96.391 113.082 96.4166 113.061 96.438 113.061H97.1483C97.174 113.061 97.1954 113.087 97.1954 113.108V121.781C97.1954 121.807 97.1697 121.828 97.1483 121.828H95.9588C95.9331 121.828 95.9246 121.828 95.9117 121.79V121.786Z" fill="#00174B"/>
<path d="M99.3045 121.777V113.104C99.3045 113.078 99.3302 113.057 99.3516 113.057H103.027C103.053 113.057 103.074 113.082 103.074 113.104V113.889C103.074 113.915 103.048 113.936 103.027 113.936H100.233C100.233 113.936 100.207 113.949 100.207 113.962V116.737C100.207 116.737 100.22 116.763 100.233 116.763H102.903C102.929 116.763 102.95 116.788 102.95 116.81V117.595C102.95 117.621 102.924 117.642 102.903 117.642H100.233C100.233 117.642 100.207 117.655 100.207 117.668V120.911C100.207 120.911 100.22 120.936 100.233 120.936H103.151C103.19 120.936 103.211 120.975 103.198 120.996L102.954 121.781C102.941 121.82 102.929 121.82 102.907 121.82H99.3516C99.3259 121.82 99.3045 121.794 99.3045 121.773V121.777Z" fill="#00174B"/>
<path d="M116.415 121.777V113.966C116.415 113.966 116.402 113.94 116.389 113.94H114.798C114.772 113.94 114.751 113.914 114.751 113.893V113.108C114.751 113.082 114.776 113.061 114.798 113.061H118.94C118.965 113.061 118.987 113.086 118.987 113.108V113.893C118.987 113.918 118.961 113.94 118.94 113.94H117.348C117.348 113.94 117.322 113.953 117.322 113.966V121.777C117.322 121.802 117.297 121.824 117.275 121.824H116.467C116.441 121.824 116.419 121.798 116.419 121.777H116.415Z" fill="#00174B"/>
<path d="M120.844 121.777V113.104C120.844 113.078 120.87 113.057 120.891 113.057H124.567C124.592 113.057 124.614 113.082 124.614 113.104V113.889C124.614 113.915 124.588 113.936 124.567 113.936H121.773C121.773 113.936 121.747 113.949 121.747 113.962V116.737C121.747 116.737 121.76 116.763 121.773 116.763H124.442C124.468 116.763 124.49 116.788 124.49 116.81V117.595C124.49 117.621 124.464 117.642 124.442 117.642H121.773C121.773 117.642 121.747 117.655 121.747 117.668V120.911C121.747 120.911 121.76 120.936 121.773 120.936H124.691C124.729 120.936 124.751 120.975 124.738 120.996L124.494 121.781C124.481 121.82 124.468 121.82 124.447 121.82H120.891C120.865 121.82 120.844 121.794 120.844 121.773V121.777Z" fill="#00174B"/>
<path d="M129.654 113.104L131.579 121.777C131.592 121.803 131.554 121.824 131.532 121.824H130.672C130.646 121.824 130.612 121.798 130.612 121.777L130.197 119.86C130.197 119.834 130.184 119.834 130.172 119.834H127.745C127.745 119.834 127.72 119.834 127.72 119.86L127.305 121.777C127.305 121.803 127.266 121.824 127.245 121.824H126.423C126.398 121.824 126.363 121.798 126.376 121.777L128.302 113.104C128.302 113.078 128.34 113.057 128.362 113.057H129.598C129.624 113.057 129.658 113.082 129.658 113.104H129.654ZM127.925 118.95H129.983C129.983 118.95 130.009 118.95 130.009 118.925L128.969 114.06C128.969 114.035 128.944 114.035 128.944 114.06L127.904 118.925C127.904 118.95 127.917 118.95 127.929 118.95H127.925Z" fill="#00174B"/>
<path d="M135.943 121.777L134.411 114.258H134.386V121.777C134.386 121.803 134.36 121.824 134.339 121.824H133.53C133.504 121.824 133.483 121.798 133.483 121.777V113.104C133.483 113.078 133.509 113.057 133.53 113.057H135.062C135.088 113.057 135.122 113.082 135.122 113.104L136.482 120.168C136.482 120.194 136.508 120.194 136.508 120.168L137.882 113.104C137.882 113.078 137.916 113.057 137.941 113.057H139.46C139.486 113.057 139.507 113.082 139.507 113.104V121.777C139.507 121.803 139.482 121.824 139.46 121.824H138.652C138.626 121.824 138.605 121.798 138.605 121.777V114.322H138.579L137.06 121.777C137.06 121.803 137.021 121.824 137 121.824H136.007C135.982 121.824 135.948 121.798 135.948 121.777H135.943Z" fill="#00174B"/>
<path d="M105.44 114.627V113.447C105.44 113.447 105.427 113.421 105.415 113.421H104.79C104.764 113.421 104.743 113.396 104.743 113.374V113.104C104.743 113.078 104.769 113.057 104.79 113.057H106.48C106.506 113.057 106.527 113.082 106.527 113.104V113.374C106.527 113.4 106.501 113.421 106.48 113.421H105.855C105.855 113.421 105.83 113.434 105.83 113.447V114.627C105.83 114.652 105.804 114.674 105.783 114.674H105.487C105.462 114.674 105.44 114.648 105.44 114.627ZM107.943 114.639L107.319 113.327C107.319 113.327 107.293 113.314 107.293 113.34V114.631C107.293 114.657 107.267 114.678 107.246 114.678H106.964C106.938 114.678 106.916 114.652 106.916 114.631V113.108C106.916 113.082 106.942 113.061 106.964 113.061H107.563C107.588 113.061 107.601 113.074 107.61 113.1L108.174 114.266C108.174 114.266 108.187 114.279 108.2 114.266L108.765 113.1C108.778 113.074 108.791 113.061 108.812 113.061H109.398C109.424 113.061 109.445 113.087 109.445 113.108V114.631C109.445 114.657 109.42 114.678 109.398 114.678H109.116C109.09 114.678 109.069 114.652 109.069 114.631V113.34C109.069 113.314 109.056 113.314 109.043 113.327L108.431 114.639C108.418 114.665 108.405 114.678 108.384 114.678H107.99C107.965 114.678 107.952 114.665 107.943 114.639Z" fill="#00174B"/>
</g>
<defs>
<clipPath id="clip0_1126_1432">
<rect width="132.684" height="68.5533" fill="white" transform="translate(21.0078 53.4414)"/>
</clipPath>
</defs>
</svg>
