<svg width="175" height="175" viewBox="0 0 175 175" fill="none" xmlns="http://www.w3.org/2000/svg">
<rect width="175" height="175" rx="87.5" fill="white"/>
<g clip-path="url(#clip0_773_1803)">
<path d="M87.8839 82.8453C72.4015 82.8453 48.4669 82.9246 28.2074 83.3733V83.4716C48.4637 83.9203 73.459 84.0059 88.8939 84.0059C94.6016 84.0059 123.551 83.9932 147.061 83.4716V83.3717C130.875 83.0134 109.853 82.8438 87.8839 82.8438" fill="black"/>
<path d="M134.944 92.9121C129.964 92.9121 125.902 96.9773 125.902 101.957C125.902 106.937 129.966 111.003 134.944 111.003C139.923 111.003 143.936 106.937 143.936 101.957C143.936 96.9773 139.923 92.9121 134.944 92.9121ZM134.944 106.887C132.2 106.887 130.017 104.651 130.017 101.957C130.017 99.2636 132.2 97.0804 134.944 97.0804C137.689 97.0804 139.821 99.2668 139.821 101.957C139.821 104.648 137.635 106.887 134.944 106.887Z" fill="black"/>
<path d="M101.827 92.7109C99.8447 92.7109 97.8121 93.1184 96.1853 93.778C94.8662 93.0154 93.5931 92.7109 91.765 92.7109C89.4787 92.7109 87.1433 93.0154 84.6033 93.8795L84.1435 94.0317V110.648H88.6653V97.0298C89.5817 96.7254 90.292 96.6224 91.2085 96.6224C93.444 96.6224 94.1036 97.3358 94.1036 99.6713V110.646H98.6762V99.3669C98.6762 98.3505 98.6254 97.6894 98.4764 97.0806C99.3896 96.7761 100.102 96.6224 100.912 96.6224C103.047 96.6224 104.013 97.5895 104.013 99.6713V110.646H108.536V99.3145C108.536 97.079 108.18 95.7598 107.163 94.6389C106.042 93.4197 104.164 92.7109 101.83 92.7109" fill="black"/>
<path d="M119.95 107.066C116.936 107.066 115.21 105.197 115.21 101.929C115.21 98.6617 116.957 96.6656 119.995 96.6656C120.626 96.6656 121.16 96.7322 121.664 96.8828C121.664 96.8828 122.6 97.1491 123.423 97.7929L125.335 94.5109C124.293 93.642 123.064 93.2663 122.649 93.1585C121.472 92.8049 119.752 92.751 119.752 92.751C114.312 92.751 110.669 96.5245 110.669 102.129C110.669 107.734 114.128 111 119.495 111C119.495 111 123.088 111.159 125.501 108.921L123.248 106.03C122.026 106.808 121.181 107.07 119.952 107.07" fill="black"/>
<path d="M61.0002 92.8633C54.5456 92.8633 51.5506 95.7092 51.5506 101.756V110.646H56.1723V101.704C56.1723 98.6551 57.9005 96.7763 60.5927 96.7763C61.712 96.7763 62.5746 96.9792 63.185 97.1314L64.252 93.1185C62.462 92.8617 61.0002 92.8633 61.0002 92.8633Z" fill="black"/>
<path d="M81.502 101.249V110.648H75.3043C71.0362 110.648 69.1558 110.342 66.9218 108.871C64.9891 107.548 63.9221 105.059 63.9221 101.807C63.9221 97.3347 66.8679 92.8145 73.3716 92.8145C78.6561 92.8145 81.502 95.7635 81.502 101.251M76.9802 101.753C76.9802 98.3478 75.6579 96.6736 73.0181 96.6736C70.3782 96.6736 68.5977 98.6554 68.5977 101.65C68.5977 105.259 70.3227 106.837 74.1866 106.837H76.9802V101.753Z" fill="black"/>
<path d="M49.0343 101.246V110.646H42.8858C38.6176 110.646 36.7356 110.34 34.5032 108.869C32.5705 107.547 31.5035 105.057 31.5035 101.805C31.5035 97.3327 34.4493 92.8125 40.953 92.8125C46.2375 92.8125 49.0327 95.7615 49.0327 101.246M44.3603 101.753C44.3603 98.2983 43.141 96.6732 40.4488 96.6732C37.7567 96.6732 36.0285 98.6551 36.0285 101.65C36.0285 105.259 37.7567 106.836 41.6158 106.836H44.3619V101.753H44.3603Z" fill="black"/>
<path d="M66.1437 58.2486H67.4343L66.789 56.5759L66.1437 58.2486ZM64.7976 59.8896L66.6764 55.4169H67.1648L69.0436 59.8896H68.0606L67.6277 58.7686H65.9423L65.5032 59.8896H64.796H64.7976ZM69.3147 59.6835L69.2402 58.8749C69.6698 59.2379 70.1233 59.4203 70.5989 59.4203C70.8701 59.4203 71.0746 59.3664 71.2125 59.2601C71.4757 59.0572 71.4757 58.6989 71.2839 58.4706C71.1206 58.2771 70.8368 58.1598 70.1598 57.8348C69.5589 57.5462 69.2576 57.1277 69.2576 56.5759C69.2576 56.1922 69.3892 55.8862 69.6524 55.6579C70.2295 55.1585 71.1824 55.3487 71.2775 55.3662C71.4599 55.3995 71.6358 55.4518 71.8071 55.5231L71.8816 56.2937C71.6771 56.1478 71.4852 56.0416 71.3092 55.9734C70.6988 55.7435 70.0472 55.8989 70.0472 56.4253C70.0472 56.6821 70.2121 56.8581 70.5545 57.0325C71.3409 57.4289 71.7104 57.5843 71.9926 57.9378C72.3366 58.3723 72.3541 59.211 71.8023 59.6486C71.5138 59.8769 71.1158 59.9895 70.6053 59.9895C69.9378 59.9895 69.4907 59.7818 69.3147 59.6819V59.6835ZM73.5733 59.8896V55.9623C73.2071 55.9702 72.8202 55.9956 72.232 56.0685L72.2827 55.4169H75.7217L75.7724 56.0685C75.0304 55.9766 74.6309 55.9655 74.4263 55.9623V59.8896H73.5749H73.5733ZM78.046 59.4456C78.742 59.4456 79.3747 58.8891 79.3747 57.654C79.3747 57.551 79.4 56.56 78.7516 56.0812C78.5534 55.9354 78.3187 55.8624 78.0476 55.8624C77.1185 55.8624 76.719 56.7249 76.719 57.654C76.719 58.8812 77.3468 59.4456 78.0476 59.4456H78.046ZM78.046 59.9895C76.711 59.9895 75.7914 59.0207 75.7914 57.6525C75.7914 56.2842 76.7205 55.3154 78.046 55.3154C79.3715 55.3154 80.3006 56.2636 80.3006 57.6525C80.3006 59.0413 79.381 59.9895 78.046 59.9895ZM80.9903 59.8896V55.4169H81.4532L84.128 58.4547V55.4169H84.7606V59.8896H84.2913L81.6229 56.8454V59.8896H80.9903ZM87.1436 59.8896L87.6446 55.4169H88.1012L89.6931 58.5372L91.2278 55.4169H91.6845L92.1855 59.8896H91.277L91.0201 57.1277L89.7676 59.7088H89.3538L88.0822 57.1594L87.8254 59.8912H87.142L87.1436 59.8896ZM93.9152 58.2486H95.2058L94.5605 56.5759L93.9152 58.2486ZM92.5692 59.8896L94.448 55.4169H94.9363L96.8151 59.8896H95.8321L95.3993 58.7686H93.7139L93.2747 59.8896H92.5676H92.5692ZM98.0692 57.4527C98.1897 57.4733 98.3087 57.4844 98.426 57.4844C99.1553 57.4844 99.3345 57.0658 99.3345 56.7012C99.3345 56.1526 98.946 55.9243 98.3879 55.9243C98.288 55.9243 98.1818 55.9306 98.0677 55.9433V57.4527H98.0692ZM97.2163 59.8896V55.455C97.4652 55.4232 97.7632 55.3979 98.2183 55.3979C98.6194 55.3979 98.9682 55.4454 99.2647 55.539C99.6944 55.6753 100.205 55.9829 100.205 56.6568C100.205 56.9374 100.118 57.1863 99.9449 57.4051C99.7721 57.6239 99.5311 57.7809 99.2219 57.8728L100.795 59.8896H99.761L98.3578 57.9791H98.0692V59.8896H97.2178H97.2163ZM101.846 59.8896V55.9623C101.48 55.9702 101.093 55.9956 100.505 56.0685L100.555 55.4169H103.994L104.045 56.0685C103.305 55.9766 102.905 55.9655 102.699 55.9623V59.8896H101.847H101.846ZM104.627 55.4169H105.478V59.8896H104.627V55.4169ZM106.357 59.8896V55.4169H106.82L109.494 58.4547V55.4169H110.127V59.8896H109.658L106.989 56.8454V59.8896H106.357Z" fill="black"/>
<path d="M142.032 50.1828C141.743 49.6722 141.174 49.3789 140.473 49.3789H96.4775C95.7355 49.3789 94.613 49.3789 93.446 50.5458C93.0639 50.9279 92.8515 51.3069 92.6644 51.6414C92.3029 52.2883 92.0413 52.7576 90.8379 52.7576H84.4277C83.2243 52.7576 82.9627 52.2899 82.6012 51.6414C82.4142 51.3069 82.2017 50.9279 81.8196 50.5458C80.6527 49.3789 79.5317 49.3789 78.7881 49.3789H34.7954C34.0946 49.3789 33.5254 49.6722 33.2368 50.1828C32.9483 50.6933 32.9847 51.3449 33.3351 51.9268L34.1279 53.2491C34.5544 53.98 35.1188 54.0942 35.5294 54.1766C35.9036 54.2511 36.1288 54.2971 36.4173 54.8029L37.1149 56.0301C37.6556 57.0337 38.3072 57.1574 38.7829 57.2477C39.1491 57.3159 39.4948 57.3476 39.9593 58.1943C40.4128 59.0187 41.0977 60.2665 42.7593 60.7612C42.9226 60.8087 59.1533 65.5415 59.174 65.5478C60.8831 66.1011 61.3318 66.7322 61.8661 67.5217C62.1832 67.9895 63.0251 69.2325 65.1116 69.7938L80.7208 74.0112C82.3904 74.4615 83.4463 73.6449 83.9331 73.2137L86.7648 70.5326C87.1532 70.1648 87.3974 70.0205 87.6368 70.0205C87.8762 70.0205 88.1188 70.1648 88.5088 70.5326L91.3405 73.2137C91.8304 73.6465 92.8879 74.4583 94.5527 74.0096L110.162 69.7922C112.248 69.2309 113.09 67.9879 113.407 67.5202C113.939 66.7401 114.376 66.1043 116.098 65.5462C116.119 65.5399 132.349 60.8072 132.513 60.7596C134.174 60.2649 134.859 59.0171 135.313 58.1927C135.758 57.3825 136.091 57.3207 136.443 57.2557C136.912 57.1684 137.597 57.0686 138.157 56.0301L138.855 54.8029C139.143 54.2971 139.368 54.2527 139.743 54.1766C140.155 54.0942 140.718 53.9816 141.144 53.2491L141.937 51.9268C142.287 51.3449 142.324 50.6917 142.035 50.1828H142.032ZM111.984 53.7993V61.5048H63.2851V53.7993H111.984ZM94.5178 72.8284C93.316 72.8284 92.9006 71.7994 92.5962 70.9892C92.249 70.068 90.3179 64.0099 89.7851 62.3451H92.1856C93.4936 64.5394 95.8512 68.481 96.8802 70.0966C97.0641 70.3836 97.5842 71.2794 98.5339 71.8264C94.8334 72.8268 94.9269 72.8284 94.5178 72.8284ZM100.197 71.2746C98.851 71.2746 98.1455 70.2345 97.7158 69.5623C96.8342 68.1813 94.8365 64.8565 93.3398 62.3451H96.0066C97.6872 64.1335 101.247 67.9054 102.645 69.3054C102.856 69.5163 103.308 69.9967 103.961 70.3598C100.719 71.2366 100.703 71.2746 100.197 71.2746ZM105.651 69.8207C104.603 69.8207 103.869 69.1263 103.347 68.603C102.116 67.3711 99.1887 64.2762 97.3701 62.3451H100.287C102.142 63.7086 106.423 66.8463 108.104 67.9942C108.413 68.2067 109.02 68.5793 109.732 68.7996C105.968 69.8175 106.049 69.8207 105.653 69.8207H105.651ZM112.516 66.9208C112.033 67.6359 111.678 67.9895 110.863 67.9895C110.114 67.9895 109.304 67.6121 108.664 67.1745C107.27 66.2216 104.063 63.883 101.965 62.3451H105.436C109.689 64.4697 111.476 65.4178 112.699 65.7729C112.919 65.8364 113.12 65.8808 113.311 65.9093C112.994 66.2296 112.768 66.5546 112.516 66.9208ZM113.807 64.9548C112.833 64.9548 111.568 64.3111 107.652 62.3451H111.446L116.766 63.7023C117.129 63.7974 117.462 63.8767 117.772 63.9417C114.793 64.8105 114.34 64.9548 113.807 64.9548ZM124.205 62.066C121.059 62.984 120.55 63.1838 119.661 63.1838C119.068 63.1838 118.288 63.0728 117.014 62.7415H117.011L112.821 61.6713V60.1745L124.203 62.066H124.205ZM127.453 61.1195C126.45 61.37 125.517 61.2876 124.045 61.0339H124.041L112.822 59.1693V57.9771L131.167 60.0382L127.453 61.1211V61.1195ZM134.371 57.6774C134.23 57.9358 134.087 58.1832 133.93 58.4131C133.291 59.2787 132.896 59.2344 130.93 59.0092L112.822 56.975V55.8525L133.703 57.0765C133.862 57.086 134.282 57.113 134.712 57.1399C134.598 57.2921 134.483 57.4681 134.369 57.6774H134.371ZM137.921 54.2717C137.921 54.2717 137.536 54.9503 137.337 55.2976C136.732 56.2822 136.427 56.2663 134.658 56.1426L112.822 54.8568V53.9515H138.127C138.057 54.045 137.987 54.1512 137.921 54.2702V54.2717ZM141.016 51.375L140.443 52.3311C140.042 52.9605 139.885 52.9605 138.533 52.9605H93.075C93.5618 52.4056 93.6855 51.8237 94.2055 51.3021C95.0617 50.4459 95.8021 50.4491 96.4791 50.4491H140.475C140.779 50.4491 141.008 50.5442 141.101 50.7091C141.196 50.8788 141.166 51.1277 141.017 51.3735L141.016 51.375ZM83.0071 72.589C83.1958 72.3115 83.3718 71.9484 83.6017 71.3396C83.9584 70.3947 85.9577 64.1208 86.5254 62.3451H88.7403C89.3095 64.1208 91.3072 70.3947 91.6639 71.3396C91.8938 71.9484 92.0698 72.3099 92.2585 72.589C92.1919 72.5382 92.1237 72.4828 92.0571 72.4241L89.2397 69.7573C88.7974 69.3387 88.2979 68.9519 87.632 68.9519C86.9661 68.9519 86.4667 69.3387 86.0243 69.7573L83.2069 72.4241C83.1387 72.4828 83.0721 72.5382 83.0055 72.589H83.0071ZM76.7349 71.8264C77.6846 71.2794 78.2047 70.3836 78.3886 70.0966C79.4192 68.4825 81.7768 64.541 83.0832 62.3451H85.4837C84.951 64.0099 83.0198 70.068 82.6726 70.9892C82.3682 71.7978 81.9528 72.8284 80.751 72.8284C80.3419 72.8284 80.4355 72.8268 76.7349 71.8264ZM71.3078 70.3582C71.961 69.9951 72.4128 69.5147 72.6237 69.3038C74.0221 67.9054 77.5816 64.1319 79.2622 62.3435H81.929C80.4307 64.8549 78.4346 68.1797 77.553 69.5607C77.1234 70.2329 76.4178 71.273 75.0717 71.273C74.5659 71.273 74.5517 71.235 71.3078 70.3582ZM65.5381 68.7996C66.25 68.5793 66.8573 68.2067 67.1664 67.9942C68.8471 66.8463 73.1279 63.7086 74.9829 62.3451H77.9003C76.0817 64.2762 73.1549 67.3711 71.9229 68.603C71.4013 69.1263 70.6672 69.8207 69.6192 69.8207C69.2212 69.8207 69.3021 69.8175 65.5397 68.7996H65.5381ZM61.9581 65.9093C62.1483 65.8808 62.3497 65.8379 62.5701 65.7729C63.7925 65.4178 65.5794 64.4697 69.8332 62.3451H73.3039C71.2063 63.883 67.9988 66.2216 66.6052 67.1745C65.9646 67.6121 65.1544 67.9895 64.4061 67.9895C63.5911 67.9895 63.236 67.6359 62.7524 66.9208C62.5003 66.5546 62.2752 66.2311 61.9581 65.9093ZM57.4965 63.9417C57.8073 63.8767 58.1402 63.7974 58.5033 63.7023L63.8226 62.3451H67.6167C63.7005 64.3111 62.4353 64.9548 61.4618 64.9548C60.9291 64.9548 60.4756 64.8121 57.4965 63.9417ZM62.4464 60.1745V61.6713L58.256 62.7399H58.2528C56.9796 63.0728 56.1996 63.1838 55.6066 63.1838C54.7171 63.1838 54.2082 62.984 51.0626 62.066L62.4448 60.1745H62.4464ZM44.1022 60.035L62.4464 57.9739V59.1662L51.2274 61.0307H51.2243C49.7498 61.2844 48.8191 61.3668 47.8155 61.1179L44.1022 60.035ZM40.5555 57.1399C40.9851 57.113 41.4053 57.086 41.5638 57.0765L62.4448 55.8525V56.975L44.3369 59.0092C42.3709 59.2344 41.9761 59.2787 41.3371 58.4131C41.1802 58.1832 41.039 57.9342 40.8964 57.6774C40.7822 57.4697 40.668 57.2921 40.5539 57.1399H40.5555ZM37.1403 53.9531H62.4448V54.8584L40.6094 56.1442C38.8384 56.2663 38.5356 56.2822 37.9299 55.2991C37.7317 54.9519 37.3496 54.2797 37.3464 54.2733C37.2783 54.1544 37.2101 54.0498 37.1403 53.9546V53.9531ZM34.1691 50.7107C34.2626 50.5458 34.4909 50.4507 34.7954 50.4507H78.7913C79.4683 50.4507 80.2087 50.4475 81.0649 51.3037C81.5865 51.8253 81.7086 52.4072 82.1954 52.9621H36.7376C35.3852 52.9621 35.2266 52.9621 34.8271 52.3327L34.2547 51.3766C34.1057 51.1293 34.074 50.882 34.1707 50.7123L34.1691 50.7107Z" fill="black"/>
<path d="M79.4173 117.714H78.8561L75.4441 125.372H76.749C76.8821 124.917 77.0328 124.395 77.4926 123.233H80.2767C80.6176 124.065 80.8808 124.812 81.0805 125.372H82.7088L79.4189 117.714H79.4173ZM78.8878 119.935C79.7138 121.835 79.7249 121.844 79.92 122.342H77.8667C78.0839 121.841 78.0871 121.828 78.8894 119.935" fill="black"/>
<path d="M131.417 117.714H130.856L127.444 125.372H128.749C128.882 124.917 129.032 124.395 129.492 123.233H132.276C132.617 124.065 132.88 124.812 133.08 125.372H134.708L131.419 117.714H131.417ZM130.889 119.935C131.715 121.835 131.726 121.844 131.921 122.342H129.868C130.085 121.841 130.088 121.828 130.891 119.935" fill="black"/>
<path d="M59.8428 125.372C59.6462 122.991 59.5051 121.564 59.3989 120.621C58.113 122.937 57.5534 124.067 57.0333 125.263H56.6021C55.302 122.607 55.1656 122.349 54.8644 121.784C54.7344 121.542 54.5901 121.269 54.2777 120.663C54.2222 121.136 53.986 123.235 53.8322 125.374H52.6589C53.0315 122.682 53.6197 118.131 53.6546 117.868H54.3507C54.4553 118.079 54.5584 118.284 54.6582 118.483C55.5176 120.202 56.1978 121.561 57.0206 122.969L57.0317 122.989L57.0428 122.969C57.4154 122.289 57.7515 121.653 58.0782 121.038C58.5839 120.085 59.1056 119.1 59.7984 117.87H60.4247C60.4516 118.108 60.8781 121.818 61.3173 125.375H59.8412L59.8428 125.372Z" fill="black"/>
<path d="M142.427 125.372C142.23 122.991 142.089 121.564 141.983 120.621C140.697 122.937 140.137 124.067 139.617 125.263H139.186C137.886 122.607 137.749 122.349 137.448 121.784C137.318 121.542 137.174 121.269 136.862 120.663C136.806 121.136 136.57 123.235 136.416 125.374H135.243C135.615 122.682 136.204 118.131 136.238 117.868H136.934C137.039 118.079 137.142 118.284 137.242 118.483C138.101 120.202 138.782 121.561 139.604 122.969L139.616 122.989L139.627 122.969C139.999 122.289 140.335 121.653 140.662 121.038C141.168 120.085 141.689 119.1 142.382 117.87H143.008C143.035 118.108 143.462 121.818 143.901 125.375H142.425L142.427 125.372Z" fill="black"/>
<path d="M40.6996 125.629C39.1332 125.629 38.2152 124.798 37.99 124.585C37.3527 123.983 36.8009 123.017 36.8009 121.62C36.8009 120.224 37.3527 119.256 37.99 118.656C38.2152 118.443 39.1332 117.612 40.6996 117.612C41.6478 117.612 43.479 118.007 44.2749 119.914C44.4906 120.43 44.5984 121.004 44.5984 121.622C44.5984 123.02 44.0466 123.986 43.4093 124.587C43.1841 124.799 42.2661 125.63 40.6996 125.63M40.7028 124.736C41.8666 124.736 43.0446 123.666 43.0446 121.62C43.0446 119.575 41.8666 118.505 40.7028 118.505H40.6965C39.5327 118.505 38.3547 119.575 38.3547 121.62C38.3547 123.666 39.5327 124.736 40.6965 124.736H40.7028Z" fill="black"/>
<path d="M90.2861 125.629C88.7196 125.629 87.8016 124.798 87.5765 124.585C86.9391 123.983 86.3873 123.017 86.3873 121.62C86.3873 120.224 86.9391 119.256 87.5765 118.656C87.8016 118.443 88.7196 117.612 90.2861 117.612C91.2342 117.612 93.0654 118.007 93.8614 119.914C94.077 120.43 94.1848 121.004 94.1848 121.622C94.1848 123.02 93.633 123.986 92.9957 124.587C92.7705 124.799 91.8525 125.63 90.2861 125.63M90.2892 124.736C91.453 124.736 92.631 123.666 92.631 121.62C92.631 119.575 91.453 118.505 90.2892 118.505H90.2829C89.1191 118.505 87.9411 119.575 87.9411 121.62C87.9411 123.666 89.1191 124.736 90.2829 124.736H90.2892Z" fill="black"/>
<path d="M45.9333 117.858C46.3424 117.831 48.05 117.813 48.0658 117.813C49.3501 117.813 49.8527 118.064 50.2871 118.498C50.693 118.904 50.9071 119.435 50.8912 119.997C50.8769 120.525 50.655 121.04 50.284 121.411C49.8844 121.811 49.3977 121.991 49.2201 122.056L52.0423 125.372H50.3236L47.7805 122.239L47.3207 122.234L47.3238 125.372H45.9318V117.859L45.9333 117.858ZM47.8899 118.638C47.717 118.638 47.5284 118.652 47.3302 118.681H47.3191V121.333H47.3302C47.5299 121.371 47.7218 121.39 47.9025 121.39C49.0282 121.39 49.5404 120.671 49.5404 120C49.5404 119.908 49.5245 119.437 49.1614 119.071C48.8744 118.782 48.4464 118.636 47.8899 118.636" fill="black"/>
<path d="M70.6591 125.372V117.864H72.0512V124.376H75.154L75.1524 125.372H70.6591Z" fill="black"/>
<path d="M101.305 125.372C100.985 124.972 98.7525 122.505 96.6137 120.135V125.372H95.5276V117.866H96.295L100.912 122.868V117.866H101.992V125.372H101.305Z" fill="black"/>
<path d="M117.718 125.374V118.884C116.543 118.896 115.819 118.983 115.35 119.034V117.868H121.378V119.038C121.024 118.995 120.35 118.9 119.112 118.886V125.375H117.718V125.374Z" fill="black"/>
<path d="M105.064 124.375V121.957H107.744V121.044H105.064V118.829C105.692 118.829 106.594 118.827 108.123 118.922V117.863H103.672V125.369H108.246V124.266C107.236 124.324 106.074 124.373 105.066 124.373" fill="black"/>
<path d="M123.748 124.375V121.957H126.427V121.044H123.748V118.829C124.376 118.829 125.278 118.827 126.806 118.922V117.863H122.356V125.369H126.93V124.266C125.92 124.324 124.758 124.373 123.749 124.373" fill="black"/>
<path d="M67.7657 117.865C67.8164 120.75 67.7926 121.892 67.7926 121.892C67.7926 122.831 67.7356 124.519 65.9202 124.519C65.278 124.519 63.9922 124.413 63.9922 122.274C63.9922 120.335 64.0398 117.954 64.0414 117.865H62.5779C62.5779 117.96 62.5795 120.15 62.5795 122.268C62.5795 125.345 65.0577 125.475 65.6744 125.475C67.4502 125.475 68.8407 124.665 68.8771 122.208L68.8882 117.863H67.7657V117.865Z" fill="black"/>
<path d="M35.932 118.933V117.863H31.3658V125.371H32.7594V122.146H35.5895V121.164H32.7594V118.83C34.1626 118.83 34.9791 118.87 35.932 118.933Z" fill="black"/>
<path d="M109.439 118.225H108.865V117.927H110.389V118.225H109.808V119.883H109.439V118.225Z" fill="black"/>
<path d="M112.375 119.084C112.362 118.832 112.348 118.527 112.351 118.263H112.342C112.275 118.5 112.193 118.765 112.102 119.011L111.809 119.859H111.514L111.245 119.024C111.167 118.775 111.096 118.507 111.042 118.263H111.035C111.026 118.518 111.015 118.829 110.999 119.095L110.955 119.881H110.61L110.745 117.925H111.234L111.497 118.711C111.568 118.941 111.632 119.173 111.682 119.39H111.692C111.746 119.177 111.814 118.936 111.893 118.708L112.171 117.925H112.657L112.775 119.881H112.416L112.377 119.084H112.375Z" fill="black"/>
</g>
<defs>
<clipPath id="clip0_773_1803">
<rect width="118.854" height="76.2497" fill="white" transform="translate(28.2076 49.3789)"/>
</clipPath>
</defs>
</svg>
