<svg width="175" height="175" viewBox="0 0 175 175" fill="none" xmlns="http://www.w3.org/2000/svg">
<rect width="175" height="175" rx="87.5" fill="white"/>
<g clip-path="url(#clip0_773_1979)">
<path d="M40.2666 133.29V124.53H45.7931V125.942H42.0157V128.331H45.3791V129.74H42.0157V133.29H40.2666ZM60.7632 133.29V131.842H58.7782V124.528H57.6292L55.0425 125.111V126.566L57.0307 126.126V131.842H55.0457V133.29H60.7632ZM83.885 133.29V125.94H86.3193V124.528H79.7V125.94H82.1375V133.29H83.8866H83.885ZM100.887 133.29V131.881H96.7241V129.503H100.259V128.1H96.7241V125.94H100.838V124.528H94.975V133.288H100.885L100.887 133.29ZM117.606 133.29L114.188 124.53H112.326L108.912 133.29H110.728L111.399 131.414H115.029L115.714 133.29H117.604H117.606ZM114.525 130.014H111.908L112.761 127.657C112.954 127.11 113.108 126.593 113.222 126.109C113.341 126.592 113.493 127.107 113.682 127.657L114.525 130.014ZM135.435 133.29V124.53H133.609L131.406 128.169C131.12 128.662 130.909 129.089 130.771 129.451C130.617 129.055 130.405 128.63 130.135 128.176L127.932 124.531H126.077V133.291H127.735V128.488C127.735 128.026 127.706 127.441 127.65 126.735C127.924 127.402 128.198 127.954 128.474 128.392L130.203 131.204H131.302L133.03 128.394C133.338 127.895 133.616 127.335 133.866 126.714C133.807 127.423 133.778 128.015 133.778 128.492V133.291H135.437L135.435 133.29ZM66.601 128.484C67.7628 128.484 68.6133 127.688 68.6133 126.54C68.6133 125.393 67.7612 124.591 66.601 124.591C65.4408 124.591 64.5887 125.387 64.5887 126.54C64.5887 127.694 65.4472 128.484 66.601 128.484ZM68.1142 126.542C68.1142 127.4 67.5237 128.049 66.601 128.049C65.6783 128.049 65.0878 127.402 65.0878 126.542C65.0878 125.682 65.6863 125.029 66.601 125.029C67.5157 125.029 68.1142 125.683 68.1142 126.542ZM67.6424 127.527L67.1562 126.787C67.1273 126.752 67.0856 126.696 67.015 126.661C67.283 126.576 67.437 126.407 67.437 126.104C67.437 125.688 67.1001 125.499 66.6138 125.499H65.7826V127.526H66.2753V126.765H66.4084C66.5352 126.765 66.5769 126.779 66.6556 126.892L67.0712 127.526H67.6408L67.6424 127.527ZM66.2769 126.386V125.879H66.5593C66.8128 125.879 66.9316 125.956 66.9316 126.104C66.9316 126.301 66.7984 126.385 66.5448 126.385H66.2769V126.386ZM135.445 95.5989V92.3654H131.583V88.1483H127.847V103.521C127.847 104.933 128.202 106.01 128.903 106.721C129.604 107.432 130.695 107.793 132.147 107.793H135.445V104.559H133.032C132.507 104.559 132.13 104.444 131.912 104.216C131.711 104.007 131.581 103.481 131.581 102.875V95.6005H135.443L135.445 95.5989ZM83.6812 92.3638L79.8188 103.603L75.9563 92.3638H72.0312L77.6075 107.66H82.03L87.6063 92.3638H83.6812ZM105.194 107.66H108.929V86.8181H105.194V107.66ZM121.759 100.026C121.759 100.994 121.613 101.836 121.322 102.529C121.035 103.22 120.624 103.747 120.099 104.1C119.575 104.454 118.931 104.632 118.185 104.632C117.116 104.632 116.311 104.28 115.789 103.589C115.263 102.889 114.995 101.83 114.995 100.439V92.3638H111.259V100.853C111.259 102.175 111.425 103.295 111.75 104.184C112.076 105.075 112.525 105.8 113.082 106.339C113.639 106.877 114.291 107.265 115.017 107.494C115.74 107.722 116.518 107.836 117.328 107.836C118.496 107.836 119.462 107.624 120.201 107.207C120.873 106.825 121.438 106.378 121.879 105.877L122.214 107.66H125.493V92.3638H121.757V100.026H121.759ZM99.4841 93.171C100.662 93.8241 101.591 94.7484 102.244 95.9166C102.897 97.0832 103.228 98.4664 103.228 100.026C103.228 101.586 102.897 102.94 102.244 104.107C101.591 105.275 100.662 106.198 99.4841 106.851C98.3063 107.504 96.9086 107.835 95.3296 107.835C93.7506 107.835 92.377 107.504 91.1895 106.851C90.0005 106.196 89.0665 105.274 88.415 104.105C87.7619 102.939 87.4314 101.565 87.4314 100.025C87.4314 98.4841 87.7619 97.0816 88.415 95.915C89.0681 94.7468 90.0021 93.8241 91.1895 93.1694C92.377 92.5163 93.7699 92.1857 95.3296 92.1857C96.8894 92.1857 98.3063 92.5163 99.4841 93.1694M97.5104 104.1C98.1137 103.707 98.5903 103.154 98.9257 102.454C99.2627 101.751 99.4328 100.934 99.4328 100.028C99.4328 99.1212 99.2627 98.2803 98.9257 97.5871C98.5903 96.8955 98.1137 96.3418 97.5104 95.9391C96.9086 95.5379 96.1753 95.3341 95.3312 95.3341C94.4872 95.3341 93.7779 95.5379 93.1649 95.9391C92.5519 96.3418 92.0705 96.8955 91.7351 97.5871C91.3981 98.2787 91.2264 99.1003 91.2264 100.028C91.2264 100.955 91.3981 101.753 91.7351 102.454C92.0705 103.155 92.5519 103.709 93.1633 104.1C93.7747 104.492 94.5048 104.691 95.3296 104.691C96.1544 104.691 96.9086 104.492 97.5104 104.1ZM40.2971 107.66H44.1788V91.9611H40.2971V107.66ZM56.3535 92.8597C56.3535 89.5284 53.6416 86.8181 50.3071 86.8181H40.2971V90.1702H49.8305C51.3389 90.1702 52.5889 91.3561 52.6162 92.8132C52.6306 93.5433 52.3562 94.2317 51.846 94.7516C51.3341 95.2731 50.6521 95.5588 49.9236 95.5588H46.2103C46.0787 95.5588 45.9712 95.6663 45.9712 95.7979V98.7777C45.9712 98.8291 45.9873 98.8772 46.0162 98.9174L52.3177 107.66H56.9296L50.6136 98.8933C53.794 98.7344 56.3535 96.061 56.3535 92.8581M68.2907 93.0827C69.4092 93.6765 70.2982 94.5302 70.9336 95.6213C71.5675 96.7109 71.8981 98.0139 71.9173 99.4966C71.9173 99.7165 71.9125 99.9331 71.9029 100.15C71.8916 100.373 71.8676 100.594 71.8275 100.811L71.8146 100.88H60.5931V101.002C60.6316 101.788 60.8113 102.48 61.1274 103.054C61.442 103.627 61.8977 104.078 62.4802 104.393C63.0659 104.709 63.7415 104.869 64.4908 104.869C65.375 104.869 66.1373 104.656 66.7583 104.235C67.3376 103.844 67.7339 103.292 67.9377 102.59L67.9554 102.529H71.6702L71.6493 102.629C71.46 103.568 71.0716 104.431 70.4988 105.193C69.8938 105.996 69.0851 106.644 68.095 107.12C67.1049 107.595 65.9511 107.836 64.6674 107.836C63.0482 107.836 61.6265 107.51 60.4406 106.867C59.2532 106.225 58.3241 105.306 57.679 104.136C57.0355 102.969 56.7098 101.596 56.7098 100.055C56.7098 98.5146 57.0307 97.0816 57.6629 95.9166C58.2968 94.7484 59.2002 93.8241 60.3492 93.171C61.4965 92.5179 62.8396 92.1873 64.3416 92.1873C65.8436 92.1873 67.1707 92.489 68.2875 93.0811M66.93 95.9631C66.2704 95.4079 65.4103 95.1271 64.3737 95.1271C63.7607 95.1271 63.183 95.2587 62.6567 95.517C62.1304 95.7754 61.6907 96.1429 61.3457 96.6114C61.0183 97.0591 60.8081 97.6031 60.7247 98.2322H68.111C67.965 97.2629 67.5686 96.4991 66.93 95.9615M120.425 42.3154C129.644 42.3154 137.117 49.7884 137.117 59.0073C137.117 68.2262 129.644 75.6992 120.425 75.6992C116.282 75.6992 112.493 74.1908 109.574 71.6923C106.657 74.1908 102.867 75.6992 98.7235 75.6992C94.5802 75.6992 90.7916 74.1908 87.8727 71.6923C84.9553 74.1908 81.1651 75.6992 77.0218 75.6992C72.8785 75.6992 69.0899 74.1908 66.171 71.6923C63.2536 74.1908 59.4634 75.6992 55.3201 75.6992C46.1044 75.7008 38.6314 68.2278 38.6314 59.0073C38.6314 49.7868 46.1044 42.3154 55.3233 42.3154C59.465 42.3154 63.2552 43.8254 66.1742 46.3223C69.0915 43.8254 72.8817 42.3154 77.025 42.3154C81.1683 42.3154 84.957 43.8254 87.8759 46.3223C90.7932 43.8254 94.5818 42.3154 98.7251 42.3154C102.868 42.3154 106.657 43.8254 109.576 46.3223C112.493 43.8254 116.282 42.3154 120.425 42.3154ZM109.574 66.7964C110.154 65.9925 110.641 65.126 111.03 64.2049C111.725 62.5601 112.078 60.8126 112.078 59.0073C112.078 57.2021 111.725 55.4546 111.03 53.8098C110.64 52.8903 110.154 52.0238 109.574 51.2198C108.995 52.0238 108.507 52.8903 108.119 53.8098C107.424 55.4546 107.071 57.2021 107.071 59.0073C107.071 60.8126 107.424 62.5601 108.119 64.2049C108.509 65.126 108.995 65.9909 109.574 66.7964ZM87.8743 66.7964C88.4536 65.9925 88.9414 65.126 89.3297 64.2049C90.0245 62.5601 90.3776 60.8126 90.3776 59.0073C90.3776 57.2021 90.0245 55.4546 89.3297 53.8098C88.9398 52.8903 88.4536 52.0238 87.8743 51.2198C87.295 52.0238 86.8072 52.8903 86.4188 53.8098C85.724 55.4546 85.371 57.2021 85.371 59.0073C85.371 60.8126 85.724 62.5601 86.4188 64.2049C86.8088 65.126 87.295 65.9909 87.8743 66.7964ZM66.1742 66.7964C66.7535 65.9925 67.2413 65.126 67.6296 64.2049C68.3244 62.5601 68.6775 60.8126 68.6775 59.0073C68.6775 57.2021 68.3244 55.4546 67.6296 53.8098C67.2397 52.8903 66.7535 52.0238 66.1742 51.2198C65.5949 52.0238 65.107 52.8903 64.7187 53.8098C64.0239 55.4546 63.6709 57.2021 63.6709 59.0073C63.6709 60.8126 64.0239 62.5601 64.7187 64.2049C65.1087 65.126 65.5949 65.9909 66.1742 66.7964ZM55.3233 72.3615C57.127 72.3615 58.8761 72.0085 60.5209 71.3136C61.7356 70.8001 62.8541 70.1165 63.8618 69.2757C61.649 66.4434 60.3315 62.8794 60.3315 59.0073C60.3315 55.1352 61.6506 51.5712 63.8618 48.739C62.8541 47.8981 61.734 47.2145 60.5209 46.701C58.8761 46.0062 57.1286 45.6532 55.3233 45.6532C53.518 45.6532 51.7705 46.0062 50.1257 46.701C48.5355 47.3734 47.1073 48.3362 45.8798 49.5638C44.6522 50.7914 43.6894 52.2195 43.017 53.8098C42.3222 55.4546 41.9691 57.2021 41.9691 59.0073C41.9691 60.8126 42.3222 62.5601 43.017 64.2049C43.6894 65.7951 44.6522 67.2233 45.8798 68.4509C47.1073 69.6785 48.5355 70.6413 50.1257 71.3136C51.7705 72.0085 53.518 72.3615 55.3233 72.3615ZM77.025 72.3615C78.8287 72.3615 80.5778 72.0085 82.2226 71.3136C83.4373 70.8001 84.5558 70.1165 85.5651 69.2757C83.3523 66.4434 82.0332 62.8794 82.0332 59.0073C82.0332 55.1352 83.3523 51.5712 85.5651 48.739C84.5574 47.8981 83.4373 47.2145 82.2226 46.701C80.5778 46.0062 78.8303 45.6532 77.025 45.6532C75.2197 45.6532 73.4723 46.0062 71.8275 46.701C70.6127 47.2145 69.4942 47.8981 68.4849 48.739C70.6978 51.5712 72.0168 55.1352 72.0168 59.0073C72.0168 62.8794 70.6978 66.4434 68.4849 69.2757C69.4926 70.1165 70.6127 70.8001 71.8275 71.3136C73.4723 72.0085 75.2197 72.3615 77.025 72.3615ZM98.7251 72.3615C100.529 72.3615 102.278 72.0085 103.923 71.3136C105.137 70.8001 106.256 70.1165 107.265 69.2757C105.052 66.4434 103.735 62.8794 103.735 59.0073C103.735 55.1352 105.054 51.5712 107.265 48.739C106.257 47.8981 105.137 47.2145 103.923 46.701C102.278 46.0062 100.53 45.6532 98.7251 45.6532C96.9199 45.6532 95.1724 46.0062 93.5276 46.701C92.3128 47.2145 91.1944 47.8981 90.1866 48.739C92.3995 51.5712 93.7185 55.1352 93.7185 59.0073C93.7185 62.8794 92.3995 66.4434 90.1866 69.2757C91.1944 70.1165 92.3144 70.8001 93.5276 71.3136C95.1724 72.0085 96.9199 72.3615 98.7251 72.3615ZM129.869 68.4509C131.096 67.2233 132.059 65.7951 132.732 64.2049C133.426 62.5601 133.779 60.8126 133.779 59.0073C133.779 57.2021 133.426 55.4546 132.732 53.8098C132.059 52.2195 131.096 50.7914 129.869 49.5638C128.641 48.3362 127.213 47.3734 125.623 46.701C123.978 46.0062 122.23 45.6532 120.425 45.6532C118.62 45.6532 116.872 46.0062 115.228 46.701C114.015 47.2145 112.894 47.8981 111.887 48.739C114.1 51.5712 115.417 55.1352 115.417 59.0073C115.417 62.8794 114.098 66.4434 111.887 69.2757C112.894 70.1165 114.015 70.8001 115.228 71.3136C116.872 72.0085 118.62 72.3615 120.425 72.3615C122.23 72.3615 123.978 72.0085 125.623 71.3136C127.213 70.6413 128.641 69.6785 129.869 68.4509Z" fill="black"/>
</g>
<defs>
<clipPath id="clip0_773_1979">
<rect width="98.4857" height="90.9742" fill="white" transform="translate(38.6315 42.3154)"/>
</clipPath>
</defs>
</svg>
