<svg width="175" height="175" viewBox="0 0 175 175" fill="none" xmlns="http://www.w3.org/2000/svg">
<rect width="175" height="175" rx="87.5" fill="white"/>
<g clip-path="url(#clip0_773_1735)">
<path d="M112.985 77.1901C113.087 76.7661 113.392 75.1052 113.392 75.1052C103.076 75.1052 87.7686 75.1025 87.7686 75.1025V77.1901H112.984" fill="black"/>
<path d="M113.994 71.5957H87.7686V74.407H88.4842V72.31H107.738C107.649 73 107.552 73.7035 107.448 74.407H113.52C113.638 73.6738 113.805 72.7313 113.995 71.5957H113.994Z" fill="black"/>
<path d="M98.66 70.9391V66.6992H114.815C114.553 68.3061 114.305 69.7266 114.103 70.9391H98.6587H98.66Z" fill="black"/>
<path d="M98.66 64.6636V63.1621H116.354C115.994 63.6671 115.67 64.1384 115.305 64.6636H98.6587H98.66Z" fill="black"/>
<path d="M87.7686 69.565V68.0635H97.9633V69.565H87.7686Z" fill="black"/>
<path d="M87.7686 66.0544V61.832H97.9633V66.0544H87.7686Z" fill="black"/>
<path d="M107.977 79.666C101.085 81.1716 93.7774 82.5543 87.7686 83.5238V77.8066H112.798C112.56 78.29 112.361 78.529 111.237 78.868C110.148 79.161 109.711 79.2623 107.977 79.666ZM106.326 78.5223H88.4842V82.6083C92.4379 81.9642 95.5355 81.3998 100.861 80.3654C102.614 80.013 103.35 79.8132 104.438 79.5229C105.37 79.2744 105.993 78.9031 106.326 78.5209V78.5223Z" fill="black"/>
<path d="M63.5646 78.8668C62.3169 78.4711 62.3304 78.2956 62.0198 77.8041H62.0225C67.7383 77.8027 70.5226 77.8027 76.2384 77.8027V79.3043H65.4793C64.5935 79.1395 64.1763 79.0342 63.5646 78.8668Z" fill="black"/>
<path d="M76.9338 81.6829C81.4641 82.5754 83.9108 83.0426 87.0448 83.5247V76.4883H76.9338V81.6829Z" fill="black"/>
<path d="M87.0462 72.9404V74.442H76.9352V72.9404H87.0462Z" fill="black"/>
<path d="M61.5471 75.8004C61.3919 75.0982 61.1745 73.6764 60.8193 71.5537H76.2384V75.7936C70.3268 75.7936 67.4587 75.8004 61.5471 75.8004Z" fill="black"/>
<path d="M60.236 68.0664H87.042V70.8777H86.3264V68.7807H66.7241C66.7903 69.4802 66.8659 70.1783 66.9483 70.8777H60.7045C60.5546 70.0203 60.4129 69.0913 60.2346 68.0664H60.236Z" fill="black"/>
<path d="M59.7756 65.3193H87.0422V67.4123H60.1267C60.0146 66.7439 59.8972 66.0458 59.7743 65.3193H59.7756Z" fill="black"/>
<path d="M57.5368 61.832H87.0421V64.6433H86.3265V62.5463H64.6691C65.0877 63.2471 65.4698 63.9493 65.8776 64.6433H59.5042C59.2382 64.272 58.4253 63.1 57.5368 61.832Z" fill="black"/>
<path d="M87.4093 85.8791C93.7584 84.8853 106.39 82.3373 111.916 81.0275C116.065 80.0405 116.285 78.7536 116.747 76.6404C116.906 75.9099 118.308 68.3523 118.844 65.4195L123.735 58.5127H51.0782L55.969 65.4181C56.5051 68.3509 57.9067 75.9086 58.066 76.6391C58.5265 78.7523 58.7466 80.0391 62.8974 81.0262C68.4228 82.336 81.0575 84.884 87.4066 85.8778H87.4106L87.4093 85.8791ZM116.019 65.3182C115.054 71.0461 114.458 74.7284 114.211 76.0125C113.782 78.2459 113.706 79.2087 111.4 79.8312C106.812 80.9195 93.518 83.6498 87.4079 84.5707C81.2979 83.6498 68.0015 80.9181 63.4132 79.8312C61.1069 79.2087 61.0313 78.2459 60.6019 76.0125C60.3548 74.7284 59.7606 71.0461 58.7938 65.3182L54.9414 59.8117H119.873L116.021 65.3182H116.019Z" fill="black"/>
<path d="M69.1751 95.4502H63.8131V105.083H69.1751C73.7837 105.083 76.1211 103.463 76.1211 100.267C76.1211 97.0706 73.7837 95.4502 69.1751 95.4502ZM74.6492 100.267C74.6492 102.731 72.8763 103.83 68.9024 103.83H65.2579V96.7033H68.9024C72.8763 96.7033 74.6492 97.8024 74.6492 100.267Z" fill="black"/>
<path d="M81.5534 95.4502H80.1086V105.083H81.5534V95.4502Z" fill="black"/>
<path d="M102.598 95.4502H101.153V105.083H111.587L112.413 103.829H102.598V95.4502Z" fill="black"/>
<path d="M87.9727 95.4502H86.5279V105.083H96.9616L97.788 103.829H87.9727V95.4502Z" fill="black"/>
<path d="M54.3246 95.4502H52.1479L46.1864 104.486L46.1796 104.496V105.083H47.5232L49.0787 102.654H57.3911L58.9359 105.066L58.948 105.083H60.2916V104.496L54.3354 95.4677L54.3233 95.4502H54.3246ZM53.5711 96.6763L56.5904 101.401H49.8808L52.9 96.6763H53.5698H53.5711Z" fill="black"/>
<path d="M36.9382 95.2582C32.7186 95.2582 29.9923 97.2242 29.9923 100.266C29.9923 103.309 32.7186 105.273 36.9382 105.273C39.335 105.273 41.2497 104.722 42.9659 103.541L42.9835 103.529V102.958L42.3921 102.245L42.3624 102.265C40.6218 103.477 38.9502 104.019 36.9396 104.019C33.5125 104.019 31.4655 102.616 31.4655 100.265C31.4655 97.9142 33.5112 96.5099 36.9396 96.5099C39.0217 96.5099 40.7987 97.0743 42.3745 98.2356L42.4056 98.2585L42.9754 97.5577L42.9849 97.5469V96.9731L42.9673 96.9609C41.3348 95.8294 39.3066 95.2568 36.9396 95.2568L36.9382 95.2582Z" fill="black"/>
<path d="M138.776 96.5109C140.858 96.5109 142.635 97.0753 144.211 98.2366L144.242 98.2595L144.812 97.5587L144.82 97.5479V96.974L144.802 96.9619C143.17 95.8303 141.142 95.2578 138.775 95.2578C134.555 95.2578 131.829 97.2238 131.829 100.266C131.829 103.308 134.555 105.273 138.775 105.273C141.172 105.273 143.086 104.722 144.802 103.541L144.82 103.528V102.957L144.229 102.244L144.198 102.264C142.458 103.477 140.785 104.019 138.775 104.019C135.346 104.019 133.301 102.616 133.301 100.265C133.301 97.9138 135.346 96.5095 138.775 96.5095L138.776 96.5109Z" fill="black"/>
<path d="M123.142 95.4502H120.966L115.004 104.486L114.997 104.496V105.083H116.341L117.897 102.654H126.209L127.752 105.066L127.765 105.083H129.108V104.496L123.152 95.4677L123.14 95.4502H123.142ZM122.389 96.6763L125.408 101.401H118.699L121.718 96.6763H122.388H122.389Z" fill="black"/>
<path d="M31.5259 112.041V113.654H36.1372V114.309H31.5259V116.714H30.7643V111.389H36.8204L37.0635 112.042H31.5259V112.041Z" fill="black"/>
<path d="M38.6298 114.049C38.6298 112.435 39.9531 111.279 42.4795 111.279C45.0059 111.279 46.3292 112.435 46.3292 114.049C46.3292 115.662 45.0059 116.818 42.4795 116.818C39.9531 116.818 38.6298 115.662 38.6298 114.049ZM45.5541 114.049C45.5541 112.725 44.4739 111.933 42.4795 111.933C40.4851 111.933 39.4049 112.724 39.4049 114.049C39.4049 115.373 40.4851 116.163 42.4795 116.163C44.4739 116.163 45.5541 115.372 45.5541 114.049Z" fill="black"/>
<path d="M48.5491 116.713V111.388H53.0996C54.6066 111.388 55.2763 111.897 55.2763 112.841C55.2763 113.784 54.6066 114.294 53.0996 114.294H52.7648V114.476L53.3278 114.568L55.1615 116.531V116.713H54.3784L52.1868 114.294H49.3107V116.713H48.5491ZM49.3107 113.639H53.2144C54.0813 113.639 54.5161 113.425 54.5161 112.839C54.5161 112.253 54.0826 112.04 53.2144 112.04H49.3107V113.637V113.639Z" fill="black"/>
<path d="M57.5853 116.713V111.388H58.6358L61.6645 115.976H61.8468L64.8755 111.388H65.926V116.713H65.1645V112.483H64.9822L62.1817 116.713H61.3296L58.5291 112.483H58.3468V116.713H57.5853Z" fill="black"/>
<path d="M68.3714 113.935V111.386H69.133V114.034C69.133 115.501 70.1983 116.164 71.766 116.164C73.3337 116.164 74.3991 115.503 74.3991 114.034V111.386H75.1607V113.935C75.1607 115.89 73.9508 116.819 71.7674 116.819C69.584 116.819 68.3741 115.892 68.3741 113.935H68.3714Z" fill="black"/>
<path d="M78.3663 116.058H83.6473L83.3881 116.713H77.6047V111.388H78.3663V116.06V116.058Z" fill="black"/>
<path d="M89.7466 111.386L93.1399 116.529V116.711H92.3486L91.4817 115.357H87.0379L86.171 116.711H85.3798V116.529L88.7731 111.386H89.7466ZM87.4565 114.703H91.0632L89.351 112.026H89.1687L87.4565 114.703Z" fill="black"/>
<path d="M115.829 112.041H112.664V116.713H111.904V112.041H108.739L108.982 111.388H115.586L115.829 112.041Z" fill="black"/>
<path d="M118.702 116.058H124.44L124.197 116.713H117.942V111.388H124.12L124.363 112.041H118.702V113.655H123.297V114.31H118.702V116.06V116.058Z" fill="black"/>
<path d="M130.57 111.387L133.963 116.53V116.712H133.172L132.305 115.358H127.861L126.995 116.712H126.203V116.53L129.597 111.387H130.57ZM128.279 114.704H131.885L130.173 112.027H129.991L128.279 114.704Z" fill="black"/>
<path d="M135.908 116.713V111.388H136.958L139.987 115.976H140.169L143.198 111.388H144.249V116.713H143.487V112.483H143.305L140.504 116.713H139.652L136.852 112.483H136.669V116.713H135.908Z" fill="black"/>
<path d="M101.062 116.713V112.179H100.911L98.7277 113.412L98.4387 112.993V112.841L101.064 111.388H101.794V116.713H101.064H101.062Z" fill="black"/>
<path d="M102.753 112.151V112.147C102.753 111.735 103.086 111.388 103.508 111.388C103.929 111.388 104.262 111.731 104.262 112.143V112.147C104.262 112.558 103.929 112.905 103.508 112.905C103.086 112.905 102.753 112.562 102.753 112.151ZM104.176 112.147V112.143C104.176 111.778 103.89 111.47 103.508 111.47C103.125 111.47 102.839 111.778 102.839 112.147V112.151C102.839 112.515 103.125 112.823 103.508 112.823C103.89 112.823 104.176 112.515 104.176 112.147ZM103.212 111.747H103.559C103.728 111.747 103.855 111.829 103.855 111.99V111.994C103.855 112.111 103.78 112.194 103.676 112.224L103.88 112.514H103.702L103.52 112.249H103.359V112.514H103.212V111.746V111.747ZM103.547 112.129C103.647 112.129 103.703 112.076 103.703 112.003V111.999C103.703 111.925 103.647 111.874 103.547 111.878H103.36V112.129H103.547Z" fill="#231F20"/>
</g>
<defs>
<clipPath id="clip0_773_1735">
<rect width="114.828" height="58.3058" fill="white" transform="translate(29.9921 58.5127)"/>
</clipPath>
</defs>
</svg>
