<svg width="175" height="175" viewBox="0 0 175 175" fill="none" xmlns="http://www.w3.org/2000/svg">
<rect width="175" height="175" rx="87.5" fill="white"/>
<g clip-path="url(#clip0_1126_1370)">
<path d="M51.9673 48.2596V50.0786L87.3497 44.0515L122.732 50.0854V48.2596L87.3497 41.7031L51.9673 48.2596Z" fill="white"/>
<path d="M122.732 50.0652L87.3497 44.0381L51.9673 50.0652L52.0555 56.0108C52.0555 56.0108 69.8314 48.2869 87.3497 48.2869C104.861 48.2869 122.644 56.0108 122.644 56.0108L122.732 50.0652Z" fill="#E30613"/>
<path d="M87.3502 48.043C65.2421 48.043 52.0559 55.8687 52.0559 55.8687L52.3203 73.692C52.3203 81.8707 54.9915 116.682 87.3502 135.632C119.722 116.682 122.38 81.8842 122.38 73.692L122.644 55.8687C122.644 55.8687 109.465 48.043 87.3502 48.043Z" fill="#1D1D1B"/>
<path d="M121.315 57.1515C121.315 57.1515 109.817 49.8213 87.3499 49.8213C64.8825 49.8213 53.3845 57.1515 53.3845 57.1515L53.737 73.6921C53.737 80.1739 54.9776 114.891 87.3499 133.732C119.722 114.891 120.963 80.1739 120.963 73.6921L121.315 57.1515Z" fill="#FFED00"/>
<path d="M80.8484 111.3C80.8484 111.3 80.7061 111.11 80.5705 111.246C80.4349 111.381 80.2586 111.599 79.9468 111.578C79.6349 111.558 79.4993 111.51 79.323 111.429C79.1468 111.354 78.9027 111.232 78.9027 111.232C78.9027 111.232 78.2654 110.988 77.7231 110.974C77.1807 110.961 76.2926 111.185 75.8655 111.653C75.4384 112.121 75.3299 112.596 75.3299 112.596C75.3299 112.596 75.1875 113.445 75.4316 113.832C75.6757 114.219 75.9468 114.639 76.5434 115.006C77.14 115.372 77.3977 115.508 77.3977 115.508L78.4349 115.983L79.3908 116.343C79.3908 116.343 80.7739 116.757 80.9434 117.802C81.1128 118.854 80.4823 120.205 78.5705 120.334C76.6926 120.456 75.7706 119.54 75.4791 118.956C75.1875 118.372 75.357 117.87 75.357 117.87L75.4384 117.707L75.513 117.673C75.513 117.673 75.8045 117.87 76.0892 117.836C76.374 117.802 76.9028 117.456 76.7943 116.893C76.6858 116.329 76.1773 116.207 75.9401 116.228C75.696 116.248 74.6248 116.526 74.5977 118.094C74.5774 119.662 76.0011 120.497 76.0011 120.497C76.0011 120.497 77.0112 121.128 78.1502 121.074C79.2959 121.019 80.2383 120.571 80.2383 120.571C80.2383 120.571 81.9332 119.73 81.9738 117.89C82.0145 116.051 80.8552 115.406 80.8552 115.406C80.8552 115.406 80.4349 115.114 80.0552 114.938C79.6756 114.762 78.7603 114.32 78.7603 114.32L77.8316 113.893L77.2689 113.574L76.957 113.363C76.957 113.363 76.2045 112.773 76.6045 112.128C77.0045 111.483 78.1705 111.728 78.1705 111.728C78.1705 111.728 79.0722 111.918 79.7773 112.427C80.4823 112.936 80.8891 113.54 80.8891 113.54L81.1806 114.015L81.2145 114.083L81.4654 113.995C81.4654 113.995 81.0789 112.909 81.0044 112.454C80.9298 111.999 80.8552 111.3 80.8552 111.3H80.8484Z" fill="#1D1D1B"/>
<path d="M91.994 117.503C91.994 117.503 92.2448 117.782 92.577 117.782C92.9092 117.782 93.3973 117.544 93.3905 116.94C93.3838 116.329 92.7668 116.173 92.7668 116.173C92.7668 116.173 91.838 115.956 91.3838 116.899C90.9296 117.843 91.1804 118.664 91.1804 118.664C91.1804 118.664 91.3906 119.94 92.7397 120.693C94.0888 121.447 95.5261 120.89 95.5261 120.89C95.5261 120.89 96.6108 120.53 97.5464 119.478C98.482 118.42 98.9294 117.171 98.9294 117.171L99.2616 116.349H99.6548C99.6548 116.349 100.204 116.411 100.59 116.092C100.977 115.773 101.221 115.345 101.221 115.345L101.275 115.216L101.024 115.101C101.024 115.101 100.74 115.474 100.34 115.515C99.9463 115.549 99.5328 115.488 99.5328 115.488L99.9125 114.469C99.9125 114.469 100.353 113.58 100.475 113.377C100.597 113.173 101.112 112.515 101.112 112.515C101.112 112.515 102.17 112.508 103.187 112.297C104.204 112.087 104.834 111.829 104.834 111.829L106.095 111.307L106.4 111.137L106.306 110.886C106.306 110.886 105.173 111.286 103.492 111.483C101.817 111.673 100.76 111.469 100.76 111.469L98.8548 111.178C98.8548 111.178 98.2786 111.083 97.8311 111.076C97.3837 111.069 96.4752 111.239 96.4752 111.239C96.4752 111.239 95.5668 111.442 95.16 111.755C94.7532 112.06 93.777 112.779 94.2244 113.879C94.6719 114.978 96.4956 114.395 96.7532 113.58C96.7464 113.587 96.8549 113.316 96.8549 113.316L96.882 113.166L96.7261 113.105L96.543 113.316C96.543 113.316 95.8651 113.886 95.3363 113.519C94.8075 113.153 95.1668 112.637 95.221 112.583C95.2753 112.521 95.56 112.182 96.2379 112.026C96.9159 111.87 97.9464 112.121 97.9464 112.121L99.0582 112.325C99.0582 112.325 99.6752 112.44 99.7023 112.44C99.7294 112.44 99.9328 112.467 99.9328 112.467L99.5464 112.902C99.5464 112.902 98.9837 113.445 98.5904 114.232C98.1972 115.019 98.0142 115.426 98.0142 115.426L97.9803 115.488C97.9803 115.488 97.4854 115.549 97.1667 115.739C96.8481 115.929 96.6447 116.221 96.6447 116.221L96.4956 116.485L96.6922 116.655C96.6922 116.655 96.9227 116.397 97.1939 116.322C97.4718 116.248 97.682 116.356 97.682 116.356C97.682 116.356 97.282 117.354 97.0854 117.714C96.8956 118.073 96.5701 118.732 96.1159 119.227C95.6617 119.716 95.3295 120.144 94.2922 120.293C93.255 120.442 92.5228 119.77 92.2516 119.444C91.9804 119.112 91.8177 118.616 91.8041 118.25C91.7906 117.883 91.9804 117.53 91.9804 117.53L91.994 117.503Z" fill="#1D1D1B"/>
<path d="M51.9671 48.2949V46.1705L87.3495 39.4375L122.732 46.1705V48.2949L87.3495 41.7384L51.9671 48.2949Z" fill="#008D3F"/>
<path d="M86.5364 52.5898C86.5364 52.5898 86.5025 52.9699 86.4076 53.1939C86.3262 53.3975 86.1025 53.5401 86.1161 53.6758C86.1296 53.8116 86.2788 53.9744 86.5025 54.0898C86.7262 54.2052 86.8144 54.2934 87.0381 54.3477C87.2483 54.402 87.5127 54.5581 87.5872 54.3817C87.6618 54.2052 87.5466 53.9812 87.4177 53.7776C87.194 53.4111 87.0855 53.3297 86.7601 52.8274C86.6923 52.7188 86.6313 52.6034 86.5364 52.5898Z" fill="#1D1D1B"/>
<path d="M84.9095 91.7935C84.9298 91.7324 86.462 92.8116 87.3705 93.7143C87.8315 94.1759 88.2247 94.7731 88.3603 94.6849C88.5501 94.4541 88.2382 94.0062 87.7094 93.4768C87.3095 93.0763 86.4349 92.3094 85.7637 91.8546C85.0451 91.3727 83.7231 90.2121 83.7231 90.2121L82.6248 89.2822L81.4045 88.1556L80.4825 87.1307C80.4825 87.1307 79.7706 86.2551 79.6554 86.0854C79.5401 85.9158 79.2079 85.3728 78.9232 84.918C78.6723 84.504 78.191 83.866 78.1435 83.8117C77.8859 83.4995 77.2893 83.6217 76.5978 83.2144C75.7571 82.719 75.5538 82.2642 75.5538 82.2642C75.5538 82.2642 75.5199 82.1963 75.4927 82.1624C75.4588 82.1217 75.3978 82.081 75.3978 82.081L74.9572 81.7755L74.7063 81.6059C74.7063 81.6059 74.5165 81.4497 74.2724 81.3479C74.0284 81.2461 73.4928 80.9271 73.4928 80.9271L72.5301 80.3163C72.5301 80.3163 72.1572 80.0108 72.0284 79.909C71.9064 79.8072 71.6623 79.6715 71.6623 79.6715C71.6623 79.6715 71.5132 79.5968 71.4657 79.59C71.4182 79.59 71.2216 79.5697 71.2216 79.5697C71.2216 79.5697 71.0386 79.5222 70.8488 79.7461C70.6589 79.9701 70.7064 79.848 71.0115 81.0968C71.1335 81.5923 71.1199 83.323 71.2488 83.8524C71.4182 84.5312 71.8928 85.4067 71.9403 85.5153C71.9877 85.6171 72.0216 85.9972 72.0216 85.9972C72.0216 85.9972 72.0013 86.3026 72.0352 86.4995C72.1775 87.3954 73.4928 86.8049 73.7775 88.0334C74.0623 89.2483 73.608 90.4564 73.608 90.4564C73.608 90.4564 73.3233 91.0605 72.9301 91.1487C72.5301 91.2438 71.9199 90.3682 71.4725 89.6488C71.0318 88.9497 70.6725 88.0266 70.5572 87.7347C70.442 87.4429 70.381 87.3818 70.2454 87.1646C70.0488 86.8524 69.8928 86.9067 69.6691 86.4112C69.4522 85.9158 69.642 85.7121 69.5471 85.2778C69.4929 85.0334 69.4386 85.0131 69.364 84.6669C69.2895 84.3208 69.1946 83.2348 69.1946 83.2348L69.0522 82.2167C69.0522 82.2167 69.0047 81.7552 68.9369 81.4633C68.7132 80.452 68.6386 79.4679 68.6386 79.4679L68.598 79.0674L68.5844 78.6534C68.5844 78.6534 68.5708 78.4498 68.6183 78.2462C68.6658 78.0425 68.7674 77.8661 68.7674 77.8661C68.7674 77.8661 68.9708 77.5199 69.0047 77.4385C69.0386 77.357 69.459 76.8684 69.459 76.8684C69.459 76.8684 69.6759 76.6851 70.0352 76.4679C70.3945 76.2507 70.7132 76.2643 70.7132 76.2643C70.7132 76.2643 70.8081 76.2507 71.4386 76.3322C72.0691 76.4136 73.3775 76.7598 73.7029 76.8412C74.0284 76.9294 74.4148 77.0652 74.6656 77.2009C75.391 77.5946 75.608 77.4317 75.0317 76.9769C74.6453 76.6715 74.5368 76.5358 74.225 76.2507C73.9606 76.0064 73.7504 75.8503 73.5606 75.6195C73.364 75.3955 72.8013 74.5607 72.8013 74.5607L72.4487 74.0449C72.4487 74.0449 72.2589 73.8344 72.2318 73.8209C72.2047 73.8073 72.103 73.7326 72.103 73.7326C72.103 73.7326 71.8725 73.7462 71.6284 73.6987C71.3843 73.6512 71.2759 73.9906 71.2759 73.9906C71.2759 73.9906 70.7538 74.9611 70.225 75.5584C69.3708 76.529 68.7539 77.1873 68.4352 77.6964C67.9946 78.4091 68.0895 79.1896 67.8658 79.5561C67.7302 79.7665 67.6624 79.8004 67.5878 79.9837C67.3641 80.547 68.1708 80.8525 67.9878 81.4769C67.6963 82.461 65.3845 83.4384 65.0794 83.2755C64.7607 83.1058 65.0184 81.7755 65.1268 81.3412C65.2353 80.9068 65.5607 80.2688 65.5878 80.2348C65.615 80.2009 65.6963 80.0516 65.7167 79.9226C65.7438 79.7937 65.7506 79.5086 65.7641 79.3457C65.7777 79.1828 65.8455 78.9317 65.8455 78.9317C65.8455 78.9317 65.859 78.8774 66.0624 78.4362C66.2658 77.9882 67.0183 76.9498 67.5607 75.9656C67.9132 75.3209 68.0624 74.9272 68.4149 74.2824C68.7403 73.6851 69.303 72.7824 69.303 72.7824C69.303 72.7824 69.5403 72.3209 69.6556 72.1444C69.7708 71.968 70.0013 71.6354 70.225 71.3096C70.4488 70.9838 70.503 70.7327 70.7945 70.468C71.0386 70.244 71.2013 70.1218 71.5132 70.02C71.9877 69.8639 72.3064 69.9521 72.7809 70.0811C73.2826 70.2168 73.6216 70.4476 73.947 70.7191C74.2724 70.9906 74.5097 71.296 74.5097 71.296L74.6656 71.5268L74.7605 71.5879L75.0656 71.7779L75.7571 72.2394C75.7571 72.2394 77.3978 73.3593 77.4859 73.4136C77.574 73.4747 77.8656 73.7123 77.9266 73.7326C77.9876 73.753 78.4215 73.2779 79.2825 72.6874C80.2723 72.0019 80.6248 72.0494 80.9503 71.8729C81.2757 71.6965 81.4113 71.5471 81.6621 71.2892C82.0485 70.9024 82.0485 70.6987 82.4892 70.1625C82.9299 69.6263 83.3366 69.3277 83.3366 69.3277C83.3366 69.3277 83.3977 69.2666 84.1773 68.3843C84.957 67.5019 85.3027 66.83 85.3027 66.83L85.7298 65.968C85.7298 65.968 86.3535 64.6309 86.5501 64.1015C86.7467 63.5721 86.7467 63.3956 86.7467 63.3956C86.7467 63.3956 86.7739 63.2599 86.6247 62.9884C86.4688 62.7169 86.3129 62.8391 86.0146 62.9002C85.4451 63.0223 85.0993 62.873 84.5231 62.7712C83.9943 62.683 83.7231 62.5269 83.1943 62.4386C82.6587 62.3504 82.3468 62.2622 81.8113 62.3165C81.7299 62.3233 81.5672 62.3572 81.4858 62.3843C81.1875 62.4862 81.0994 62.5133 80.8757 62.6355C80.6113 62.7576 80.4418 62.7984 80.1571 62.8052C79.9604 62.8052 79.8384 62.8119 79.6486 62.7441C79.5198 62.6966 79.452 62.6558 79.3503 62.5676C79.2893 62.5133 79.2554 62.4726 79.2079 62.4047C79.2079 62.3436 79.1876 62.3504 79.235 62.2554C79.2893 62.1604 79.3571 62.1468 79.3571 62.1468L79.6011 62.0857C79.6011 62.0857 79.9469 61.9907 79.974 61.9839C80.0079 61.9771 80.3333 61.8685 80.4825 61.821C80.6316 61.7735 80.7875 61.692 80.7875 61.692C80.7875 61.692 80.8757 61.5495 80.8418 61.4681C80.8011 61.373 80.6045 61.3663 80.6045 61.3663C80.6045 61.3663 80.3265 61.4681 80.2994 61.4749C80.2655 61.4816 79.8316 61.6242 79.8316 61.6242C79.8316 61.6242 79.4859 61.6988 79.2147 61.7599C78.9435 61.821 78.5639 61.8549 78.5639 61.8549L78.4486 61.821C78.4486 61.821 78.313 61.7328 78.2927 61.6445C78.2723 61.5631 78.2588 61.502 78.2452 61.407C78.191 61.0676 78.1232 60.8572 78.1978 60.5246C78.2317 60.3821 78.2656 60.3074 78.3266 60.1785C78.374 60.0699 78.4079 60.0088 78.4757 59.9002L78.6927 59.5541L79.0927 58.9636C79.2283 58.821 79.3232 58.7532 79.4927 58.6581C79.7503 58.5156 79.8994 58.4749 80.2181 58.441C80.5299 58.407 80.5706 58.4138 81.018 58.312C81.4655 58.2102 81.7774 58.0337 81.7774 58.0337C81.7774 58.0337 82.8417 57.6401 83.4858 57.3211C84.1638 56.9885 84.462 56.6288 85.1671 56.3573C85.4654 56.2419 85.6349 56.1876 85.94 56.1061C85.9807 56.0858 85.9942 56.0586 86.0078 56.0111C86.0417 55.8957 85.8654 55.8414 85.7434 55.855C85.6417 55.8686 85.3976 55.9772 85.3434 55.855C85.3027 55.76 85.5671 55.7057 85.5671 55.7057C85.5671 55.7057 85.6891 55.6446 85.6959 55.5767C85.6959 55.4749 85.5129 55.5428 85.4315 55.5292C85.018 55.4817 84.9909 55.407 84.6993 55.3392C84.3604 55.2577 84.1773 55.1559 83.8316 55.1356C83.5197 55.122 83.235 55.1899 83.0383 55.2374C82.8485 55.2849 82.8417 55.0948 82.9163 55.0609C83.4587 54.8098 83.4722 54.7894 83.8519 54.769C84.0621 54.7623 84.3536 54.803 84.3875 54.8233C84.4214 54.8369 84.8349 54.8233 84.9434 54.708C85.0519 54.5994 84.5976 54.6062 84.3875 54.5247C84.1909 54.4433 83.8926 54.4297 83.8993 54.2939C83.9061 54.165 84.0553 54.2329 84.157 54.2125C84.2858 54.1786 84.3604 54.1853 84.4959 54.165C84.7332 54.131 84.7536 54.1107 85.1129 54.0767C85.4654 54.0428 85.9739 54.1921 85.9739 54.1921C85.9739 54.1921 86.5027 54.4297 86.7671 54.5519C87.0247 54.674 87.3433 54.7351 87.3433 54.7351C87.3433 54.7351 87.7094 54.7894 87.9942 54.6129C88.2789 54.4365 88.1162 54.3211 88.0145 54.1582C87.9196 54.0021 87.7908 53.7917 87.9806 53.3709C88.1433 53.0044 88.2247 52.5903 88.2721 52.5496C88.3264 52.5021 88.5569 52.8279 88.6993 52.9636C89.2145 53.4455 89.906 53.6899 90.5501 54.708C90.6043 54.7894 90.8416 54.6605 91.5941 54.7758C92.3466 54.8912 92.9975 55.6989 93.167 55.8889C93.3364 56.079 93.5602 56.0722 93.5602 56.0722L93.9195 56.1197L95.2347 56.1401C95.2347 56.1401 95.8313 56.0383 96.1703 56.1604C96.4076 56.2487 97.2076 56.7849 96.8482 56.9885C96.5906 57.131 96.3533 56.8188 96.1228 56.8052C95.8517 56.7849 95.7296 56.8392 95.4856 56.9002C94.9771 57.0292 93.8856 57.3618 94.2788 57.4907C94.3127 57.5043 94.3602 57.5111 94.3602 57.5111L94.5568 57.545C94.5568 57.545 95.0313 57.6536 95.3229 57.769C95.7635 57.9455 95.9669 58.1355 96.3737 58.3731C96.6042 58.5088 96.7059 58.6378 96.9567 58.7124C97.1872 58.7803 97.3364 58.7124 97.5737 58.7532C97.8855 58.8075 98.0618 58.8685 98.3465 59.0043C98.7669 59.2079 98.9228 59.4523 99.3024 59.7305C99.4923 59.8663 99.6482 59.8866 99.7906 60.0699C99.8245 60.1106 99.8516 60.131 99.8651 60.1785C99.9194 60.3482 99.5872 60.2464 99.4109 60.2192C99.2211 60.1853 99.1329 60.0903 98.9635 60.0088C98.6991 59.8866 98.577 59.7509 98.2923 59.6966C98.0821 59.6559 97.9601 59.6898 97.7499 59.6966C97.5465 59.7034 97.4313 59.7373 97.2279 59.7441C96.8754 59.7441 96.672 59.717 96.333 59.6423C95.9466 59.5608 95.7567 59.4115 95.3635 59.3301C94.9296 59.2418 94.1568 58.8685 94.2381 59.2418C94.2788 59.4251 94.6856 59.5744 94.6856 59.5744C94.6856 59.5744 94.9635 59.7305 95.2279 59.8459C95.4991 59.9613 95.6415 60.1378 95.6415 60.1378L95.8245 60.2735C95.8245 60.2735 96.0144 60.5382 96.2652 60.8301C96.5093 61.1219 96.9432 61.1151 96.9432 61.1151C96.9432 61.1151 97.2008 61.1151 97.7635 61.2305C98.3262 61.3459 98.9024 61.692 98.9024 61.692C98.9024 61.692 99.3431 61.9907 99.594 62.2893C99.8448 62.588 99.7024 62.7441 99.6685 62.7712C99.6414 62.7984 99.6482 62.7848 99.6143 62.7984C99.5872 62.8119 99.2685 62.4251 99.2685 62.4251L99.0448 62.235C99.0448 62.235 98.8211 62.0789 98.5363 61.9907C98.2516 61.8957 98.1635 61.9635 98.1635 61.9635C98.1635 61.9635 97.5601 62.1332 97.0381 62.1196C96.5161 62.1061 96.2381 61.8957 96.2381 61.8957L95.9059 61.6717C95.9059 61.6717 95.4042 61.2034 95.3906 61.4273C95.3771 61.5767 95.6076 61.7463 95.6076 61.7463C95.6076 61.7463 95.7703 61.9092 95.872 62.011C96.0686 62.2079 96.1567 62.3097 96.3872 62.5133C96.6177 62.7237 96.7601 62.7237 96.7601 62.7237C96.7601 62.7237 96.8821 62.7576 96.9296 62.7644C96.9771 62.7712 97.0584 62.7984 97.0584 62.7984C97.0584 62.7984 97.133 62.8255 97.4991 62.9748C97.8584 63.1242 98.2448 63.4364 98.2448 63.4364C98.2448 63.4364 98.2855 63.4703 98.3397 63.4771C98.394 63.4839 98.5024 63.5382 98.5296 63.545C98.5567 63.5518 98.6516 63.5518 98.8618 63.5857C99.0719 63.6128 98.9906 63.7486 98.9906 63.7486L98.9499 63.8029L98.7804 63.9183C98.7804 63.9183 98.5567 63.9794 98.4008 63.9861C98.2448 63.9929 98.0347 63.9115 98.0347 63.9115L97.5669 63.735C97.5669 63.735 97.0991 63.6128 96.9974 63.5993C96.8957 63.5857 96.4754 63.4975 96.4076 63.4839C96.3398 63.4703 96.1228 63.3889 96.0686 63.3617C96.0144 63.3346 95.9059 63.3074 95.655 63.1852C95.4042 63.0631 95.3025 62.9138 94.9839 62.8187C94.6652 62.7169 94.4754 62.6966 94.2381 62.8662C93.8314 63.1513 94.8551 63.192 95.3635 63.4499C96.1093 63.8232 96.5364 64.0947 96.7127 64.4952C96.8889 64.8956 97.072 65.045 97.072 65.045C97.072 65.045 97.6008 65.3097 97.8381 65.5879C97.9669 65.7373 97.9872 65.8662 98.116 66.0155C98.4075 66.3549 98.9702 66.3345 99.0787 66.6264C99.1872 66.8979 98.6245 66.7757 98.3262 66.7486C97.7974 66.6943 97.6753 66.2124 97.1804 66.0223C96.9025 65.9137 96.7262 65.9069 96.4415 65.8119C95.9262 65.6422 95.6822 65.4183 95.1601 65.2554C94.8483 65.1603 94.2788 64.7463 94.3466 65.0653C94.3602 65.14 94.4076 65.2011 94.428 65.2486C94.4483 65.2961 94.5839 65.4658 94.5839 65.4658C94.5839 65.4658 94.7601 65.6965 94.8347 65.7576C94.9093 65.8187 95.2483 66.0698 95.7228 66.3345C96.1974 66.5924 96.611 67.0947 96.611 67.0947C96.611 67.0947 96.7533 67.2983 96.8211 67.4409C96.8957 67.6037 96.8415 67.6513 96.9499 67.8684C97.0584 68.0924 97.1126 68.1332 97.2482 68.2689C97.594 68.6083 97.9601 68.5404 98.4075 68.7236C98.5296 68.7712 98.5363 68.7915 98.6652 68.934C98.794 69.0698 98.6448 69.1309 98.6448 69.1309C98.6448 69.1309 98.1499 69.253 97.8313 69.2327C97.4177 69.1988 97.2347 69.0698 96.8279 68.873C96.4211 68.6761 96.2042 68.3096 96.1703 68.2893C96.1296 68.2689 96.0347 68.1603 95.9533 68.106C95.8788 68.0517 95.6822 68.011 95.4991 67.9567C95.3228 67.9092 95.2144 67.9024 95.0381 67.8481C94.794 67.7802 94.5364 67.6716 94.4212 67.6309C94.3059 67.5902 94.0415 67.5427 93.8449 67.658C93.4585 67.8888 94.4415 68.0449 94.7466 68.3639C94.9025 68.5268 94.9635 68.6422 95.1127 68.8187C95.2279 68.9476 95.2754 69.0426 95.411 69.1512C95.5059 69.2191 95.6822 69.3006 95.6822 69.3006C95.6822 69.3006 95.9194 69.4092 96.2652 69.5992C96.611 69.7892 97.0177 70.3322 97.0177 70.3322L97.2618 70.7055L97.4109 70.9227L97.4516 71.0245L97.5059 71.1467C97.5059 71.1467 97.6821 71.3775 97.8109 71.4521C97.9398 71.5268 97.9194 71.6014 97.9194 71.6014C97.9194 71.6014 97.9059 71.649 97.8109 71.7032C97.716 71.7575 97.6753 71.71 97.5398 71.6761C97.4109 71.6354 97.3228 71.5132 97.2076 71.425C97.0923 71.33 96.9703 71.0992 96.7533 70.9702C96.5703 70.8548 96.3262 70.8141 96.2313 70.787C96.1364 70.753 95.9059 70.6105 95.8178 70.5698C95.7228 70.5291 95.4856 70.4272 95.4856 70.4272C95.4856 70.4272 95.0246 70.1693 94.7669 70.0947C94.5161 70.0268 94.672 70.1761 94.672 70.1761C94.672 70.1761 94.9025 70.5291 95.1195 70.6784C95.4042 70.8684 95.8042 71.0313 95.6686 71.1874C95.5805 71.2892 95.4652 71.2553 95.3296 71.2349C95.1195 71.2078 94.8618 70.9566 94.8618 70.9566C94.8618 70.9566 94.7534 70.8888 94.2788 70.7327C93.8042 70.5766 93.9805 70.8413 94.089 70.977C94.1975 71.1128 94.3398 71.1942 94.3398 71.1942L94.6585 71.3435L94.8076 71.391C94.8076 71.391 94.9364 71.4114 95.3703 71.5132C95.7974 71.615 96.0347 71.8186 96.0347 71.8186C96.0347 71.8186 96.2652 72.0358 96.5906 72.2734C96.916 72.5109 97.2347 72.572 97.4109 72.5992C97.5872 72.6195 97.5804 72.7485 97.5804 72.7485C97.5804 72.7485 97.6008 72.8639 97.594 72.9046C97.5872 72.9453 97.5465 72.9725 97.5126 72.9725C97.4787 72.9725 97.4584 72.986 97.4109 73.0132C97.3635 73.0336 97.1804 73.0675 97.1804 73.0675C97.1804 73.0675 96.6991 73.0539 96.3194 72.9589C95.9398 72.8639 95.6144 72.606 95.5805 72.5924C95.5466 72.5788 95.194 72.382 94.9568 72.3073C94.7195 72.2327 94.3398 72.2598 94.3059 72.2802C94.2652 72.2937 94.1364 72.3209 93.9127 72.382C93.689 72.4431 93.9669 72.5245 93.9669 72.5245L94.1297 72.5381L94.5161 72.572C94.5161 72.572 94.9093 72.6195 95.2483 72.7417C95.5873 72.8639 95.8042 73.1082 96.0211 73.3322C96.2449 73.5562 96.4889 73.6987 96.4889 73.6987L96.6652 73.8141L96.7601 73.882L96.7804 73.943C96.7804 73.943 96.7737 73.9702 96.7601 74.0109C96.7466 74.0516 96.6923 74.0788 96.6923 74.0788C96.6923 74.0788 96.611 74.0652 96.5703 74.0652C96.5296 74.0652 96.2788 73.9295 96.0957 73.848C95.8991 73.7598 95.8042 73.6851 95.594 73.6308C95.4178 73.5901 95.1805 73.5697 95.1262 73.5833C95.072 73.5969 94.6788 73.6512 94.3805 73.6783C94.0822 73.6987 93.8178 73.7055 93.4653 73.6648C92.9568 73.6037 92.2856 73.2032 92.1975 73.3186C92.0212 73.5494 92.5568 73.6173 92.8144 73.7666C93.167 73.9702 93.7839 74.1602 93.7839 74.1602C93.7839 74.1602 94.2313 74.262 94.4957 74.3842C95.072 74.6489 95.2483 75.0494 95.7093 75.4702C95.9669 75.7077 96.1703 75.8027 96.516 75.857C96.8076 75.8978 96.8076 75.8638 97.2754 75.7688C97.7431 75.6738 98.0279 75.2326 98.1635 75.3955C98.1906 75.4295 98.177 75.4566 98.1703 75.5041C98.1635 75.5516 98.1228 75.6331 98.1228 75.6331C98.1228 75.6331 98.0686 75.7077 97.9872 75.796C97.9058 75.8842 97.5804 76.0539 97.4109 76.1285C97.2415 76.1964 96.8279 76.3118 96.3059 76.2982C95.7839 76.2846 95.0517 75.8842 95.0517 75.8842L94.5229 75.6602C94.5229 75.6602 94.2788 75.5448 94.1161 75.4837C93.6822 75.3209 93.3975 75.3344 92.95 75.2123C92.6721 75.1376 92.489 75.0562 92.2382 75.0086C91.9873 74.9543 92.1229 75.0562 92.1568 75.0901C92.2788 75.253 92.4348 75.3005 92.6314 75.3955C92.8958 75.5245 93.0856 75.4973 93.3636 75.6127C93.6686 75.7349 93.933 75.9113 94.1025 76.0199C94.272 76.1285 94.3941 76.2507 94.5568 76.4204L95.1195 76.8955C95.1195 76.8955 95.2483 77.0041 95.2618 77.0516C95.2754 77.0991 95.3364 77.2145 95.3093 77.3978C95.2822 77.581 95.1262 77.4521 95.1262 77.4521L94.9839 77.357L94.8347 77.2213L94.5974 77.0312C94.5974 77.0312 94.4008 76.848 94.0551 76.6715C93.7093 76.4951 93.2958 76.4475 93.2958 76.4475C93.2958 76.4475 92.9297 76.3932 92.9432 76.5086C92.9568 76.624 93.0449 76.6308 93.3364 76.7055C93.628 76.7801 93.8178 76.9294 93.8178 76.9294C93.8178 76.9294 94.1161 77.1534 94.333 77.3978C94.55 77.6421 94.611 77.8797 94.611 77.8797C94.611 77.8797 94.7195 78.0765 94.9974 78.348C95.2754 78.6195 95.4178 78.5244 95.4042 78.6534C95.3906 78.7824 95.2686 78.8095 95.2686 78.8095C95.2686 78.8095 95.2008 78.8027 95.1669 78.8027C95.133 78.8027 95.0652 78.762 94.9907 78.7348C94.9161 78.7077 94.6246 78.5041 94.6246 78.5041C94.6246 78.5041 94.1703 78.1376 94.1161 78.0968C94.0619 78.0561 93.6347 77.7371 93.6347 77.7371C93.6347 77.7371 93.3839 77.5742 93.1941 77.486C93.011 77.391 92.767 77.3027 92.6246 77.2552C92.489 77.2077 92.2314 77.1941 92.2314 77.1941C92.2314 77.1941 91.9263 77.1466 91.7365 77.0788C91.445 76.9702 91.106 76.6512 91.0653 76.6376C91.0246 76.624 90.7535 76.529 90.6992 76.5358C90.645 76.5426 90.5229 77.0584 90.4958 77.357C90.3738 78.6059 90.6992 79.4339 91.2145 80.5742C91.9602 82.2371 94.028 84.3072 94.028 84.3072C94.028 84.3072 94.55 84.6058 94.7669 84.7755C95.3839 85.2642 96.4076 85.9429 97.316 86.8524C98.0889 87.6261 99.1262 89.0107 99.1262 89.0107C99.1262 89.0107 99.7228 89.8456 100.001 90.4361C100.34 91.1623 100.611 92.2618 100.611 92.2618C100.611 92.2618 100.631 92.4587 100.658 92.4926C100.679 92.5333 100.733 92.5808 100.767 92.5808L101.126 92.5944C101.167 92.5944 101.574 92.5673 101.845 92.4994C102.116 92.4315 102.753 92.1397 103.18 91.9157C103.601 91.6917 104.109 91.2641 104.109 91.2641C104.109 91.2641 104.204 91.1827 104.699 90.6329C105.194 90.0831 105.512 89.2551 105.635 88.9429C105.75 88.6307 105.851 88.0334 105.926 87.0153C106.001 85.9972 105.858 84.9112 105.858 84.9112C105.858 84.9112 105.675 83.4045 105.56 82.8954C105.445 82.3864 105.18 81.5516 105.18 81.5516C105.18 81.5516 104.99 80.805 104.929 80.3366C104.868 79.8683 104.855 79.1014 104.855 79.1014C104.855 79.1014 104.855 78.633 105.011 77.7711C105.16 76.9091 105.696 76.0403 105.696 76.0403C105.696 76.0403 105.845 75.7485 106.414 75.0629C106.997 74.3639 107.18 74.2553 107.757 73.8412C108.211 73.5154 108.801 72.986 108.997 73.1082C109.207 73.244 108.787 73.5087 108.651 73.6512C108.292 74.0041 107.621 74.6353 107.079 75.5788C106.611 76.4 106.434 76.943 106.312 77.4724C106.197 78.0086 106.245 78.5923 106.258 78.7959C106.272 78.9995 106.387 78.9249 106.387 78.9249C106.387 78.9249 107.54 78.0018 108.163 77.2959C108.841 76.5358 109.445 75.1851 109.682 75.1715C109.838 75.1647 109.912 75.5245 109.878 75.6942C109.729 76.3932 109.675 76.4815 109.451 76.943C109.187 77.4792 108.95 77.7168 108.59 78.2054C108.211 78.7213 108.021 78.9181 107.716 79.6036C107.275 80.5878 107.533 81.3412 107.533 81.3412C107.533 81.3412 107.587 81.8027 107.79 81.7959C108.136 81.7823 108.895 80.8253 109.397 80.038C109.763 79.4611 109.899 78.7959 110.136 78.443C110.353 78.1308 110.543 78.9452 110.455 79.4271C110.346 79.9973 110.062 80.5131 109.445 81.314C108.841 82.1013 108.862 82.8547 108.862 82.8547C108.862 82.8547 108.794 83.2009 108.746 83.9407C108.699 84.6873 108.909 85.814 108.909 85.814C108.909 85.814 109.099 86.7574 109.14 87.4768C109.173 88.1963 109.153 89.832 108.482 91.1012C108.211 91.6103 107.641 92.3161 107.641 92.3161C107.641 92.3161 107.201 92.7709 106.841 93.0356C106.482 93.3003 105.614 93.7075 105.614 93.7075C105.614 93.7075 105.018 93.9179 104.929 93.9383C104.841 93.9587 104.787 94.0333 104.787 94.0333C104.787 94.0333 104.841 94.1487 104.868 94.1962C104.889 94.2437 105.058 94.6577 105.058 94.6577C105.058 94.6577 105.235 95.2482 105.302 95.7098C105.37 96.1713 105.289 96.2799 105.221 96.6396C105.153 96.979 105.011 96.8229 104.97 97.4948C104.936 98.0853 105.207 98.3839 105.16 99.0423C105.14 99.3342 104.807 98.6758 104.651 98.3975C104.313 97.7867 104.394 96.8636 104.387 96.6328C104.38 96.4021 104.36 96.1509 104.279 95.8523C104.17 95.479 104.021 95.1804 103.845 94.9496C103.668 94.7188 103.479 94.5899 103.418 94.6102C103.357 94.6306 103.35 94.7528 103.35 94.8139C103.35 94.8749 103.472 95.0921 103.499 95.1396C103.526 95.1872 103.75 95.5944 103.75 95.5944C103.75 95.5944 103.845 95.9066 103.885 96.5107C103.926 97.1215 103.736 97.8681 103.736 97.8681C103.736 97.8681 103.492 98.7165 103.235 99.212C102.95 99.7618 102.319 100.508 102.319 100.508C102.319 100.508 101.865 100.922 101.526 101.601C101.187 102.28 101.479 102.578 101.357 102.667C101.228 102.755 100.957 102.28 100.889 101.947C100.821 101.649 100.855 101.506 100.977 101.167C101.092 100.841 101.363 100.373 101.363 100.373L101.77 99.6803C101.77 99.6803 102.258 98.7437 102.407 98.0649C102.563 97.3862 102.387 96.6328 102.387 96.6328C102.387 96.6328 102.367 96.3885 102.197 96.3953C102.028 96.4021 101.906 96.5582 101.838 96.7346C101.696 97.1079 101.892 97.0401 101.682 97.6577C101.513 98.1464 101.472 98.0853 101.384 98.3704C101.275 98.7165 101.221 99.0762 101.228 99.2867C101.235 99.5038 101.113 99.4156 101.113 99.4156C101.113 99.4156 100.909 99.0287 100.909 98.5468C100.909 98.2889 100.916 98.1396 100.95 97.8817C100.997 97.4609 101.167 96.8229 101.167 96.8229C101.167 96.8229 101.35 96.1917 101.309 95.6147C101.268 95.0378 101.065 94.9292 101.065 94.9292C101.065 94.9292 101.018 94.8478 100.787 94.8681C100.563 94.8817 100.577 95.2822 100.577 95.2822C100.577 95.2822 100.509 95.8523 100.421 96.2052C100.177 97.1894 99.8516 97.7052 99.2685 98.5333C98.7397 99.2799 98.0279 99.9382 97.6753 100.244C97.316 100.556 96.2245 101.357 96.2245 101.357L94.9432 102.212C94.9432 102.212 94.4347 102.707 94.1975 103.298C93.9602 103.888 93.9737 104.35 94.1093 104.893C94.2449 105.436 94.4415 105.687 94.5432 105.836C94.6449 105.986 94.8415 106.25 94.9093 106.563C94.95 106.759 94.9229 106.875 94.9296 107.072C94.9364 107.241 94.9635 107.336 94.9568 107.513C94.9568 107.784 95.0042 107.981 94.8483 108.205C94.733 108.375 94.4212 108.517 94.4212 108.517C94.4212 108.517 94.0754 108.673 93.8653 108.796C91.6822 110.119 90.9026 110.974 89.6755 112.44C89.2823 112.909 89.5738 112.882 89.1535 113.438C88.9026 113.771 88.3196 113.771 88.1027 114.164C87.8111 114.707 88.767 115.237 87.662 115.719C86.2383 116.336 83.7841 115.895 83.7366 115.698C83.601 115.169 84.2112 114.558 84.4349 114.32C85.4315 113.228 86.3264 113.201 86.6518 112.298C86.7196 112.108 86.6993 111.938 87.4925 111.354C88.0484 110.94 90.2789 109.264 91.2551 108.137C91.5873 107.75 91.8789 107.499 92.0212 107.078C92.1636 106.658 91.8789 106.4 91.8789 106.4L91.4789 105.748L90.7128 104.377C90.7128 104.377 90.3941 103.651 90.2179 103.23C90.0416 102.809 89.7026 101.676 89.7026 101.676C89.7026 101.676 89.4382 100.658 89.4179 99.9993C89.3772 98.6351 89.3501 98.3568 89.8179 96.9586C90.306 95.5062 90.8755 95.3161 91.5128 93.341C91.6483 92.9202 91.6416 92.1668 91.4246 92.2075C91.2145 92.2415 91.2958 92.832 91.1806 93.2188C90.7399 94.7392 89.9263 95.3568 89.4043 96.8772C89.0586 97.8885 88.9704 98.5197 88.9704 99.5853C88.9704 100.196 88.9501 100.088 89.106 101.146C89.167 101.54 89.262 101.75 89.3772 102.131C89.4586 102.402 89.6755 102.911 89.6755 102.911C89.6755 102.911 89.9806 103.59 90.0891 104.058C90.123 104.221 90.1636 104.309 90.1501 104.472C90.1297 104.757 90.0416 104.818 89.906 105.069C89.7365 105.382 89.845 105.572 89.3026 105.687C88.8281 105.789 87.845 105.47 87.845 105.47C87.845 105.47 83.818 104.248 81.2486 104.594C80.7401 104.662 80.4689 104.852 79.9537 104.839C79.4927 104.839 79.2486 104.465 78.7876 104.608C78.6927 104.635 78.6588 104.703 78.5774 104.757C77.8927 105.232 78.4147 106.02 76.6249 105.612C75.5199 105.361 74.1911 104.689 74.4216 104.262C74.7266 103.698 75.147 103.603 76.0148 103.25C76.9436 102.87 78.3401 102.979 78.6181 102.959C78.9571 102.931 79.4384 102.701 80.035 102.687C81.0723 102.667 81.2621 102.789 81.2621 102.789L83.0248 102.945L86.401 102.992C86.401 102.992 87.0044 102.945 87.2484 102.897C87.4925 102.85 87.6823 102.375 87.8111 102.151C87.9399 101.927 87.8111 101.588 87.8111 101.588L87.7094 101.431L87.3908 100.916L86.7942 99.9111L86.1366 98.6011C86.1366 98.6011 85.7095 97.6849 85.479 97.0808C85.2485 96.4835 85.1197 96.1442 84.9637 95.5265C84.8078 94.8885 84.7061 94.3727 84.6926 93.8636C84.6654 93.1306 84.6451 92.3908 84.8553 91.7867L84.9095 91.7935Z" fill="#1D1D1B"/>
<path d="M106.651 90.5923C107.315 89.6624 107.363 88.9158 107.458 87.7756C107.526 86.9204 107.315 85.5765 107.315 85.5765L107.268 85.4815C107.268 85.4815 107.146 85.3186 107.065 85.5358C107.078 85.7258 107.098 85.8752 107.098 85.8752C107.098 85.8752 107.329 87.8027 106.793 89.3638C106.278 90.8638 105.16 91.4814 104.78 92.0923C104.271 92.9068 106.102 91.3593 106.644 90.5991L106.651 90.5923Z" fill="white"/>
<path d="M99.3495 93.5303C99.3495 93.5303 99.058 93.6117 99.0512 93.9036C99.0512 94.1954 99.119 94.4398 99.1122 94.7859C99.1055 95.2271 98.6987 95.7361 98.9631 95.9058C99.4105 96.1909 99.797 94.1886 99.6614 93.89C99.5258 93.5914 99.3902 93.5303 99.3495 93.5371V93.5303Z" fill="white"/>
<path d="M94.3332 107.418C94.3332 107.418 94.2519 107.377 94.0892 107.432C93.9265 107.493 93.94 107.662 93.94 107.662C93.94 107.662 93.9061 107.839 94.0417 107.859C94.1705 107.88 94.3875 107.561 94.3875 107.527C94.3875 107.493 94.34 107.418 94.34 107.418H94.3332Z" fill="white"/>
<path d="M89.6209 110.771C89.6209 110.771 89.5734 110.818 89.6209 110.852C89.6615 110.886 89.7225 110.839 89.7225 110.839C89.7225 110.839 90.5361 110.201 91.0174 109.753C91.5327 109.271 92.2581 108.45 92.2581 108.45C92.2581 108.45 92.3055 108.389 92.2513 108.334C92.1971 108.28 92.0547 108.361 91.9395 108.416C91.8378 108.463 91.7767 108.524 91.7022 108.585C91.6276 108.647 91.3903 108.898 91.3903 108.898L90.7598 109.509L90.3666 109.882L89.9802 110.248L89.8175 110.432C89.8175 110.432 89.7768 110.506 89.7632 110.52C89.7497 110.54 89.709 110.594 89.709 110.594C89.709 110.594 89.6548 110.649 89.6548 110.662C89.6548 110.676 89.6344 110.696 89.6344 110.71C89.6344 110.73 89.6209 110.751 89.6209 110.751V110.771Z" fill="white"/>
<path d="M88.2108 111.694C88.2108 111.694 88.1227 111.62 87.9871 111.694C87.8515 111.769 87.7024 111.959 87.6888 111.979C87.6752 112 87.6007 112.102 87.6549 112.197C87.7091 112.285 87.8854 112.156 87.9057 112.149C87.9329 112.149 88.1634 111.966 88.1634 111.966C88.1634 111.966 88.299 111.884 88.2176 111.694H88.2108Z" fill="white"/>
<path d="M85.5127 114.428C85.5127 114.428 85.3974 114.211 85.2483 114.299C85.0923 114.388 85.0178 114.422 84.8754 114.612C84.8483 114.646 84.6991 114.836 84.672 114.89C84.6449 114.937 84.4957 115.222 84.8008 115.243C85.3228 115.277 84.9839 114.937 85.1601 114.808C85.3025 114.707 85.5737 114.734 85.5805 114.625C85.5805 114.517 85.5127 114.428 85.5127 114.428Z" fill="white"/>
<path d="M76.2787 103.515C76.2787 103.515 75.9668 103.589 75.9397 103.705C75.9194 103.813 76.1227 103.922 76.1566 103.929C76.1905 103.929 76.2651 104.017 76.4685 103.874C76.6787 103.732 76.6651 103.616 76.6651 103.616C76.6651 103.616 76.7871 103.474 76.2719 103.521L76.2787 103.515Z" fill="white"/>
<path d="M81.3638 103.346C81.3638 103.346 81.3638 103.231 81.1401 103.244C80.9164 103.258 80.8689 103.299 80.8622 103.333C80.8622 103.366 80.8757 103.421 81.0723 103.441C81.2757 103.455 81.3571 103.441 81.3638 103.346Z" fill="white"/>
<path d="M86.1567 103.488C85.7567 103.488 85.8855 103.495 85.6347 103.509C85.1804 103.529 84.9364 103.509 84.4889 103.481C83.8652 103.441 82.8957 103.285 82.8957 103.285C82.8957 103.285 82.7737 103.257 82.7263 103.339C82.6788 103.414 82.8415 103.583 82.9907 103.631C83.7771 103.875 83.8245 103.834 84.3601 103.841C84.6584 103.841 84.8279 103.814 85.1262 103.794C85.5059 103.767 85.6821 103.828 86.0957 103.719C86.2042 103.692 86.3058 103.488 86.1499 103.488H86.1567Z" fill="white"/>
<path d="M88.8686 102.68C88.8686 102.68 88.7872 102.585 88.6177 102.667C88.4482 102.748 88.3466 102.931 88.3466 102.931C88.3466 102.931 88.272 103.054 88.4347 103.033C88.5974 103.013 88.7465 102.945 88.7872 102.918C88.8279 102.891 88.9499 102.782 88.8618 102.68H88.8686Z" fill="white"/>
<path d="M86.5094 70.1761C86.5094 70.1761 87.6552 69.1038 88.4687 67.6852C88.9568 66.8436 89.167 64.8753 88.7467 65.364C88.5568 65.588 88.3874 66.6264 88.0416 67.3866C87.5467 68.4725 86.4281 69.9861 86.4281 69.9861C86.4281 69.9861 86.123 70.468 86.5094 70.1761Z" fill="white"/>
<path d="M81.9468 72.8982C81.9468 72.8982 81.8248 72.9933 81.879 73.1426C81.9333 73.2987 82.1977 73.0883 82.1977 73.0883C82.1977 73.0883 82.7197 72.8915 83.2756 72.8643C83.8315 72.844 84.5976 73.0068 84.5976 73.0068C84.5976 73.0068 84.9637 73.1087 85.0247 73.129C85.0858 73.1494 85.2824 73.2512 85.3163 73.2648C85.3502 73.2783 85.5129 73.4616 85.6213 73.3666C85.7298 73.2715 84.9569 72.5657 84.1637 72.4571C82.8485 72.2806 81.9875 72.844 81.9875 72.844L81.9468 72.8915V72.8982Z" fill="white"/>
<path d="M76.523 77.5404C76.6179 77.6151 77.0586 76.7802 77.4247 76.2508C77.6958 75.8639 78.184 75.2124 78.184 75.2124C78.184 75.2124 78.4009 74.9137 78.028 75.0834C77.8721 75.1513 77.4585 75.4703 77.1602 76.054C76.9094 76.5495 76.4213 77.4657 76.5162 77.5404H76.523Z" fill="white"/>
<path d="M73.4861 73.8955C73.4861 73.8955 73.3912 74.2213 73.7708 74.6285C74.1505 75.0358 74.2522 75.3751 74.4963 75.1308C74.564 75.0629 74.259 74.5131 74.103 74.3638C73.9471 74.2145 73.8319 74.0856 73.8319 74.0856L73.7369 74.0041L73.6081 73.9362L73.5336 73.9091C73.5336 73.9091 73.5132 73.8887 73.4861 73.9091V73.8955Z" fill="white"/>
<path d="M72.2519 70.7871C72.2519 70.7871 71.8383 70.8618 71.7366 71.0654C71.635 71.2622 72.2112 71.14 72.2112 71.14C72.2112 71.14 72.5909 71.1604 72.6044 71.0179C72.6112 70.8686 72.557 70.855 72.2519 70.7871Z" fill="white"/>
<path d="M65.7164 81.6328C65.5063 81.5717 65.4724 81.9857 65.4453 82.1147C65.4181 82.2504 65.5402 82.5151 65.5876 82.5151C65.6351 82.5151 65.8046 82.2504 65.8114 82.1214C65.8181 81.9925 65.8995 81.6871 65.7164 81.626V81.6328Z" fill="white"/>
<path d="M72.5027 89.7097C72.5027 89.7097 72.1299 89.4111 72.0688 89.5333C72.0146 89.6486 72.3807 90.1713 72.3807 90.1713C72.3807 90.1713 72.4892 90.3409 72.6654 90.2663C72.8349 90.1848 72.7739 89.9948 72.7739 89.9948C72.7739 89.9948 72.6587 89.7505 72.5027 89.7097Z" fill="white"/>
<path d="M69.6758 80.9682C69.6758 80.9682 69.5809 80.9478 69.5403 81.0632C69.5064 81.1786 69.5064 81.3686 69.486 81.5926C69.4657 81.7691 69.5335 82.2442 69.5335 82.2442C69.5335 82.2442 69.5674 82.6175 69.6419 82.8483C69.7233 83.0926 69.9402 83.4387 69.9402 83.4387C69.9402 83.4387 70.0216 83.622 70.1233 83.6084C70.225 83.6016 70.1979 83.4795 70.1979 83.4795C70.1979 83.4795 69.886 82.2306 69.8724 82.1017C69.8385 81.6876 69.8386 81.1786 69.8386 81.1786V81.1039C69.8386 81.1039 69.8318 80.975 69.6758 80.9682Z" fill="white"/>
<path d="M70.1638 77.1602C70.1638 77.1602 69.9877 77.1263 69.832 77.4584C69.6695 77.7906 69.7033 77.9329 69.7169 77.9465C69.7304 77.9601 69.859 77.9601 70.0622 77.6482C70.2653 77.3364 70.2179 77.2212 70.2179 77.2212C70.2179 77.2212 70.2044 77.1602 70.1638 77.1602Z" fill="white"/>
<path d="M74.923 80.6144C74.923 80.6144 75.1332 80.9266 74.7332 80.852C74.3332 80.7773 73.4926 80.119 73.1468 79.9357C72.8078 79.7592 72.2519 79.6981 72.4824 79.4877C72.5231 79.4538 72.5367 79.4199 72.6045 79.4131C72.6722 79.4131 72.9027 79.5013 72.9163 79.5081C72.9299 79.5149 73.5265 79.7592 73.5468 79.766C73.5671 79.7728 73.8993 79.9153 74.1366 80.0579C74.3739 80.2004 74.7603 80.4651 74.7603 80.4651L74.923 80.6076V80.6144Z" fill="white"/>
<path d="M86.0279 90.1783C86.1364 90.5245 84.7669 89.4521 84.028 88.8819C82.0755 87.382 79.6891 84.3005 79.9874 84.0291C80.2314 83.8051 81.106 85.3118 82.5365 86.8661C84.0686 88.5222 85.9601 89.9747 86.0279 90.1783Z" fill="white"/>
<path d="M91.7568 88.7047C91.2687 89.1188 90.9568 90.0147 91.4246 90.1776C91.7229 90.2794 91.6212 89.4989 91.8924 89.1934C92.1229 88.9287 92.2585 88.9695 92.6381 88.698C93.2822 88.2432 92.3602 88.1957 91.7568 88.698V88.7047Z" fill="white"/>
<path d="M89.316 78.9869C89.0245 78.9394 89.0313 79.3873 89.0787 79.6995C89.2753 81.1113 89.9058 82.204 90.7533 83.2289C91.2685 83.8533 92.6787 84.9665 92.8414 84.79C92.9024 84.7289 91.3905 83.6565 90.4956 82.2651C89.8652 81.2742 89.6346 80.419 89.5533 79.6045C89.5397 79.5027 89.5669 79.0344 89.316 78.9937V78.9869Z" fill="white"/>
<path d="M83.8521 58.04C83.2148 58.3861 82.1098 58.6915 82.1098 58.6915C82.1098 58.6915 82.0555 58.8001 82.1979 58.7866C83.1402 58.7119 83.5063 58.5897 84.008 58.3725C84.5097 58.1554 84.8826 57.5513 84.8826 57.5513C84.8826 57.5513 85.086 57.178 84.7063 57.4834C84.5911 57.5784 84.2046 57.8499 83.8521 58.04Z" fill="white"/>
<path d="M91.5263 55.6104C91.5263 55.6104 91.3094 55.5629 91.167 55.6512C91.0246 55.7394 91.0653 55.814 91.0653 55.814C91.0653 55.814 91.289 55.9905 91.4518 56.0109C91.6145 56.038 91.9534 56.1873 91.9399 56.072C91.9263 55.9566 91.7297 55.7394 91.6687 55.6851C91.6009 55.624 91.5331 55.6104 91.5331 55.6104H91.5263Z" fill="white"/>
<path d="M87.9193 62.249C87.9532 62.3237 88.6041 62.1472 88.8481 62.0115C89.0447 61.9029 89.1193 61.5364 89.1193 61.5364C89.1193 61.5364 89.1735 61.1834 89.0922 61.3192C88.7261 61.9232 87.8854 62.1744 87.9193 62.2558V62.249Z" fill="white"/>
<path d="M87.8989 60.5923C88.1565 60.09 87.1803 61.1081 86.6854 61.3796C86.3803 61.5425 85.8922 61.7529 85.8922 61.7529C85.8922 61.7529 85.7633 61.9158 85.9396 61.9022C86.1227 61.8887 86.5904 62.0448 86.9633 61.7529C87.0514 61.685 87.4447 61.1149 87.4447 61.1149C87.4447 61.1149 87.7769 60.8366 87.8989 60.5923Z" fill="white"/>
<path d="M87.75 62.7156C87.7704 62.7971 88.8619 62.7699 89.1399 62.6885C89.3568 62.6274 89.472 62.2405 89.472 62.2405C89.472 62.2405 89.6076 61.908 89.4924 62.0233C88.9975 62.5256 87.7365 62.6342 87.75 62.7156Z" fill="white"/>
<path d="M70.1844 72.749C70.1844 72.749 70.0149 72.6879 69.8116 73.0001C69.6082 73.3123 68.6862 74.7037 68.8489 74.9141C69.0387 75.1584 69.8387 73.6653 70.0827 73.387C70.3268 73.1087 70.2319 72.8236 70.2319 72.8236C70.2319 72.8236 70.2319 72.7625 70.1844 72.7558V72.749Z" fill="white"/>
<path d="M90.2314 97.9898C90.1365 98.4514 90.2517 99.4016 90.4077 99.5916C90.8009 100.06 90.5636 98.8586 90.611 98.431C90.6585 98.0374 90.7127 97.9016 90.9026 97.474C91.2483 96.7138 90.4348 96.9989 90.2246 97.9831L90.2314 97.9898Z" fill="white"/>
<path d="M86.8757 57.5384C86.8757 57.5384 86.5706 57.5452 86.3333 57.6742C86.0961 57.8031 86.035 57.9864 86.035 57.9864C86.035 57.9864 85.9876 58.1221 86.0215 58.19C86.0893 58.3461 86.4147 58.1086 86.6452 58.19C86.8282 58.2579 86.9164 58.3122 87.0588 58.4819C87.1808 58.6312 87.4045 58.8416 87.5401 58.7262C87.6757 58.604 87.6282 58.3054 87.6282 58.3054C87.6282 58.3054 87.4655 57.8099 87.2554 57.6674C87.0452 57.5249 86.8757 57.5384 86.8757 57.5384Z" fill="white"/>
<path d="M81.8314 61.0139C81.8314 61.0139 81.6619 61.041 81.7026 61.2446C81.7432 61.4483 81.8517 61.4143 81.8517 61.4143C81.8517 61.4143 82.2042 61.265 82.1839 61.0546C82.1636 60.8442 81.8314 61.0139 81.8314 61.0139Z" fill="white"/>
<path d="M79.3704 59.9141C79.3704 59.9141 79.1874 59.9141 79.0586 60.1516C78.9297 60.3824 78.8552 60.6131 78.8552 60.6131C78.8552 60.6131 78.7942 60.9186 78.9026 61.0068C79.0111 61.1018 79.1264 60.81 79.2823 60.7014C79.3772 60.6335 79.4382 60.5996 79.5331 60.5385C79.6619 60.4502 79.8789 60.5656 79.8653 60.2941C79.8518 60.0294 79.5602 59.9005 79.3772 59.9141H79.3704Z" fill="white"/>
<path d="M87.3224 57.0434C87.3224 57.0434 86.9021 56.9824 86.9224 57.1453C86.936 57.2946 87.1529 57.2063 87.2885 57.2674C87.4241 57.3285 87.5054 57.3489 87.6139 57.4507C87.6885 57.5186 87.6817 57.6611 87.7766 57.6611C87.9122 57.6611 87.8851 57.6068 87.8851 57.6068C87.8851 57.6068 87.7631 57.2471 87.6071 57.1453C87.4512 57.0434 87.3224 57.0502 87.3224 57.0502V57.0434Z" fill="white"/>
<path d="M92.001 58.7331C91.94 58.9571 91.9061 59.0386 91.9061 59.0386C91.9061 59.0386 91.7909 59.5001 92.2586 59.3304C92.7264 59.1607 92.4892 59.2286 92.8213 59.0657C93.1535 58.9028 93.1468 58.991 93.3908 59.0046C93.4722 59.0046 93.5264 59.0114 93.6485 58.9843C93.7501 58.9639 93.7095 58.8349 93.4722 58.7738C93.2213 58.706 92.9095 58.7263 92.5434 58.7195C92.3332 58.7195 92.062 58.5024 92.001 58.7263V58.7331Z" fill="white"/>
<path d="M92.2043 57.0157C92.2043 57.0157 91.9874 56.9682 91.845 57.0564C91.7026 57.1447 91.7433 57.2193 91.7433 57.2193C91.7433 57.2193 91.967 57.3958 92.1297 57.4162C92.2924 57.4433 92.6314 57.5926 92.6179 57.4772C92.6043 57.3619 92.4077 57.1447 92.3467 57.0904C92.2789 57.0293 92.2111 57.0157 92.2111 57.0157H92.2043Z" fill="white"/>
<path d="M93.0316 60.2393C93.0316 60.2393 92.8011 60.1918 92.6452 60.2801C92.4892 60.3683 92.5367 60.4362 92.5367 60.4362C92.5367 60.4362 92.774 60.5991 92.9503 60.6262C93.1197 60.6466 93.4926 60.7891 93.4791 60.6805C93.4655 60.5719 93.2553 60.3683 93.1875 60.314C93.1197 60.2597 93.0384 60.2461 93.0384 60.2461L93.0316 60.2393Z" fill="white"/>
<path d="M93.099 61.407C93.099 61.407 92.855 61.3527 92.6922 61.4546C92.5295 61.5564 92.577 61.631 92.577 61.631C92.577 61.631 92.8278 61.8211 93.0109 61.8482C93.1939 61.8754 93.5804 62.0383 93.5668 61.9093C93.5532 61.7803 93.3363 61.5496 93.2617 61.4885C93.1872 61.4274 93.1058 61.407 93.1058 61.407H93.099Z" fill="white"/>
<path d="M93.2077 62.5474C93.2077 62.5474 92.9433 62.4863 92.767 62.6017C92.5908 62.7103 92.645 62.8053 92.645 62.8053C92.645 62.8053 92.9162 63.0225 93.1128 63.0497C93.3094 63.0836 93.7297 63.2669 93.7162 63.1175C93.6958 62.975 93.4585 62.7103 93.384 62.6424C93.3026 62.5678 93.2145 62.5474 93.2145 62.5474H93.2077Z" fill="white"/>
<path d="M93.1808 63.9517C93.1808 63.9517 92.9164 63.8906 92.7401 64.006C92.5638 64.1214 92.6181 64.2096 92.6181 64.2096C92.6181 64.2096 92.8893 64.4268 93.0859 64.454C93.2825 64.4879 93.7028 64.6712 93.6892 64.5218C93.6689 64.3793 93.4316 64.1146 93.357 64.0467C93.2757 63.9721 93.1876 63.9517 93.1876 63.9517H93.1808Z" fill="white"/>
<path d="M92.9909 66.6939C92.9909 66.6939 92.7265 66.6328 92.5502 66.7482C92.3739 66.8568 92.4282 66.9518 92.4282 66.9518C92.4282 66.9518 92.6993 67.169 92.8959 67.1961C93.0926 67.2301 93.5129 67.4133 93.4993 67.264C93.479 67.1215 93.2417 66.8568 93.1671 66.7889C93.0858 66.7143 92.9976 66.6939 92.9976 66.6939H92.9909Z" fill="white"/>
<path d="M93.1663 65.3235C93.1663 65.3235 92.8612 65.2556 92.6578 65.3846C92.4545 65.5136 92.5155 65.6154 92.5155 65.6154C92.5155 65.6154 92.8341 65.8597 93.0578 65.9004C93.2883 65.9344 93.7765 66.1448 93.7561 65.9819C93.7358 65.819 93.4646 65.5136 93.3697 65.4321C93.2748 65.3507 93.1731 65.3235 93.1731 65.3235H93.1663Z" fill="white"/>
<path d="M92.862 67.9356C92.862 67.9356 92.645 67.8881 92.4959 67.9763C92.3467 68.0714 92.3942 68.1392 92.3942 68.1392C92.3942 68.1392 92.6179 68.3157 92.7806 68.3429C92.9433 68.37 93.2891 68.5193 93.2755 68.4039C93.262 68.2886 93.0653 68.0714 92.9975 68.0103C92.9298 67.9492 92.8552 67.9356 92.8552 67.9356H92.862Z" fill="white"/>
<path d="M92.6514 69.1234C92.6514 69.1234 92.4683 69.0827 92.3463 69.1573C92.2243 69.232 92.2582 69.2931 92.2582 69.2931C92.2582 69.2931 92.448 69.4424 92.5768 69.4628C92.7124 69.4831 92.9971 69.6121 92.9904 69.5103C92.9768 69.4152 92.8141 69.232 92.7599 69.1845C92.7056 69.137 92.6446 69.1234 92.6446 69.1234H92.6514Z" fill="white"/>
<path d="M92.4005 70.2097C92.4005 70.2097 92.2378 70.1757 92.1293 70.2436C92.0208 70.3115 92.0547 70.3658 92.0547 70.3658C92.0547 70.3658 92.2242 70.4947 92.3462 70.5151C92.4683 70.5354 92.7259 70.644 92.7191 70.5558C92.7056 70.4676 92.5632 70.3047 92.5157 70.264C92.4683 70.2164 92.414 70.2097 92.414 70.2097H92.4005Z" fill="white"/>
<path d="M92.143 71.0993C92.143 71.0993 91.9803 71.0654 91.8718 71.1332C91.7634 71.2011 91.7973 71.2554 91.7973 71.2554C91.7973 71.2554 91.9667 71.3844 92.0888 71.4047C92.2108 71.4251 92.4684 71.5337 92.4616 71.4455C92.4481 71.3572 92.3057 71.1943 92.2583 71.1536C92.2108 71.1061 92.1566 71.0993 92.1566 71.0993H92.143Z" fill="white"/>
<path d="M91.8313 72.1308C91.8313 72.1308 91.7025 72.1037 91.6076 72.158C91.5194 72.2123 91.5465 72.2598 91.5465 72.2598C91.5465 72.2598 91.6821 72.3684 91.777 72.3819C91.872 72.3955 92.0889 72.4905 92.0753 72.4159C92.0686 72.348 91.9465 72.2123 91.9059 72.1783C91.8652 72.1444 91.8245 72.1308 91.8245 72.1308H91.8313Z" fill="white"/>
<path d="M91.4651 73.0956C91.4651 73.0956 91.3499 73.0685 91.2753 73.116C91.2007 73.1635 91.2211 73.2042 91.2211 73.2042C91.2211 73.2042 91.3363 73.2992 91.4245 73.306C91.5058 73.3196 91.6889 73.401 91.6821 73.34C91.6753 73.2789 91.5736 73.1635 91.5397 73.1363C91.5058 73.1092 91.4651 73.0956 91.4651 73.0956Z" fill="white"/>
<path d="M91.0789 74.0107C91.0789 74.0107 90.9637 73.9835 90.8891 74.031C90.8145 74.0785 90.8349 74.1192 90.8349 74.1192C90.8349 74.1192 90.9501 74.2143 91.0383 74.2211C91.1196 74.2346 91.3027 74.3161 91.2959 74.2482C91.2891 74.1871 91.1874 74.0717 91.1535 74.0446C91.1196 74.0107 91.0789 74.0039 91.0789 74.0039V74.0107Z" fill="white"/>
<path d="M66.3064 78.6741C66.3064 78.6741 66.1166 79.0474 66.2115 79.251C66.3064 79.4547 66.564 78.9253 66.564 78.9253C66.564 78.9253 66.8284 78.4026 66.72 78.3008C66.6115 78.2058 66.5505 78.4773 66.3064 78.6741Z" fill="white"/>
</g>
<defs>
<clipPath id="clip0_1126_1370">
<rect width="70.7647" height="96.1958" fill="white" transform="translate(51.9673 39.4375)"/>
</clipPath>
</defs>
</svg>
