<svg width="175" height="175" viewBox="0 0 175 175" fill="none" xmlns="http://www.w3.org/2000/svg">
<rect width="175" height="175" rx="87.5" fill="white"/>
<g clip-path="url(#clip0_1126_1582)">
<path fill-rule="evenodd" clip-rule="evenodd" d="M87.3316 39.0684C71.8879 39.0684 59.3828 51.5935 59.3828 67.0553C59.3828 67.6096 59.4041 68.1426 59.4254 68.6756H55.7787C55.5764 68.6756 55.4699 68.7982 55.3901 68.9421C55.3315 69.086 52.0895 74.7942 52.0043 74.9381C51.9457 75.0821 51.9457 75.162 52.1054 75.162H60.5753C64.0409 86.6585 74.7041 95.037 87.337 95.037C102.781 95.037 115.286 82.5118 115.286 67.0553C115.286 51.5988 102.77 39.0684 87.3316 39.0684ZM67.3575 75.162H74.7999L71.2118 81.3819C69.6147 79.5538 68.2998 77.4592 67.3575 75.162ZM87.3316 88.6305C81.465 88.6305 76.1734 86.2907 72.2818 82.4905H78.3294C78.3294 82.4905 95.7163 51.8173 95.7748 51.7001C95.86 51.5775 95.8174 51.4922 95.695 51.4922H88.5986C88.4549 51.4922 88.4336 51.5348 88.3964 51.5935C88.3538 51.6521 78.5956 68.6756 78.5956 68.6756H65.8403C65.7977 68.1426 65.7817 67.6096 65.7817 67.0553C65.7817 55.1485 75.4174 45.4748 87.3316 45.4748C93.4005 45.4748 98.8945 48.0012 102.813 52.0678C101.114 54.9406 93.4804 67.9134 92.4582 69.8055C91.8673 68.4304 89.115 68.6969 87.699 68.6756C87.0814 69.6989 84.196 75.162 84.196 75.162C84.196 75.162 85.7931 75.1407 87.2305 75.162C88.6253 75.1833 88.7903 76.6384 88.2366 77.5658C87.683 78.4878 85.4045 82.4905 85.4045 82.4905H92.7244C92.7244 82.4905 101.705 66.7835 106.811 57.856C108.142 60.6489 108.882 63.7668 108.882 67.0553C108.882 78.9622 99.2245 88.6305 87.3316 88.6305Z" fill="#DC1F26"/>
<path d="M35.4588 98.5605L34.3142 103.016H46.0421L41.3307 121.324H50.5512L55.2625 103.016H66.9691L68.135 98.5605H35.4588Z" fill="black"/>
<path d="M101.195 108.037H85.82L84.7181 112.327H91.6334L90.4356 116.383H78.202C75.5455 116.383 74.6032 115.786 75.077 113.947C75.6094 111.879 76.5357 108.058 76.5357 108.058C77.6643 103.895 79.3146 103.021 88.9343 103.021H102.488L103.633 98.5654C103.633 98.5654 90.952 98.5867 87.6673 98.5867C74.747 98.5867 69.5511 100.074 67.8636 106.427L65.3828 115.855C64.4032 119.602 67.5282 121.239 70.6851 121.329H97.7768L101.195 108.042V108.037Z" fill="black"/>
<path d="M132.827 98.5605H108.216L102.36 121.324H111.586L116.255 103.016H129.095C131.379 103.016 132.039 103.533 131.598 105.244C131.438 105.873 131.539 105.468 131.315 106.331C130.911 107.904 130.187 108.069 127.541 108.069H118.486L127.818 121.324H136.612L130.075 112.04H130.682C137.102 112.04 138.614 109.444 139.349 107.152C139.386 107.12 140.254 103.752 140.254 103.752C141.127 100.351 138.55 98.5605 132.827 98.5605Z" fill="#DC1F26"/>
<path d="M140.424 124.436H85.4418H34.6814L34.3141 125.491H89.0725H140.057L140.424 124.436Z" fill="black"/>
<path d="M41.937 131.716H35.6871V128.561H34.2764V136.369H35.6871V132.974H41.937V136.369H43.3371V128.561H41.937V131.716Z" fill="black"/>
<path d="M50.2792 128.561H48.8152L44.2423 136.31L44.2103 136.369H45.8553L46.8029 134.732H52.3394L53.303 136.369H54.9267L50.3591 128.694L50.2845 128.566L50.2792 128.561ZM51.5941 133.469H47.5269L49.5446 129.989L51.5941 133.469Z" fill="black"/>
<path d="M61.8369 128.561H60.3729L55.7999 136.31L55.768 136.369H57.413L58.3606 134.732H63.8971L64.8607 136.369H66.4844L61.9168 128.694L61.8422 128.566L61.8369 128.561ZM63.1518 133.469H59.0846L61.1022 129.989L63.1518 133.469Z" fill="black"/>
<path d="M95.7161 128.956C95.6256 128.87 95.5191 128.796 95.402 128.748C95.1625 128.647 94.8697 128.647 94.6301 128.748C94.5077 128.796 94.4012 128.87 94.3107 128.956C94.2202 129.041 94.1457 129.148 94.0924 129.27C94.0392 129.393 94.0126 129.521 94.0126 129.665C94.0126 129.808 94.0392 129.942 94.0924 130.064C94.1457 130.187 94.2202 130.293 94.3107 130.379C94.4012 130.469 94.5077 130.539 94.6301 130.587C94.7472 130.635 94.8803 130.661 95.0187 130.661C95.1571 130.661 95.2849 130.635 95.402 130.587C95.5245 130.539 95.6309 130.469 95.7214 130.379C95.8119 130.288 95.8812 130.182 95.9397 130.064C95.993 129.942 96.0196 129.808 96.0196 129.665C96.0196 129.521 95.993 129.393 95.9397 129.27C95.8865 129.148 95.8119 129.041 95.7214 128.956H95.7161ZM95.5351 130.23L95.2317 129.76C95.2956 129.745 95.3541 129.718 95.402 129.681C95.4659 129.627 95.4979 129.542 95.4979 129.43C95.4979 129.313 95.4606 129.217 95.3861 129.158C95.3169 129.1 95.2104 129.068 95.0666 129.068H94.5982V130.262H94.8484V129.782H94.9761L95.2796 130.262H95.4819C95.4286 130.309 95.3701 130.357 95.3062 130.384C95.1252 130.464 94.891 130.464 94.71 130.384C94.6195 130.347 94.5396 130.288 94.4704 130.219C94.4012 130.15 94.3533 130.07 94.3107 129.968C94.2734 129.872 94.2521 129.771 94.2521 129.654C94.2521 129.537 94.2734 129.441 94.3107 129.345C94.348 129.249 94.4012 129.169 94.4704 129.1C94.5396 129.03 94.6195 128.977 94.71 128.934C94.8005 128.897 94.9016 128.876 95.0081 128.876C95.1146 128.876 95.2104 128.897 95.3009 128.934C95.3914 128.972 95.4712 129.03 95.5404 129.1C95.6097 129.169 95.6629 129.254 95.7002 129.345C95.7374 129.441 95.7587 129.542 95.7587 129.654C95.7587 129.766 95.7374 129.867 95.7002 129.968C95.6629 130.064 95.6097 130.144 95.5404 130.219C95.5404 130.219 95.5351 130.219 95.5298 130.224L95.5351 130.23ZM95.237 129.505C95.237 129.505 95.2104 129.537 95.1891 129.547C95.1678 129.558 95.1412 129.563 95.1092 129.569C95.072 129.569 95.04 129.569 94.9974 129.569H94.8537V129.286H95.0454C95.072 129.286 95.0986 129.286 95.1305 129.291C95.1571 129.291 95.1784 129.302 95.1997 129.313C95.2157 129.323 95.2317 129.334 95.2423 129.35C95.253 129.366 95.2583 129.387 95.2583 129.419C95.2583 129.457 95.253 129.483 95.2423 129.505H95.237Z" fill="black"/>
<path d="M73.8894 131.87C73.4209 131.822 73.0589 131.79 72.8193 131.785C72.5744 131.78 72.3083 131.774 72.0155 131.774H69.508C69.0981 131.774 68.7894 131.71 68.5924 131.577C68.4274 131.471 68.3475 131.241 68.3475 130.895C68.3475 130.682 68.3741 130.501 68.4274 130.357C68.4646 130.25 68.5658 130.165 68.7308 130.09C68.9384 130 69.2845 129.936 69.7636 129.893C70.2693 129.85 70.7644 129.829 71.2276 129.829H71.531C72.1485 129.829 72.6596 129.856 73.0429 129.904C73.5007 129.962 73.703 130.026 73.7882 130.069C73.8787 130.112 73.9426 130.186 73.9958 130.298C74.0544 130.431 74.0863 130.655 74.0863 130.964V131.225H75.4971V130.964C75.4971 130.25 75.3321 129.696 75.0073 129.328C74.6826 128.96 74.2141 128.742 73.6125 128.678C73.0695 128.619 72.6756 128.587 72.4467 128.577C72.2071 128.566 71.8185 128.561 71.2861 128.561C70.642 128.561 70.0564 128.582 69.5347 128.619C68.997 128.662 68.5232 128.758 68.1186 128.902C67.6714 129.067 67.352 129.344 67.1603 129.728C66.9847 130.085 66.8942 130.533 66.8942 131.06C66.8942 131.764 67.1178 132.275 67.5596 132.579C67.9749 132.867 68.5498 133.011 69.2791 133.011L71.2329 133.064H72.8992C73.5593 133.064 73.8627 133.16 74.0012 133.24C74.1502 133.325 74.2354 133.597 74.2354 134.002C74.2354 134.338 74.1662 134.573 74.0331 134.701C73.932 134.796 73.6924 134.924 73.1174 134.999C72.617 135.063 71.9835 135.095 71.2382 135.095C70.7804 135.095 70.3119 135.084 69.8381 135.058C69.3803 135.031 69.0183 134.978 68.7521 134.898C68.6137 134.855 68.438 134.78 68.3901 134.653C68.3315 134.498 68.3049 134.242 68.3049 133.89V133.469H66.8942V133.73C66.8942 134.583 67.0273 135.175 67.3094 135.537C67.5916 135.91 68.0547 136.14 68.6882 136.225C69.2525 136.299 69.6837 136.342 69.9659 136.353C70.2427 136.363 70.6579 136.369 71.2009 136.369H71.7759C72.3349 136.369 72.8566 136.347 73.3304 136.305C73.8255 136.262 74.2567 136.156 74.6134 136.001C75.002 135.83 75.2841 135.569 75.4492 135.223C75.6036 134.898 75.6834 134.498 75.6834 134.029C75.6834 133.293 75.5131 132.76 75.1723 132.435C74.8423 132.121 74.4111 131.934 73.884 131.876L73.8894 131.87Z" fill="black"/>
<path d="M80.6874 136.369H82.0928V132.995H87.8476V131.737H82.0928V129.829H88.1564V128.561H80.6874V136.369Z" fill="black"/>
<path d="M98.4308 129.829H102.093V136.369H103.499V129.829H107.183V128.561H98.4308V129.829Z" fill="black"/>
<path d="M109.488 132.974H115.583V131.716H109.488V129.829H115.812V128.561H108.082V136.369H115.887V135.106H109.488V132.974Z" fill="black"/>
<path d="M122.829 128.561H121.365L116.792 136.31L116.76 136.369H118.405L119.352 134.732H124.889L125.852 136.369H127.476L122.909 128.694L122.834 128.566L122.829 128.561ZM124.149 133.469H120.082L122.099 129.989L124.149 133.469Z" fill="black"/>
<path d="M138.608 128.561L134.387 134.605L130.224 128.625L130.181 128.561H128.344V136.369H129.75V130.41L133.886 136.369H134.871L139.013 130.405V136.369H140.424V128.561H138.608Z" fill="black"/>
<path d="M92.2129 128.561L89.9078 130.207L89.8812 130.229L90.6318 131.428L92.0479 130.378V136.369H93.432V128.561H92.2928H92.2129Z" fill="black"/>
</g>
<defs>
<clipPath id="clip0_1126_1582">
<rect width="106.147" height="97.3015" fill="white" transform="translate(34.2764 39.0684)"/>
</clipPath>
</defs>
</svg>
