<svg width="176" height="176" viewBox="0 0 176 176" fill="none" xmlns="http://www.w3.org/2000/svg">
<rect width="176" height="176" rx="87.5482" fill="white"/>
<g clip-path="url(#clip0_1132_1806)">
<path d="M91.7372 86.8901C91.7372 87.4495 91.491 87.8512 90.7308 87.8512H85.8573C85.231 87.8512 84.8735 87.672 84.8735 87.091C84.8735 86.51 85.1197 86.2195 85.8573 86.2195H91.7372V86.8901ZM113.221 84.5878V83.9398C113.221 83.3588 113.468 82.9787 114.249 82.9787H119.123C119.794 82.9787 120.129 83.1796 120.129 83.8059C120.129 84.3426 119.861 84.5888 119.168 84.5888H113.221V84.5878ZM126.009 80.2727V90.5563H130.928V83.0674H134.952C136.316 83.0674 137.009 83.4918 137.009 84.8113V90.5573H141.928V84.4096C141.928 81.5252 140.34 80.2736 135.847 80.2736H126.01L126.009 80.2727ZM113.892 80.2727C109.935 80.2727 108.348 81.5912 108.348 84.5652V86.5996C108.348 89.1708 109.935 90.5563 113.512 90.5563H123.929V87.8512H114.496C113.556 87.8512 113.244 87.5834 113.244 86.8901V86.4657H120.689C123.26 86.4657 124.712 85.6612 124.712 83.738V83.2682C124.712 81.5243 123.841 80.2727 119.481 80.2727H113.892ZM98.0859 90.5563H103.005V83.8049C103.005 83.3579 103.184 83.0674 103.788 83.0674H107.61V80.2727H102.133C99.2045 80.2727 98.0868 81.3677 98.0868 83.2013V90.5563H98.0859ZM81.2743 80.2727V82.9777H90.5073C91.4241 82.9777 91.7372 83.2909 91.7372 83.9615V84.3643H84.3152C81.2073 84.3643 80.2689 85.6385 80.2689 87.2702V87.673C80.2689 89.931 82.0798 90.5573 85.6347 90.5573H91.0893C94.9573 90.5573 96.6334 89.6858 96.6334 86.6449V84.253C96.6334 81.6818 95.046 80.2736 91.4467 80.2736H81.2743V80.2727ZM51.8531 85.996C51.8531 89.2378 53.5075 90.5563 57.7773 90.5563H67.1442V87.7843H58.4923C57.4642 87.7843 56.7709 87.3146 56.7709 85.8394V84.9453C56.7709 83.6267 57.4189 83.0674 58.4696 83.0674H67.1442V80.2727H57.6424C53.4395 80.2727 51.8521 82.0393 51.8521 84.8557V85.996H51.8531ZM68.6204 78.6409V90.5563H79.3068V87.7616H73.5391V78.6399H68.6204V78.6409ZM37.9259 85.3027V78.6409H35.1538C33.4325 78.6409 32.4487 79.3342 31.4207 80.1387L18.2743 90.5563H24.1986L32.9175 83.4918V90.5563H37.0091L45.4602 83.4475V90.5563H50.4676V78.6409H47.7398C46.2647 78.6409 45.2356 79.2446 44.2076 80.0944L37.9259 85.3037V85.3027Z" fill="black"/>
<path d="M153.76 69.9891C151.016 69.9891 147.147 70.8094 142.955 72.3436C139.459 73.6218 135.998 75.2506 132.256 77.612C134.446 76.7169 138.766 75.7065 142.326 75.7065C147.135 75.7065 150.561 77.548 145.503 84.002C160.413 74.2383 160.002 69.9891 153.76 69.9891Z" fill="#FF8000"/>
<path d="M47.3341 105.836H46.3257V101.003H49.0958V101.843H47.3341V103.089H48.9737V103.925H47.3341V105.836Z" fill="black"/>
<path d="M57.1303 103.415C57.1303 104.214 56.9324 104.83 56.5356 105.259C56.1387 105.688 55.5705 105.904 54.83 105.904C54.0895 105.904 53.5213 105.689 53.1244 105.259C52.7276 104.83 52.5296 104.212 52.5296 103.408C52.5296 102.603 52.7285 101.989 53.1264 101.565C53.5242 101.141 54.0944 100.929 54.8369 100.929C55.5794 100.929 56.1476 101.143 56.5405 101.57C56.9344 101.998 57.1303 102.613 57.1303 103.415ZM53.603 103.415C53.603 103.954 53.7054 104.361 53.9102 104.635C54.1151 104.908 54.4213 105.044 54.829 105.044C55.6463 105.044 56.055 104.501 56.055 103.415C56.055 102.328 55.6483 101.782 54.8349 101.782C54.4272 101.782 54.12 101.919 53.9122 102.194C53.7054 102.468 53.601 102.875 53.601 103.415H53.603Z" fill="black"/>
<path d="M61.8866 103.982V105.836H60.8615V101.003H62.2697C62.9265 101.003 63.412 101.122 63.7271 101.361C64.0422 101.601 64.1998 101.964 64.1998 102.45C64.1998 102.735 64.122 102.988 63.9654 103.209C63.8088 103.43 63.5873 103.603 63.3007 103.73L64.7227 105.835H63.5853L62.4312 103.981H61.8856L61.8866 103.982ZM61.8866 103.149H62.2175C62.5415 103.149 62.7808 103.094 62.9344 102.987C63.088 102.88 63.1658 102.709 63.1658 102.478C63.1658 102.247 63.087 102.086 62.9295 101.988C62.7719 101.891 62.5277 101.843 62.1968 101.843H61.8856V103.149H61.8866Z" fill="black"/>
<path d="M70.2196 105.837L69.0556 102.046H69.0261C69.0684 102.817 69.0891 103.332 69.0891 103.59V105.838H68.1733V101.005H69.5686L70.7129 104.7H70.7326L71.9458 101.005H73.3412V105.838H72.386V103.55C72.386 103.442 72.388 103.318 72.3909 103.177C72.3939 103.036 72.4086 102.661 72.4352 102.053H72.4057L71.159 105.839H70.2205L70.2196 105.837Z" fill="black"/>
<path d="M81.2181 101.004V104.131C81.2181 104.488 81.1384 104.801 80.9789 105.07C80.8193 105.339 80.5879 105.544 80.2866 105.688C79.9843 105.832 79.6278 105.903 79.2152 105.903C78.5938 105.903 78.1113 105.743 77.7676 105.425C77.4239 105.107 77.2516 104.671 77.2516 104.118V101.004H78.2728V103.962C78.2728 104.334 78.3476 104.608 78.4973 104.782C78.647 104.957 78.8951 105.043 79.2408 105.043C79.5864 105.043 79.8188 104.956 79.9695 104.78C80.1202 104.605 80.196 104.33 80.196 103.955V101.003H81.2172L81.2181 101.004Z" fill="black"/>
<path d="M85.1266 105.836V101.003H86.1517V104.989H88.1124V105.835H85.1276L85.1266 105.836Z" fill="black"/>
<path d="M94.9524 105.837L94.6018 104.687H92.8401L92.4896 105.837H91.3857L93.0912 100.984H94.3438L96.0563 105.837H94.9524ZM94.3566 103.827C94.0327 102.785 93.8505 102.195 93.8091 102.058C93.7687 101.922 93.7392 101.814 93.7215 101.734C93.6486 102.016 93.4408 102.714 93.0962 103.827H94.3556H94.3566Z" fill="black"/>
<path d="M106.27 105.836H105.249V103.039C105.249 102.982 105.249 102.913 105.251 102.832C105.252 102.752 105.254 102.668 105.258 102.581C105.261 102.495 105.265 102.407 105.268 102.318C105.271 102.231 105.273 102.15 105.275 102.077C105.265 102.09 105.246 102.11 105.219 102.136C105.193 102.163 105.163 102.192 105.13 102.224C105.096 102.256 105.063 102.289 105.027 102.321C104.992 102.355 104.957 102.384 104.925 102.411L104.369 102.857L103.873 102.243L105.43 101.003H106.27V105.836Z" fill="black"/>
<path d="M117.284 105.836H116.259V101.856H114.947V101.003H118.596V101.856H117.283V105.836H117.284Z" fill="black"/>
<path d="M124.892 105.836H122.108V101.003H124.892V101.843H123.133V102.904H124.769V103.744H123.133V104.991H124.892V105.837V105.836Z" fill="black"/>
<path d="M131.807 105.837L131.457 104.687H129.695L129.345 105.837H128.241L129.946 100.984H131.199L132.911 105.837H131.807ZM131.213 103.827C130.889 102.785 130.706 102.195 130.665 102.058C130.625 101.922 130.595 101.814 130.577 101.734C130.505 102.016 130.297 102.714 129.953 103.827H131.213Z" fill="black"/>
<path d="M138.405 105.837L137.241 102.046H137.212C137.253 102.817 137.275 103.332 137.275 103.59V105.838H136.359V101.005H137.754L138.899 104.7H138.918L140.131 101.005H141.527V105.838H140.572V103.55C140.572 103.442 140.574 103.318 140.577 103.177C140.579 103.036 140.594 102.661 140.621 102.053H140.591L139.345 105.839H138.406L138.405 105.837Z" fill="black"/>
</g>
<defs>
<clipPath id="clip0_1132_1806">
<rect width="138.853" height="35.7303" fill="white" transform="translate(18.2743 69.9891) scale(1.00516)"/>
</clipPath>
</defs>
</svg>
