<svg width="175" height="175" viewBox="0 0 175 175" fill="none" xmlns="http://www.w3.org/2000/svg">
<rect width="175" height="175" rx="87.5" fill="white"/>
<g clip-path="url(#clip0_1126_1541)">
<path d="M91.123 66.7756C91.123 59.9863 85.5027 54.4805 78.5688 54.4805C78.3573 54.4805 63.3364 54.4805 63.3364 54.4805V79.2793C63.5702 79.4631 63.7909 79.6611 63.9906 79.8801C65.7195 81.7735 65.8762 84.9871 64.3406 87.0435C64.0363 87.45 63.6968 87.8345 63.3364 88.202V92.8633C63.5062 92.7656 63.6799 92.6639 63.8574 92.5597C63.9671 92.4945 64.1029 92.4111 64.2139 92.3381C64.2831 92.2938 64.526 92.1244 65.3539 91.482C66.87 90.3052 68.7582 88.8379 70.841 88.3583C71.4469 88.215 71.8125 88.1394 72.199 88.086V61.6308H76.7263C79.9987 61.6308 82.485 64.0677 82.485 67.0754C82.485 70.083 79.8328 72.5212 76.5592 72.5212H74.5025V82.4759L77.0005 86.3228C77.2499 86.1091 77.5007 85.885 77.754 85.6556L77.8049 85.6087L77.8585 85.5644C79.808 83.9759 81.8425 83.25 84.4346 83.2226C84.4881 83.1731 84.5508 83.1158 84.6135 83.0571L81.5591 78.7177C87.0488 77.4041 91.1217 72.5551 91.1217 66.7743L91.123 66.7756Z" fill="#B3B3B3"/>
<path d="M108.516 54.4824H94.2803V78.0433C94.5284 77.8934 94.783 77.7318 95.0429 77.5663C95.5482 77.2445 96.1097 76.8861 96.7078 76.5707L96.8031 76.5212L96.9011 76.4795C97.9731 76.0208 99.2097 75.7771 100.478 75.7771C101.422 75.7771 102.342 75.9192 103.16 76.1863V61.6328H108.717C111.158 61.6328 113.136 63.8612 113.136 66.298C113.136 68.7349 111.158 70.7079 108.717 70.7079H105.824V77.4569C106.043 77.5989 106.282 77.7618 106.552 77.9495L106.641 78.012L106.858 78.1918H111.129C114.087 78.1918 116.323 80.574 116.323 83.5256C116.287 84.546 116.05 85.4569 115.636 86.2296C116.864 87.7322 118.411 89.7103 119.323 91.1959L119.356 91.252C119.753 91.9348 120.112 92.8118 120.344 93.625C123.412 91.4396 125.389 88.0163 125.389 84.172C125.389 79.4337 123.716 76.0534 118.101 73.4536C120.381 71.3308 121.774 68.4886 121.774 65.3637C121.774 62.5333 120.683 59.9322 118.774 57.8914C116.786 55.7087 113.27 54.485 108.518 54.485L108.516 54.4824Z" fill="#B3B3B3"/>
<path d="M91.4483 110.763C91.6128 111 91.7695 111.346 91.9223 111.681C92.1626 112.212 92.3702 112.669 92.6144 112.746C92.7136 112.777 92.8285 112.793 92.9565 112.793C93.5102 112.793 94.2806 112.493 94.833 112.062C95.1464 111.799 95.0445 111.627 94.9061 111.389C94.8617 111.314 94.8121 111.229 94.7612 111.121C94.611 110.833 94.5248 110.532 94.4491 110.267C94.2963 109.735 94.1657 109.277 93.5924 109.359C92.7724 109.476 91.9771 109.531 91.0918 109.531C91.08 109.531 90.8032 109.534 90.7183 109.725C90.6204 109.95 90.8437 110.155 91.08 110.373C91.2145 110.496 91.353 110.623 91.4496 110.764L91.4483 110.763Z" fill="#B3B3B3"/>
<path d="M50.8775 113.471C50.8474 113.471 50.82 113.476 50.7939 113.487C50.3264 113.678 49.7819 114.287 49.7545 114.648C49.637 116.231 49.5913 116.398 49.1577 116.883C49.0363 117.018 48.954 117.33 49.0911 117.468C49.2113 117.588 50.7717 118.083 50.9441 118.083L50.9793 118.079C51.1204 118.037 51.234 117.681 51.55 116.589C51.7197 116.002 51.913 115.336 52.1285 114.731C52.1428 114.693 52.1454 114.635 52.0031 114.433C51.8216 114.176 51.2183 113.47 50.8788 113.47L50.8775 113.471Z" fill="#B3B3B3"/>
<path d="M125.899 110.926C125.457 110.706 124.938 110.447 124.938 110.447C123.799 109.784 123.143 108.682 122.507 107.618C122.257 107.201 121.999 106.768 121.719 106.374C121.535 106.106 121.224 105.827 120.949 105.581C120.709 105.366 120.481 105.164 120.441 105.052C119.4 102.217 118.268 98.8827 117.992 95.1792C117.949 94.611 117.552 93.373 117.082 92.565C115.604 90.162 112.069 86.0454 111.876 85.8408C111.753 85.7105 111.619 85.5789 111.503 85.4668L111.407 85.3743L105.045 80.0979C103.78 79.213 103.393 79.0553 102.481 78.7243C101.897 78.5132 101.205 78.4012 100.48 78.4012C99.5791 78.4012 98.6794 78.5745 97.9403 78.8898C97.4349 79.157 96.94 79.4723 96.4621 79.7773C95.6486 80.2959 94.8089 80.8315 93.8948 81.1365C93.1845 81.4544 92.4167 81.6916 91.675 81.921C90.232 82.3666 88.7395 82.8279 87.5564 83.9109C87.213 84.2262 86.9309 84.4908 86.6946 84.7136C85.6029 85.7418 85.4893 85.8486 84.5922 85.8486C82.5198 85.8486 81.0521 86.3556 79.5256 87.6001C78.3151 88.6986 77.1138 89.7242 75.7165 90.2077C75.091 90.424 74.3963 90.5035 73.6599 90.5764C72.6021 90.669 72.4402 90.6794 71.436 90.9179C69.9278 91.2645 68.3282 92.5025 66.9714 93.5554C66.5288 93.8995 65.9346 94.3556 65.6539 94.538C65.5089 94.6318 65.3313 94.7426 65.189 94.8247C63.5071 95.8073 61.9179 96.7351 59.8835 96.7351C59.8325 96.7351 59.7816 96.7351 59.7333 96.7338C58.2159 96.6256 56.8318 95.5792 56.3682 94.1927C55.9399 92.6328 56.3995 91.0352 57.6296 89.8076C58.2172 89.2225 58.8832 88.6556 59.5283 88.1083C60.569 87.2248 61.5523 86.3907 62.2339 85.4759C63.0266 84.4139 62.9404 82.6247 62.0485 81.6473C61.1592 80.6738 59.1718 80.1878 58.4236 80.0053L58.2943 79.9728C58.2211 79.9545 58.088 79.9402 58.0187 79.9219C57.5447 79.8294 57.0916 79.7656 56.628 79.6509C55.445 79.329 54.5309 78.4168 53.4823 77.8525C53.0788 78.4702 52.9443 79.1413 52.9979 79.892C53.199 81.4688 54.5126 83.1042 55.9725 83.7688C56.0339 83.7949 56.0966 83.8183 56.158 83.8418C56.6202 84.0399 57.1073 84.0672 57.563 84.0672C57.661 84.0672 57.7602 84.0672 57.8581 84.0646C57.9561 84.0646 58.054 84.062 58.1519 84.062C58.4353 84.062 58.7696 84.0594 59.0778 84.1389C59.3611 84.2119 59.6549 84.4908 59.6941 84.8478C59.7176 85.0576 59.6223 85.2192 59.3559 85.4264C59.1104 85.6323 58.8623 85.8369 58.6142 86.0402C57.358 87.0762 56.06 88.1474 55.0036 89.4479C53.5907 90.9713 53.5267 93.618 54.1836 95.3342C55.0258 97.5952 57.3541 98.8566 59.2854 99.1029C59.6301 99.1577 59.9736 99.1837 60.3353 99.1837C61.4739 99.1837 62.5578 98.9114 63.6077 98.6468C63.6468 98.6377 63.6795 98.6325 63.7069 98.6325C63.7552 98.6325 63.8453 98.6325 63.8623 98.8736C63.8936 99.3401 63.9184 99.8705 63.9406 100.383C63.9785 101.217 64.0138 102.004 64.0778 102.336C64.2188 103.078 64.587 103.979 64.8312 104.575C64.9344 104.828 65.0166 105.027 65.0441 105.126C65.1394 105.465 65.0506 105.832 64.8247 106.04C64.0281 106.768 62.4115 107.348 62.1138 107.386C61.6346 107.446 61.1253 107.473 60.7531 107.493C60.5638 107.502 60.4149 107.511 60.3353 107.52C60.159 107.541 60.0127 107.609 59.8887 107.728C59.6615 107.949 59.4121 108.586 59.1235 109.323C58.9498 109.767 58.7696 110.225 58.5894 110.607C58.084 111.449 57.2313 111.94 56.4061 112.417C56.1997 112.536 55.9947 112.654 55.7975 112.777L55.774 112.8C55.4345 113.336 55.095 113.848 54.6602 114.23C54.3207 114.544 53.8858 114.617 53.4693 114.666L53.4405 114.67L53.421 114.692C52.7798 115.427 52.5722 116.405 52.3711 117.351C52.341 117.496 52.3097 117.64 52.2771 117.785L52.2496 117.919L52.3345 117.927C52.6714 117.958 53.0109 118.031 53.3713 118.109C53.844 118.212 54.3324 118.318 54.813 118.318C55.2661 118.318 55.6578 118.223 56.0039 118.03C56.6189 117.747 56.9467 117.185 57.264 116.641C57.4729 116.284 57.6884 115.914 57.9861 115.627C58.1598 115.437 58.3674 115.348 58.639 115.348C58.878 115.348 59.1418 115.418 59.3964 115.486C59.6288 115.547 59.8691 115.612 60.0976 115.624C61.2311 115.687 62.3058 114.978 62.8307 114.562C63.0605 114.381 63.289 114.167 63.511 113.96C63.8545 113.64 64.2096 113.307 64.587 113.071C65.0467 112.852 65.6056 112.746 66.2924 112.746C67.1451 112.746 68.0501 112.915 68.7722 113.05C69.1587 113.152 69.5544 113.203 69.95 113.203C70.6382 113.203 71.2807 113.045 71.8069 112.748C72.4389 112.391 73.0749 112.059 73.5854 111.792C73.8832 111.635 74.1469 111.497 74.3546 111.384C75.2634 110.886 76.0299 109.509 76.3172 108.939C76.5849 108.409 77.0445 107.259 77.0498 107.248L77.0707 107.194L76.0129 106.388L75.9685 106.459C75.962 106.471 75.2686 107.611 74.8194 108.139C72.956 110.674 69.9174 110.999 67.4807 110.999C67.3123 110.993 67.1438 110.99 66.9767 110.99C63.9563 110.99 61.5236 112.001 59.7463 113.997C59.6628 114.09 59.5191 114.105 59.4565 114.027C59.4186 113.978 59.4094 113.901 59.4316 113.81C59.4813 113.602 59.5022 113.54 59.6301 113.31C61.521 110.633 64.7463 110.236 67.3475 110.189C69.2697 110.061 70.6682 109.727 71.8826 109.11C73.4418 108.317 74.5974 106.565 75.0506 105.178C75.3483 104.266 75.4932 103.294 75.6343 102.354C75.7453 101.608 75.8615 100.835 76.0508 100.126C76.0848 100.026 76.184 99.9734 76.265 99.9734C76.2872 99.9734 76.3068 99.9773 76.342 99.9891C76.4413 100.006 76.628 100.078 76.628 100.222C76.3655 101.695 76.0077 103.711 76.6828 105.395C76.9962 106.06 77.6661 106.385 78.7291 106.385C79.3728 106.385 80.0754 106.274 80.7557 106.167C81.2806 106.084 81.7781 106.006 82.2078 105.986C82.3867 105.97 82.5708 105.963 82.7575 105.963C83.6037 105.963 84.4211 106.127 85.2125 106.286C85.9019 106.424 86.6162 106.567 87.3475 106.603C87.4767 106.609 87.6165 106.619 87.7627 106.631C88.016 106.652 88.2785 106.673 88.5449 106.673C89.1639 106.673 89.6013 106.552 89.9212 106.291C90.1445 106.109 90.0662 105.836 89.9669 105.492L89.9487 105.431C89.9317 105.372 89.9121 105.309 89.8899 105.238C89.7476 104.782 89.5334 104.093 89.8925 103.776C89.9421 103.736 90.0205 103.71 90.0897 103.71C90.1498 103.71 90.2281 103.728 90.2555 103.819C90.296 103.951 90.3339 104.084 90.3717 104.216C90.5284 104.768 90.6904 105.337 91.0469 105.825C91.7873 106.771 92.9364 107.666 94.3623 108.41C95.2777 109.041 96.3877 110.105 96.4752 111.586C96.4752 112.257 95.8222 112.726 95.3378 113.017C94.5739 113.397 93.3712 113.86 92.6439 113.823C92.1555 113.798 91.7494 113.49 91.722 113.464C90.9763 112.781 91.0625 112.546 90.5768 111.734C90.3195 111.303 90.0518 110.857 89.7162 110.464C89.2527 109.95 88.669 109.755 87.8815 109.819C87.1216 109.88 86.4216 110.021 85.5872 110.199C85.4135 110.236 85.2817 110.337 85.2138 110.486C85.1393 110.65 85.155 110.849 85.2582 111.032C85.6891 111.799 86.1096 112.502 86.5535 113.246L86.7507 113.577C86.8591 113.758 87.085 113.782 87.2704 113.782C87.3723 113.782 87.4833 113.774 87.5982 113.766C87.7222 113.757 87.8489 113.748 87.9756 113.748C88.3608 113.748 88.6063 113.839 88.7643 114.034C88.8962 114.236 89.0176 114.455 89.1351 114.666C89.425 115.188 89.7241 115.727 90.2255 116.113C90.6825 116.516 91.3407 116.746 92.0327 116.746C92.337 116.746 92.6321 116.702 92.909 116.615C94.9029 115.99 96.8447 115.349 98.6898 114.363H99.2957C99.4302 114.348 99.566 114.338 99.7031 114.328C100.342 114.281 101.001 114.232 101.469 113.741C102.061 112.88 102.567 112.02 103.012 111.11C103.412 110.293 103.416 109.496 103.021 108.866C101.845 106.988 101.637 106.493 101.155 105.213L101.142 105.178L101.106 105.168C100.966 105.126 100.827 105.073 100.694 105.019C100.404 104.906 100.105 104.789 99.7593 104.789H99.7149C99.3101 104.802 99.0385 104.927 98.9249 105.152L98.9079 105.186L101.043 109.39C101.18 109.72 101.337 110.051 101.254 110.542C101.172 111.033 100.124 112.675 99.8089 112.885C99.7306 112.937 99.6705 112.963 99.6235 112.963C99.5974 112.963 99.4877 112.942 99.5595 112.695C99.7593 112.014 100.009 110.409 99.9408 109.894C99.8638 109.299 98.0761 106.345 98.0003 106.218L97.9677 106.166C97.6922 105.716 97.4062 105.252 97.431 104.705C97.431 104.455 97.6634 104.279 97.8345 104.215C98.1453 104.098 98.4404 104.054 98.7603 103.983C99.519 103.816 100.305 103.644 100.585 103.221C101.441 101.923 101.949 100.569 102.286 98.6963C102.3 98.6129 102.359 98.4566 102.478 98.4566C102.549 98.4566 102.616 98.48 102.645 98.6416C102.959 100.415 102.533 102.276 101.478 103.75C101.416 103.835 101.371 104.003 101.402 104.157C101.427 104.306 101.597 104.428 101.597 104.428C102.009 104.706 103.504 104.547 104.588 103.977C105.416 103.994 106.2 103.848 106.954 103.706C107.195 103.66 107.432 103.616 107.667 103.578C107.743 103.621 107.802 103.686 107.816 103.742C107.182 104.46 106.791 105.265 106.591 106.273C106.415 106.453 106.219 106.633 106.029 106.806C105.333 107.442 104.582 108.152 104.546 109.062C104.546 109.062 104.524 109.387 104.878 109.413C104.99 109.423 105.114 109.363 105.235 109.313C105.365 109.261 105.502 109.208 105.603 109.221C105.718 109.24 105.797 109.329 105.807 109.445L105.014 110.604C104.715 111.088 104.842 111.604 104.963 112.103C105.052 112.379 105.011 112.596 105.087 112.837C105.286 113.415 105.992 113.69 106.556 113.69C107.593 113.645 108.534 113.305 109.445 112.976C109.606 112.918 109.768 112.859 109.936 112.8C110.933 112.37 112.268 112.28 113.853 112.54C115.129 112.459 116.087 111.62 117.014 110.8C117.41 110.81 117.823 111.045 118.244 111.498C119.623 112.976 121.314 113.694 123.416 113.694C123.494 113.694 123.572 113.694 123.653 113.692L123.866 113.676C124.084 113.625 124.142 113.518 124.155 113.381C124.17 113.216 124.042 113.057 123.807 112.945L122.631 112.322C121.691 111.725 120.665 111.008 120.383 110.062C120.078 109.055 119.51 108.027 119.088 107.341C119.006 107.207 118.913 107.076 118.815 106.936C118.648 106.698 118.477 106.45 118.357 106.195L118.362 106.189C119.644 106.648 120.36 107.594 121.226 109.168C121.868 110.34 123.542 111.605 125.127 111.605C125.335 111.605 125.54 111.583 125.733 111.54C125.904 111.502 126.015 111.397 126.038 111.251C126.057 111.122 126.042 110.999 125.895 110.926H125.899ZM103.019 92.0125C102.983 92.1376 102.906 92.2184 102.823 92.2184C102.785 92.2184 102.696 92.2015 102.663 92.0412C102.33 90.3445 102.129 89.5092 101.742 88.7273C101.616 88.4745 101.463 88.266 101.328 88.0809C101.042 87.6913 100.796 87.3551 101.073 86.9003C101.154 86.7661 101.358 86.6761 101.58 86.6761C101.688 86.6761 101.791 86.6983 101.879 86.74C102.206 86.8951 102.525 87.2912 102.853 87.9519C103.674 89.6252 103.024 91.9904 103.017 92.0138L103.019 92.0125ZM113.711 108.921C113.711 108.921 113.66 109.402 113.434 109.606C113.208 109.811 112.397 109.923 111.973 109.907C111.548 109.89 111.401 109.832 111.311 109.7C111.211 109.554 111.373 109.269 111.373 109.269C111.424 109.163 111.926 108.129 112.928 107.859C112.928 107.859 113.254 107.74 113.561 107.893C113.867 108.044 113.724 108.814 113.712 108.922L113.711 108.921ZM116.621 102.247C116.56 102.641 116.466 102.83 116.414 102.922C116.361 103.015 116.271 103.222 115.979 103.223C115.659 103.223 115.684 102.848 115.68 102.797C115.68 102.797 115.642 101.755 115.442 101.316C115.224 100.837 114.173 99.49 113.567 99.546C113.413 99.5603 113.019 99.7962 112.723 100.179C112.367 100.642 112.368 100.698 112.259 100.768C112.149 100.839 112.007 100.801 111.958 100.529C111.91 100.256 111.862 100.035 111.988 99.5134C112.116 98.9922 112.243 98.8788 112.396 98.5061C112.396 98.5061 112.713 97.7763 112.832 97.5965C113.157 97.1026 113.594 97.1352 113.594 97.1352C113.712 97.143 114.087 97.0948 114.49 97.5991C114.958 98.1829 114.857 98.1295 114.989 98.3367C115.121 98.5439 115.259 98.7576 115.645 99.1772C116.031 99.5955 116.457 100.414 116.574 100.921C116.692 101.428 116.684 101.858 116.623 102.251L116.621 102.247Z" fill="#B3B3B3"/>
<path d="M52.6038 113.443C52.7239 113.542 52.9133 113.672 53.1849 113.672C53.339 113.672 53.5035 113.629 53.6733 113.543C54.5547 113.1 55.4675 111.467 55.5027 111.371C55.5993 111.108 55.2951 110.867 54.9112 110.56L54.8668 110.525C54.6996 110.391 54.3915 110.409 54.1864 110.549C54.0441 110.645 53.9005 110.74 53.7581 110.834C53.3011 111.135 52.8297 111.448 52.3296 111.865C52.1494 112.015 52.0501 112.305 52.0318 112.525C52.0175 112.7 52.0488 112.842 52.1219 112.927C52.1637 112.972 52.5267 113.378 52.6038 113.442V113.443Z" fill="#B3B3B3"/>
<path d="M85.6879 49.5138L88.9734 34.1875H85.0011L81.7156 49.5138H85.6879Z" fill="#0056A7"/>
<path d="M103.715 49.5138L104.543 47.2242H109.64L110.119 49.5138H113.793L110.588 34.1875H107.196C106.434 34.1875 105.79 34.6306 105.505 35.3121L99.5443 49.5138H103.716H103.715ZM107.779 38.3289L108.983 44.0836H105.688L107.779 38.3289Z" fill="#0056A7"/>
<path d="M93.2158 46.5494C91.2192 46.5793 90.0609 46.0099 89.1364 45.5811L88.4169 48.9393C89.3453 49.3642 91.0585 49.7356 92.8345 49.7538C97.0079 49.7538 99.7383 47.6961 99.7514 44.5099C99.7684 40.465 94.1468 40.2421 94.1847 38.4347C94.1964 37.8848 94.7214 37.2996 95.8692 37.1511C96.4385 37.0768 98.0068 37.0195 99.7853 37.8365L100.483 34.5865C99.5268 34.2399 98.2967 33.9062 96.7663 33.9062C92.8397 33.9062 90.0766 35.99 90.0531 38.9729C90.0283 41.1791 92.0262 42.4106 93.5305 43.1442C95.0792 43.8949 95.5989 44.377 95.5924 45.0494C95.5819 46.0776 94.357 46.5311 93.2131 46.5494H93.2158Z" fill="#0056A7"/>
<path d="M69.4929 37.2825L72.6608 49.5138H76.8603L83.2967 34.1875H79.1233L74.9891 44.6192L73.3163 35.7513C73.1204 34.7609 72.3461 34.1888 71.4843 34.1888H64.724L64.63 34.6345C66.0168 34.9355 67.5942 35.4203 68.5488 35.9376C69.1338 36.2543 69.3009 36.5306 69.4929 37.2838V37.2825Z" fill="#0056A7"/>
<path d="M64.1285 138.048H65.9136V138.479H64.6065V139.398H65.8731V139.82H64.6065V141.106H64.1285V138.048Z" fill="#B3B3B3"/>
<path d="M68.5188 141.161C68.2916 141.161 68.0788 141.12 67.8816 141.041C67.6844 140.96 67.5147 140.849 67.371 140.707C67.2287 140.565 67.1164 140.397 67.0341 140.206C66.9519 140.013 66.9114 139.803 66.9114 139.576C66.9114 139.349 66.9519 139.14 67.0315 138.947C67.1125 138.754 67.2248 138.588 67.3684 138.446C67.5121 138.306 67.6831 138.195 67.879 138.114C68.0749 138.033 68.2877 137.994 68.5188 137.994C68.75 137.994 68.9628 138.035 69.1587 138.114C69.3546 138.195 69.5243 138.306 69.6667 138.446C69.809 138.587 69.9213 138.755 70.0009 138.948C70.0819 139.142 70.1211 139.351 70.1211 139.575C70.1211 139.799 70.0806 140.011 70.0009 140.204C69.92 140.397 69.8077 140.564 69.664 140.706C69.5204 140.848 69.3493 140.96 69.1535 141.04C68.9576 141.12 68.7461 141.159 68.5175 141.159L68.5188 141.161ZM68.5188 140.715C68.6768 140.715 68.8244 140.686 68.9602 140.629C69.0973 140.572 69.2135 140.492 69.3115 140.391C69.4081 140.289 69.4851 140.168 69.5413 140.027C69.5974 139.886 69.6262 139.734 69.6262 139.571C69.6262 139.408 69.5974 139.257 69.5413 139.119C69.4851 138.981 69.4081 138.862 69.3089 138.762C69.2096 138.661 69.0934 138.583 68.9576 138.526C68.8231 138.468 68.6755 138.44 68.5175 138.44C68.3595 138.44 68.2081 138.468 68.0736 138.526C67.9378 138.583 67.8215 138.663 67.7223 138.762C67.623 138.862 67.546 138.981 67.4899 139.119C67.4337 139.257 67.405 139.408 67.405 139.571C67.405 139.734 67.4324 139.886 67.4899 140.027C67.546 140.168 67.623 140.289 67.7223 140.391C67.8215 140.492 67.9378 140.572 68.0736 140.629C68.2081 140.686 68.3569 140.715 68.5175 140.715H68.5188Z" fill="#B3B3B3"/>
<path d="M71.3707 138.048H72.3684C72.6844 138.048 72.9325 138.13 73.1127 138.296C73.2929 138.461 73.383 138.687 73.383 138.975C73.383 139.192 73.3295 139.379 73.2211 139.531C73.1127 139.684 72.9625 139.793 72.768 139.856L73.5828 141.105H73.0226L72.2626 139.914H71.8487V141.105H71.3707V138.047V138.048ZM72.3501 139.508C72.5198 139.508 72.653 139.461 72.7484 139.367C72.8437 139.273 72.892 139.144 72.892 138.981C72.892 138.818 72.845 138.691 72.751 138.602C72.657 138.512 72.5238 138.468 72.3501 138.468H71.8447V139.509H72.3501V139.508Z" fill="#B3B3B3"/>
<path d="M77.8372 138.048V141.106H77.3723V138.761L76.5026 141.106H76.0887L75.219 138.761V141.106H74.7594L74.7542 138.048H75.4097L76.2976 140.493L77.1764 138.048H77.8372Z" fill="#B3B3B3"/>
<path d="M80.4201 141.161C80.2412 141.161 80.078 141.131 79.9331 141.073C79.7881 141.014 79.6627 140.931 79.5596 140.823C79.4564 140.714 79.3781 140.584 79.3232 140.429C79.2684 140.274 79.241 140.102 79.241 139.91V138.047H79.7189V139.919C79.7189 140.164 79.7816 140.36 79.9056 140.503C80.0297 140.647 80.2021 140.72 80.4201 140.72C80.6382 140.72 80.8145 140.649 80.9398 140.509C81.0639 140.368 81.1266 140.171 81.1266 139.919V138.047H81.6045V139.91C81.6045 140.101 81.5771 140.274 81.5222 140.429C81.4674 140.584 81.389 140.714 81.2859 140.823C81.1827 140.931 81.0587 141.013 80.9124 141.073C80.7662 141.133 80.6029 141.161 80.4201 141.161Z" fill="#B3B3B3"/>
<path d="M83.007 138.048H83.4849V140.675H84.6915V141.106H83.0057V138.048H83.007Z" fill="#B3B3B3"/>
<path d="M87.5528 140.384H86.2678L86.0041 141.107H85.4987L86.6557 138.049H87.1663L88.318 141.107H87.8126L87.5528 140.384ZM86.405 139.997H87.4209L86.9103 138.538L86.405 139.997Z" fill="#B3B3B3"/>
<path d="M92.7717 141.161C92.5445 141.161 92.3316 141.12 92.1345 141.041C91.9373 140.96 91.7675 140.849 91.6239 140.707C91.4803 140.565 91.3693 140.397 91.287 140.206C91.2047 140.013 91.1642 139.803 91.1642 139.576C91.1642 139.349 91.2047 139.14 91.2844 138.947C91.3653 138.754 91.4776 138.588 91.6213 138.446C91.7649 138.306 91.936 138.195 92.1319 138.114C92.3277 138.033 92.5406 137.994 92.7717 137.994C93.0028 137.994 93.2157 138.035 93.4116 138.114C93.6074 138.195 93.7772 138.306 93.9195 138.446C94.0619 138.587 94.1742 138.755 94.2538 138.948C94.3335 139.141 94.374 139.351 94.374 139.575C94.374 139.799 94.3335 140.011 94.2538 140.204C94.1729 140.397 94.0606 140.564 93.9169 140.706C93.7733 140.848 93.6022 140.96 93.4063 141.04C93.2105 141.12 92.9989 141.159 92.7704 141.159L92.7717 141.161ZM92.7717 140.715C92.9297 140.715 93.0773 140.686 93.2131 140.629C93.3502 140.572 93.4664 140.492 93.5643 140.391C93.661 140.289 93.738 140.168 93.7942 140.027C93.8503 139.886 93.8777 139.734 93.8777 139.571C93.8777 139.408 93.8503 139.257 93.7942 139.119C93.738 138.981 93.661 138.862 93.5617 138.762C93.4625 138.661 93.3463 138.583 93.2105 138.526C93.0747 138.468 92.9284 138.44 92.7704 138.44C92.6124 138.44 92.4609 138.468 92.3264 138.526C92.1906 138.583 92.0744 138.663 91.9752 138.762C91.8759 138.862 91.7989 138.981 91.7427 139.119C91.6866 139.257 91.6592 139.408 91.6592 139.571C91.6592 139.734 91.6866 139.886 91.7427 140.027C91.7989 140.168 91.8759 140.289 91.9752 140.391C92.0731 140.492 92.1906 140.572 92.3264 140.629C92.4609 140.686 92.6098 140.715 92.7704 140.715H92.7717Z" fill="#B3B3B3"/>
<path d="M97.9765 138.048V141.106H97.4659L96.0909 138.802V141.106H95.6221V138.048H96.151L97.5038 140.311V138.048H97.9778H97.9765Z" fill="#B3B3B3"/>
<path d="M99.4119 138.048H101.215V138.47H99.8898V139.316H101.169V139.725H99.8898V140.684H101.265V141.106H99.4119V138.048Z" fill="#B3B3B3"/>
<path d="M104.999 138.479H104.134V138.048H106.384V138.479H105.477V141.106H104.999V138.479Z" fill="#B3B3B3"/>
<path d="M107.573 138.048H109.377V138.47H108.051V139.316H109.331V139.725H108.051V140.684H109.426V141.106H107.573V138.048Z" fill="#B3B3B3"/>
<path d="M112.445 140.384H111.16L110.897 141.107H110.391L111.548 138.049H112.059L113.211 141.107H112.705L112.445 140.384ZM111.299 139.997H112.315L111.804 138.538L111.299 139.997Z" fill="#B3B3B3"/>
<path d="M117.45 138.048V141.106H116.985V138.761L116.116 141.106H115.702L114.832 138.761V141.106H114.373L114.369 138.048H115.024L115.912 140.493L116.791 138.048H117.452H117.45Z" fill="#B3B3B3"/>
<path d="M75.3785 121.983H66.6204C66.5425 121.983 66.4794 122.046 66.4794 122.124V131.212C66.4794 131.29 66.5425 131.353 66.6204 131.353H75.3785C75.4564 131.353 75.5196 131.29 75.5196 131.212V122.124C75.5196 122.046 75.4564 121.983 75.3785 121.983Z" fill="white"/>
<path d="M83.5364 128.735C84.1632 128.735 84.6385 128.374 84.837 127.771C84.8592 127.698 84.9388 127.657 85.0119 127.681L85.8202 127.952C85.8934 127.974 85.9339 128.059 85.9051 128.133C85.5317 129.126 84.7064 129.741 83.5364 129.741C81.9315 129.741 80.7667 128.472 80.7667 126.667C80.7667 124.862 81.9315 123.593 83.5364 123.593C84.7064 123.593 85.5317 124.208 85.9051 125.201C85.9339 125.274 85.8934 125.353 85.8202 125.382L85.0119 125.653C84.9388 125.675 84.8592 125.636 84.837 125.563C84.6333 124.96 84.1645 124.599 83.5364 124.599C82.587 124.599 81.9145 125.417 81.9145 126.67C81.9145 127.922 82.587 128.74 83.5364 128.74V128.735Z" fill="#010101"/>
<path d="M89.0078 127.614L88.1094 127.801C87.7085 127.885 87.4029 128.014 87.4029 128.382C87.4029 128.704 87.6406 128.884 88.0075 128.884C88.522 128.884 89.0078 128.612 89.0078 128.099V127.614ZM86.3348 128.437C86.3348 127.584 86.9955 127.218 87.8613 127.055L89.0091 126.825V126.752C89.0091 126.357 88.8054 126.114 88.2974 126.114C87.8848 126.114 87.6537 126.284 87.5348 126.616C87.5126 126.679 87.4447 126.718 87.3768 126.701L86.6247 126.543C86.5398 126.526 86.4941 126.436 86.5228 126.357C86.7775 125.697 87.4042 125.194 88.3366 125.194C89.4165 125.194 90.0655 125.696 90.0655 126.706V128.54C90.0655 128.736 90.1334 128.821 90.3032 128.828C90.3763 128.833 90.439 128.89 90.439 128.963V129.522C90.439 129.59 90.388 129.652 90.3149 129.658C89.6594 129.72 89.2807 129.573 89.1162 129.234C88.8393 129.544 88.3875 129.719 87.8156 129.719C86.9733 129.731 86.3348 129.217 86.3348 128.438V128.437Z" fill="#010101"/>
<path d="M91.3816 128.296C91.4378 128.245 91.5292 128.25 91.5788 128.308C91.8726 128.657 92.3362 128.877 92.788 128.877C93.1954 128.877 93.5624 128.736 93.5624 128.381C93.5624 128.025 93.2176 127.986 92.5229 127.85C91.8217 127.709 91.0369 127.528 91.0369 126.593C91.0369 125.774 91.7551 125.194 92.7828 125.194C93.4945 125.194 94.133 125.476 94.4895 125.882C94.5352 125.938 94.5352 126.018 94.4843 126.069L94.0089 126.543C93.9528 126.599 93.8614 126.599 93.8118 126.538C93.5402 126.228 93.1615 126.053 92.7384 126.053C92.3479 126.053 92.0998 126.223 92.0998 126.487C92.0998 126.785 92.4054 126.843 92.9473 126.955C93.6995 127.113 94.6201 127.277 94.6201 128.275C94.6201 129.172 93.7896 129.736 92.7723 129.736C92.0202 129.736 91.2524 129.465 90.8332 128.963C90.7875 128.907 90.794 128.828 90.8502 128.777L91.3816 128.297V128.296Z" fill="#010101"/>
<path d="M95.3163 123.682H96.1246C96.1977 123.682 96.2604 123.745 96.2604 123.817V125.741C96.5032 125.453 96.8989 125.199 97.4643 125.199C98.3797 125.199 98.9334 125.824 98.9334 126.773V129.515C98.9334 129.588 98.8707 129.65 98.7976 129.65H97.9893C97.9161 129.65 97.8535 129.588 97.8535 129.515V127.083C97.8535 126.57 97.6445 126.197 97.1183 126.197C96.6887 126.197 96.2591 126.507 96.2591 127.105V129.514C96.2591 129.587 96.1964 129.649 96.1232 129.649H95.3149C95.2418 129.649 95.1791 129.587 95.1791 129.514V123.816C95.1791 123.743 95.2418 123.681 95.3149 123.681L95.3163 123.682Z" fill="#010101"/>
<path d="M102.861 127.342H104.648L103.749 124.951L102.861 127.342ZM104.456 123.772L106.604 129.469C106.638 129.559 106.57 129.655 106.473 129.655H105.609C105.552 129.655 105.502 129.621 105.478 129.565L105.014 128.33H102.499L102.041 129.565C102.019 129.621 101.968 129.655 101.911 129.655H101.068C100.972 129.655 100.904 129.559 100.938 129.469L103.086 123.772C103.108 123.721 103.159 123.682 103.216 123.682H104.33C104.381 123.682 104.432 123.716 104.454 123.772H104.456Z" fill="#010101"/>
<path d="M108.187 127.597C108.187 128.37 108.628 128.804 109.216 128.804C109.905 128.804 110.278 128.256 110.278 127.467C110.278 126.677 109.905 126.13 109.216 126.13C108.628 126.13 108.187 126.558 108.187 127.343V127.597ZM108.209 129.199V131.003C108.209 131.076 108.146 131.139 108.073 131.139H107.265C107.192 131.139 107.129 131.076 107.129 131.003V125.419C107.129 125.346 107.192 125.284 107.265 125.284H108.073C108.146 125.284 108.209 125.346 108.209 125.419V125.741C108.474 125.419 108.893 125.199 109.452 125.199C110.668 125.199 111.368 126.231 111.368 127.467C111.368 128.702 110.666 129.739 109.452 129.739C108.892 129.739 108.48 129.519 108.209 129.197V129.199Z" fill="#010101"/>
<path d="M112.951 127.597C112.951 128.37 113.393 128.804 113.98 128.804C114.67 128.804 115.043 128.256 115.043 127.467C115.043 126.677 114.67 126.13 113.98 126.13C113.393 126.13 112.951 126.558 112.951 127.343V127.597ZM112.974 129.199V131.003C112.974 131.076 112.911 131.139 112.838 131.139H112.029C111.956 131.139 111.894 131.076 111.894 131.003V125.419C111.894 125.346 111.956 125.284 112.029 125.284H112.838C112.911 125.284 112.974 125.346 112.974 125.419V125.741C113.239 125.419 113.658 125.199 114.217 125.199C115.432 125.199 116.132 126.231 116.132 127.467C116.132 128.702 115.431 129.739 114.217 129.739C113.657 129.739 113.245 129.519 112.974 129.197V129.199Z" fill="#010101"/>
<path fill-rule="evenodd" clip-rule="evenodd" d="M77.0761 122.445C76.8215 121.746 76.2678 121.194 75.5666 120.94C74.9333 120.736 74.3457 120.736 73.1469 120.736H69.5507C68.3572 120.736 67.7643 120.736 67.1245 120.933C66.4233 121.187 65.8696 121.74 65.615 122.438C65.4113 123.081 65.4113 123.672 65.4113 124.862V128.448C65.4113 129.643 65.4113 130.23 65.6097 130.872C65.8644 131.571 66.418 132.123 67.1193 132.377C67.7643 132.581 68.3572 132.581 69.5455 132.581H73.1417C74.3352 132.581 74.9281 132.581 75.5679 132.377C76.2691 132.123 76.8228 131.571 77.0775 130.872C77.2812 130.23 77.2812 129.638 77.2812 128.448V124.869C77.2812 123.679 77.2812 123.087 77.0775 122.445H77.0761ZM73.9722 124.79L73.288 125.348C73.2253 125.399 73.1404 125.387 73.096 125.326C72.746 124.897 72.2028 124.655 71.6087 124.655C70.9466 124.655 70.534 124.943 70.534 125.348C70.5222 125.692 70.8448 125.867 71.8346 126.081C73.0843 126.345 73.6549 126.864 73.6549 127.738C73.6549 128.831 72.7617 129.638 71.3645 129.728L71.2287 130.377C71.2169 130.44 71.1608 130.484 71.0929 130.484H70.0182C69.9281 130.484 69.8654 130.399 69.8824 130.314L70.0521 129.593C69.3627 129.396 68.8025 129.011 68.4799 128.543C68.4408 128.481 68.4512 128.403 68.5087 128.357L69.2556 127.771C69.3183 127.72 69.4084 127.737 69.4541 127.799C69.8497 128.352 70.4609 128.679 71.196 128.679C71.8581 128.679 72.3556 128.357 72.3556 127.896C72.3556 127.54 72.1062 127.377 71.2639 127.203C69.8275 126.892 69.2569 126.369 69.2569 125.494C69.2569 124.479 70.1109 123.718 71.3997 123.616L71.5408 122.945C71.5525 122.883 71.6087 122.838 71.6766 122.838H72.7343C72.8192 122.838 72.8871 122.918 72.8701 123.001L72.7056 123.751C73.2592 123.92 73.7124 124.224 73.9944 124.601C74.0401 124.657 74.0284 124.742 73.9722 124.788V124.79Z" fill="#62BB46"/>
<path d="M101.601 138.048H101.943V138.129H101.817V138.471H101.728V138.129H101.601V138.048ZM102.475 138.048V138.47H102.386V138.164L102.266 138.47H102.197L102.073 138.163V138.47H101.984V138.048H102.114L102.232 138.358L102.351 138.048H102.475Z" fill="#B3B3B3"/>
</g>
<defs>
<clipPath id="clip0_1126_1541">
<rect width="77.0303" height="107.253" fill="white" transform="translate(49.0192 33.9082)"/>
</clipPath>
</defs>
</svg>
