<svg width="175" height="175" viewBox="0 0 175 175" fill="none" xmlns="http://www.w3.org/2000/svg">
<rect width="175" height="175" rx="87.5" fill="white"/>
<g clip-path="url(#clip0_773_1778)">
<path d="M79.2273 89.8634H84.4275V87.6121C84.4275 87.0769 83.994 86.6416 83.4588 86.6416H79.2273V89.8634Z" fill="#18133A"/>
<path d="M56.2016 86.6436L53.3402 90.2222H54.9297L51.2529 94.8212V86.6453H47.5048C46.4398 86.6453 45.5532 87.2109 45.1375 87.73L39.0168 95.3832V86.6453H32.855V104.713H38.7474L45.0911 96.7729V104.713H49.4101C50.3717 104.697 51.219 104.381 52.0896 103.283L65.4033 86.6453H56.2016V86.6436Z" fill="#18133A"/>
<path d="M123.851 90.6426C122.586 90.2038 121.132 90.1003 119.759 90.35C118.501 90.5802 117.343 91.1992 116.374 91.9503C116.044 91.6042 115.65 91.308 115.199 91.0654C114.591 90.7372 113.891 90.4089 113.122 90.3001C112.166 90.1645 111.142 90.2109 110.165 90.4339C109.62 90.557 109.112 90.8388 108.65 91.0547V90.4874H103.45V104.709H108.65V96.8989C108.65 95.4129 109.774 94.735 110.817 94.735C111.369 94.735 111.877 94.917 112.252 95.247C112.689 95.6323 112.919 96.2032 112.919 96.8989V104.709H118.119V96.8989C118.105 95.4272 119.091 94.735 120.269 94.735C120.8 94.735 121.291 94.9259 121.65 95.247C122.072 95.627 122.295 96.205 122.295 96.8989V104.709H127.494L127.499 95.2934C127.499 94.2444 127.135 93.2632 126.45 92.4551C125.815 91.7076 124.918 91.0101 123.853 90.6408" fill="#18133A"/>
<path d="M78.1568 86.6436H72.9565V104.711H78.1568V86.6436Z" fill="#18133A"/>
<path d="M84.4275 90.7549H79.2273V104.709H84.4275V90.7549Z" fill="#18133A"/>
<path d="M71.8861 86.6436H66.6859V104.711H71.8861V86.6436Z" fill="#18133A"/>
<path d="M60.4154 94.3085V104.709H65.6174V90.7549H63.2572L60.4154 94.3085Z" fill="#18133A"/>
<path d="M97.1792 91.4242C96.7706 91.162 96.3675 90.9568 95.909 90.7713C94.9742 90.3949 93.9877 90.2236 92.9744 90.2236H92.9316H92.9298C91.8951 90.229 90.8943 90.4127 89.9506 90.8052C89.0425 91.1834 88.229 91.7222 87.5315 92.4072C86.8358 93.0887 86.2899 93.8807 85.9099 94.762C85.5174 95.6718 85.3176 96.637 85.3176 97.6324C85.3176 98.6296 85.5174 99.6001 85.9153 100.512C86.2988 101.395 86.8483 102.189 87.5476 102.872C88.2505 103.557 89.0693 104.094 89.9809 104.47C90.9282 104.861 91.9361 105.059 92.9744 105.059C94.0126 105.059 94.9742 104.868 95.909 104.492C96.3585 104.31 96.776 104.097 97.1792 103.839V104.706H102.379V90.4841H97.1792V91.4207V91.4242ZM96.9597 97.5664C96.9597 99.1523 95.5165 100.442 93.7433 100.442C91.97 100.442 90.5268 99.1523 90.5268 97.5664C90.5268 96.8011 90.8586 96.0821 91.4616 95.5398C92.0628 94.9993 92.862 94.6978 93.7129 94.6907H93.7433C95.5165 94.6907 96.9597 95.9805 96.9597 97.5664Z" fill="#18133A"/>
<path d="M142.24 100.196C142.235 101.525 141.598 102.888 140.379 103.671C138.988 104.565 137.147 105.055 135.195 105.057C132.018 105.057 128.439 103.575 128.398 100.231V99.6981H133.806C133.806 99.6981 133.798 99.9728 133.886 100.187C134.066 100.633 134.701 101.072 135.343 101.072C136.134 101.072 136.801 100.71 136.801 100.281C136.801 100.048 136.706 99.9674 136.507 99.8854C136.182 99.7516 135.634 99.657 135.015 99.5803C133.715 99.4198 131.945 99.1308 130.33 98.0943L130.307 98.0782C129.699 97.6519 129.248 97.1969 128.93 96.6885C128.573 96.1194 128.393 95.4861 128.393 94.8029C128.393 93.4828 129.119 92.2946 130.439 91.4562C131.073 91.053 131.825 90.739 132.673 90.5267C133.527 90.3109 134.459 90.2217 135.441 90.2217H135.459C136.168 90.2377 136.922 90.3162 137.639 90.4875C138.437 90.6766 139.161 90.9442 139.791 91.2831C140.513 91.672 141.084 92.1412 141.487 92.6764C141.946 93.2847 142.178 93.9698 142.178 94.7083V95.2667H136.424C136.424 95.2667 136.464 94.8814 136.307 94.6459C136.225 94.5157 135.941 94.2748 135.361 94.2748C134.937 94.2748 134.708 94.3337 134.528 94.4443C134.435 94.5014 134.328 94.5977 134.328 94.8493C134.328 94.992 134.364 95.1454 134.803 95.3274C135.252 95.5147 135.927 95.6485 136.708 95.8055C137.932 96.0499 139.141 96.2015 140.467 96.8776L140.487 96.8883C140.487 96.8883 140.504 96.899 140.506 96.9008C141.789 97.6162 142.249 98.7062 142.244 100.198" fill="#18133A"/>
<path d="M66.6862 109.392H71.3673V110.256H67.7119V112.254H70.9355V113.099H67.7119V115.954H66.6862V109.391V109.392Z" fill="#18133A"/>
<path d="M73.1315 109.393H76.075V115.956H75.0671V110.258H73.1315V109.394V109.393Z" fill="#18133A"/>
<path d="M81.3679 109.393H86.941V110.256H84.6718V115.954H83.646V110.256H81.3679V109.393Z" fill="#18133A"/>
<path d="M88.8232 109.392H93.5757V110.247H89.849V112.183H93.1885V113.01H89.849V115.09H93.845V115.954H88.8214V109.391L88.8232 109.392Z" fill="#18133A"/>
<path d="M98.1604 109.393H99.3574L102.023 115.956H100.942L100.294 114.336H97.206L96.5673 115.956H95.5059L98.1622 109.393H98.1604ZM99.9604 113.506L99.1683 111.473C99.0238 111.103 98.8704 110.716 98.7544 110.32C98.6367 110.725 98.494 111.094 98.3406 111.473L97.5485 113.506H99.9604Z" fill="#18133A"/>
<path d="M103.787 109.393H105.489L106.515 112.3C106.757 112.994 106.991 113.669 107.235 114.443C107.469 113.695 107.731 112.977 107.965 112.3L109 109.393H110.675V115.956H109.667V111.535C109.667 111.148 109.667 110.698 109.676 110.238C109.54 110.67 109.351 111.228 109.171 111.733L107.613 115.956H106.839L105.282 111.733C105.111 111.248 104.939 110.752 104.777 110.238C104.768 110.688 104.768 111.102 104.777 111.535V115.956H103.787V109.393Z" fill="#18133A"/>
<path d="M123.705 59.1995H119.636L115.006 72.5275H118.56L119.216 70.2815C120.01 70.5152 120.854 70.6561 121.696 70.6561C122.538 70.6561 123.378 70.5152 124.176 70.2815L124.832 72.5275H128.386L123.71 59.1995H123.705ZM121.693 67.8499C121.086 67.8499 120.526 67.7572 120.01 67.6162L121.693 61.8202L123.375 67.6162C122.859 67.7572 122.251 67.8499 121.693 67.8499ZM76.0126 59.1995H71.9434L67.2658 72.5275H70.8195L71.476 70.2815C72.2698 70.5152 73.1136 70.6561 73.9557 70.6561C74.7977 70.6561 75.6379 70.5152 76.4354 70.2815L77.0919 72.5275H80.6455L76.0161 59.1995H76.0108H76.0126ZM73.9557 67.8499C73.3491 67.8499 72.789 67.7572 72.2734 67.6162L73.9557 61.8202L75.6379 67.6162C75.1224 67.7572 74.564 67.8499 73.9557 67.8499ZM41.5537 59.1995H37.4845L32.8551 72.5275H36.4087L37.0652 70.2815C37.8591 70.5152 38.7029 70.6561 39.5449 70.6561C40.387 70.6561 41.2272 70.5152 42.0246 70.2815L42.6811 72.5275H46.2348C46.1866 72.5275 41.5572 59.1995 41.5572 59.1995H41.5519H41.5537ZM39.4968 67.8499C38.8884 67.8499 38.3301 67.7572 37.8145 67.6162L39.4968 61.8202L41.179 67.6162C40.6635 67.7572 40.1051 67.8499 39.4968 67.8499ZM46.0849 59.1942H56.3248V62.0485H52.6303V72.5275H49.4994V62.0539H46.0867V59.1942H46.0849ZM61.7516 59.1995V69.6285H66.0064L65.0234 72.5275H58.6636V59.1995H61.7516ZM105.89 68.5546C105.89 71.0343 104.397 72.7166 100.703 72.7166C98.0373 72.7166 96.6333 72.11 95.5594 71.5927V68.4137C96.9152 69.2075 98.9721 69.8141 100.703 69.8141C102.201 69.8141 102.667 69.3966 102.667 68.6902C102.667 67.9837 102.201 67.659 100.094 67.1934C96.496 66.4923 95.6058 64.951 95.6058 62.9869C95.6058 60.5553 97.3808 59.0586 100.843 59.0586C102.667 59.0586 104.212 59.4332 105.239 59.9488V62.9869C103.791 62.3304 102.292 61.863 100.751 61.863C99.4877 61.863 98.7866 62.1894 98.7866 62.9369C98.7866 63.5452 99.254 63.9645 101.168 64.3855C104.674 65.133 105.89 66.2087 105.89 68.5475V68.5528V68.5546ZM112.528 72.5275H109.44V59.1995H112.528V72.5275ZM135.069 59.1995L138.292 65.2775L139.366 67.8V59.1995H142.172V72.5275H138.619L134.598 65.0438L133.431 62.3785V72.5257H130.577V59.1995H135.069ZM82.6971 62.9387C82.6971 64.9028 83.5873 66.4442 87.1855 67.1453C89.2906 67.6127 89.758 67.9391 89.758 68.642C89.758 69.3449 89.2906 69.7659 87.7938 69.7659C86.0634 69.7659 84.0065 69.1576 82.6489 68.3655V71.5463C83.7228 72.0619 85.1286 72.6702 87.7938 72.6702C91.533 72.6702 92.9816 70.9879 92.9816 68.5564M92.9869 68.5974C92.9869 66.2586 91.772 65.1847 88.2648 64.4354C86.3488 64.0126 85.8814 63.5952 85.8814 62.9869C85.8814 62.2376 86.5807 61.9111 87.8456 61.9111C89.3869 61.9111 90.8836 62.3785 92.3322 63.035V59.997C91.3011 59.4814 89.7597 59.1068 87.9365 59.1068C84.4757 59.1068 82.7006 60.6035 82.7006 63.035" fill="#3A67B1"/>
<path d="M87.5137 79.1172C67.3657 79.1172 36.2874 79.5043 32.8551 79.5436V79.6524C36.2874 79.6916 67.3675 80.0787 87.5137 80.0787C107.66 80.0787 138.738 79.6934 142.172 79.6524V79.5436C138.74 79.5043 107.66 79.1172 87.5137 79.1172Z" fill="#18133A"/>
</g>
<defs>
<clipPath id="clip0_773_1778">
<rect width="109.385" height="56.8975" fill="white" transform="translate(32.8553 59.0586)"/>
</clipPath>
</defs>
</svg>
